{"glyphs":{"0":{"ha":781,"x_min":51,"x_max":729,"o":"m 390 956 q 472 956 390 956 q 642 830 554 956 q 729 468 729 704 q 642 106 729 232 q 390 -19 554 -19 q 139 106 226 -19 q 51 468 51 232 q 139 830 51 704 q 390 956 226 956 m 390 843 q 238 747 290 843 q 185 468 185 651 q 238 187 185 283 q 390 90 290 90 q 544 187 492 90 q 597 468 597 283 q 544 747 597 651 q 390 843 492 843 z "},"1":{"ha":781,"x_min":146,"x_max":482,"o":"m 356 0 l 356 682 l 146 682 l 146 779 q 308 815 256 779 q 374 936 360 851 l 482 936 l 482 0 l 356 0 z "},"2":{"ha":781,"x_min":64,"x_max":711,"o":"m 390 956 q 547 923 479 956 q 651 831 614 890 q 689 694 689 772 q 658 560 689 617 q 573 460 626 503 q 432 367 519 418 q 292 272 340 314 q 225 194 243 231 q 206 110 207 157 l 711 110 l 711 0 l 65 0 q 64 28 64 10 q 85 188 64 122 q 167 315 107 254 q 340 442 226 375 q 465 523 422 490 q 532 596 508 556 q 556 692 556 636 q 510 802 556 760 q 389 844 465 844 q 207 661 218 844 l 76 661 q 166 878 82 800 q 390 956 250 956 z "},"3":{"ha":781,"x_min":63,"x_max":707,"o":"m 385 956 q 609 886 526 956 q 692 700 692 817 q 652 565 692 618 q 529 482 613 513 l 529 479 q 664 392 621 449 q 707 246 707 336 q 667 108 707 168 q 553 14 626 47 q 386 -19 481 -19 q 147 60 232 -19 q 63 282 63 139 l 192 282 q 242 140 192 189 q 386 90 292 90 q 524 135 471 90 q 576 250 576 179 q 519 376 576 332 q 354 419 463 419 l 317 419 l 317 526 l 354 526 q 506 570 450 526 q 563 689 563 614 q 513 803 563 760 q 379 846 463 846 q 247 799 293 846 q 200 660 200 753 l 71 660 q 155 877 71 799 q 385 956 239 956 z "},"4":{"ha":781,"x_min":26,"x_max":747,"o":"m 594 242 l 594 0 l 468 0 l 468 242 l 26 242 l 26 357 l 424 936 l 594 936 l 594 347 l 747 347 l 747 242 l 594 242 m 469 347 l 469 475 q 474 824 469 649 l 471 824 q 256 501 372 671 l 149 347 l 469 347 z "},"5":{"ha":781,"x_min":75,"x_max":707,"o":"m 240 828 l 213 538 l 215 538 q 297 595 247 575 q 404 615 347 615 q 563 577 494 615 q 669 469 632 539 q 707 307 707 400 q 667 135 707 208 q 552 21 626 61 q 379 -19 478 -19 q 158 53 240 -19 q 75 249 75 125 l 206 249 q 255 133 207 175 q 379 92 303 92 q 522 148 469 92 q 575 303 575 204 q 524 453 575 399 q 386 507 474 507 q 271 473 317 507 q 208 375 225 439 l 82 383 l 133 936 l 664 936 l 664 828 l 240 828 z "},"6":{"ha":781,"x_min":68,"x_max":718,"o":"m 417 956 q 618 887 542 956 q 706 696 694 818 l 575 696 q 413 844 550 844 q 252 757 311 844 q 189 490 193 669 l 192 490 q 422 610 274 610 q 577 572 510 610 q 681 463 644 533 q 718 303 718 393 q 678 135 718 208 q 565 21 638 61 q 399 -19 493 -19 q 153 94 238 -19 q 68 432 68 208 q 159 821 68 686 q 417 956 250 956 m 400 506 q 358 506 400 506 q 263 448 315 506 q 211 300 211 390 q 262 148 211 204 q 399 92 313 92 q 535 149 483 92 q 586 300 586 206 q 535 449 586 392 q 400 506 485 506 z "},"7":{"ha":781,"x_min":60,"x_max":707,"o":"m 707 824 q 509 453 596 663 q 374 0 422 243 l 233 0 q 383 471 293 263 q 578 825 474 679 l 60 825 l 60 936 l 707 936 l 707 824 z "},"8":{"ha":781,"x_min":64,"x_max":718,"o":"m 390 956 q 435 956 390 956 q 550 923 479 956 q 660 832 621 890 q 700 699 700 774 q 656 569 700 624 q 536 486 613 515 l 536 483 q 671 398 624 457 q 718 253 718 339 q 677 110 718 172 q 561 15 636 49 q 390 -19 486 -19 q 220 15 294 -19 q 105 110 146 49 q 64 253 64 172 q 111 398 64 339 q 244 483 158 457 l 244 486 q 125 570 168 515 q 82 699 82 625 q 122 832 82 774 q 231 923 161 890 q 390 956 301 956 m 390 846 q 349 846 390 846 q 258 804 308 846 q 208 694 208 763 q 258 579 208 622 q 390 536 307 536 q 523 579 474 536 q 572 694 572 622 q 522 804 572 763 q 390 846 472 846 m 390 428 q 347 428 390 428 q 248 381 303 428 q 193 261 193 335 q 247 138 193 185 q 390 92 301 92 q 533 138 479 92 q 588 261 588 185 q 533 381 588 335 q 390 428 478 428 z "},"9":{"ha":781,"x_min":53,"x_max":703,"o":"m 354 -19 q 153 49 229 -19 q 65 240 76 118 l 196 240 q 358 92 221 92 q 519 179 460 92 q 582 446 578 267 l 579 446 q 349 326 497 326 q 194 365 261 326 q 90 473 126 403 q 53 633 53 543 q 93 801 53 728 q 206 915 133 875 q 372 956 278 956 q 618 842 533 956 q 703 504 703 728 q 612 115 703 250 q 354 -19 521 -19 m 371 431 q 413 431 371 431 q 508 488 456 431 q 560 636 560 546 q 509 788 560 732 q 372 844 458 844 q 236 788 288 844 q 185 636 185 731 q 235 488 185 544 q 371 431 286 431 z "},"\u0000":{"ha":833,"x_min":0,"x_max":0,"o":""}," ":{"ha":319,"x_min":0,"x_max":0,"o":""},"!":{"ha":382,"x_min":113,"x_max":269,"o":"m 142 243 l 113 989 l 269 989 l 240 243 l 142 243 m 119 0 l 119 147 l 264 147 l 264 0 l 119 0 z "},"\"":{"ha":517,"x_min":94,"x_max":422,"o":"m 110 624 l 94 989 l 214 989 l 199 624 l 110 624 m 318 624 l 303 989 l 422 989 l 407 624 l 318 624 z "},"#":{"ha":901,"x_min":49,"x_max":853,"o":"m 639 356 l 803 356 l 788 265 l 624 265 l 582 0 l 476 0 l 518 265 l 318 265 l 276 0 l 171 0 l 213 265 l 49 265 l 63 356 l 228 356 l 264 583 l 99 583 l 113 675 l 278 675 l 319 936 l 425 936 l 383 675 l 583 675 l 625 936 l 731 936 l 689 675 l 853 675 l 838 583 l 675 583 l 639 356 m 369 583 l 333 356 l 533 356 l 569 583 l 369 583 z "},"$":{"ha":781,"x_min":58,"x_max":722,"o":"m 722 250 q 644 65 722 136 q 433 -18 567 -7 l 433 -137 l 347 -137 l 347 -18 q 134 76 208 -7 q 58 306 60 158 l 182 306 q 347 86 182 110 l 347 431 q 206 483 263 456 q 113 563 150 511 q 75 700 75 615 q 147 877 75 810 q 347 954 219 944 l 347 1061 l 433 1061 l 433 954 q 634 866 565 943 q 703 647 703 789 l 579 647 q 543 791 579 742 q 433 851 507 840 l 433 533 q 587 480 529 507 q 683 398 644 453 q 722 250 722 343 m 200 707 q 235 611 200 643 q 347 557 269 579 l 347 853 q 200 707 200 838 m 433 85 q 556 135 514 93 q 597 246 597 176 q 558 347 597 314 q 433 407 519 381 l 433 85 z "},"%":{"ha":1200,"x_min":63,"x_max":1138,"o":"m 290 -42 l 815 978 l 910 978 l 385 -42 l 290 -42 m 275 956 q 326 956 275 956 q 433 887 378 956 q 488 692 488 818 q 433 497 488 565 q 275 428 378 428 q 117 497 172 428 q 63 692 63 565 q 117 887 63 818 q 275 956 172 956 m 275 869 q 250 869 275 869 q 199 824 225 869 q 172 692 172 778 q 199 559 172 604 q 275 514 225 514 q 351 559 325 514 q 378 692 378 604 q 351 824 378 778 q 275 869 325 869 m 925 508 q 976 508 925 508 q 1083 440 1028 508 q 1138 244 1138 371 q 1083 49 1138 118 q 925 -19 1028 -19 q 767 49 822 -19 q 713 244 713 118 q 767 440 713 371 q 925 508 822 508 m 925 422 q 900 422 925 422 q 849 376 875 422 q 822 244 822 331 q 849 112 822 157 q 925 67 875 67 q 1001 112 975 67 q 1028 244 1028 157 q 1001 376 1028 331 q 925 422 975 422 z "},"&":{"ha":1019,"x_min":75,"x_max":1013,"o":"m 732 111 q 593 14 675 49 q 419 -21 511 -21 q 237 15 315 -21 q 117 115 158 51 q 75 263 75 179 q 128 431 75 358 q 294 558 182 504 q 204 676 228 628 q 181 789 181 724 q 249 947 181 886 q 426 1008 317 1008 q 603 949 538 1008 q 669 793 669 889 q 627 650 669 710 q 482 533 585 590 l 726 288 q 788 554 788 394 l 913 554 q 886 361 911 451 q 813 201 861 271 l 1013 0 l 842 0 l 732 111 m 426 903 q 335 872 368 903 q 301 785 301 840 q 323 703 301 740 q 408 603 344 667 q 519 690 489 646 q 550 786 550 733 q 517 871 550 839 q 426 903 483 903 m 654 189 l 367 481 q 242 385 278 435 q 207 268 207 336 q 267 140 207 190 q 428 89 328 89 q 654 189 558 89 z "},"'":{"ha":308,"x_min":94,"x_max":214,"o":"m 110 624 l 94 989 l 214 989 l 199 624 l 110 624 z "},"(":{"ha":406,"x_min":71,"x_max":364,"o":"m 364 1029 q 242 731 281 876 q 204 413 204 585 q 242 95 204 242 q 364 -204 281 -51 l 258 -204 q 117 85 163 -62 q 71 413 71 233 q 117 740 71 592 q 258 1029 163 889 l 364 1029 z "},")":{"ha":406,"x_min":42,"x_max":336,"o":"m 149 1029 q 290 740 243 889 q 336 413 336 592 q 290 86 336 235 q 149 -204 243 -62 l 42 -204 q 163 95 125 -51 q 201 413 201 242 q 163 731 201 585 q 42 1029 125 876 l 149 1029 z "},"*":{"ha":565,"x_min":43,"x_max":522,"o":"m 488 878 l 522 772 l 338 739 l 464 601 l 375 535 l 283 703 l 192 535 l 101 601 l 228 739 l 43 772 l 78 878 l 250 799 l 228 989 l 338 989 l 315 799 l 488 878 z "},"+":{"ha":786,"x_min":99,"x_max":688,"o":"m 688 490 l 688 389 l 443 389 l 443 146 l 343 146 l 343 389 l 99 389 l 99 490 l 343 490 l 343 735 l 443 735 l 443 490 l 688 490 z "},",":{"ha":314,"x_min":79,"x_max":232,"o":"m 160 -200 l 79 -200 l 132 0 l 82 0 l 82 163 l 232 163 l 232 0 l 160 -200 z "},"-":{"ha":417,"x_min":42,"x_max":375,"o":"m 42 351 l 42 460 l 375 460 l 375 351 l 42 351 z "},".":{"ha":314,"x_min":82,"x_max":232,"o":"m 82 0 l 82 163 l 232 163 l 232 0 l 82 0 z "},"/":{"ha":635,"x_min":42,"x_max":564,"o":"m 42 -124 l 454 1035 l 564 1035 l 151 -124 l 42 -124 z "},":":{"ha":314,"x_min":82,"x_max":232,"o":"m 82 0 l 82 163 l 232 163 l 232 0 l 82 0 m 82 543 l 82 706 l 232 706 l 232 543 l 82 543 z "},";":{"ha":314,"x_min":79,"x_max":232,"o":"m 160 -200 l 79 -200 l 132 0 l 82 0 l 82 163 l 232 163 l 232 0 l 160 -200 m 82 543 l 82 706 l 232 706 l 232 543 l 82 543 z "},"<":{"ha":786,"x_min":99,"x_max":688,"o":"m 213 442 l 213 439 l 688 242 l 688 131 l 99 378 l 99 503 l 688 750 l 688 639 l 213 442 z "},"=":{"ha":786,"x_min":99,"x_max":688,"o":"m 99 503 l 99 606 l 688 606 l 688 503 l 99 503 m 99 274 l 99 376 l 688 376 l 688 274 l 99 274 z "},">":{"ha":786,"x_min":99,"x_max":688,"o":"m 688 378 l 99 131 l 99 242 l 574 439 l 574 442 l 99 639 l 99 750 l 688 503 l 688 378 z "},"?":{"ha":717,"x_min":46,"x_max":663,"o":"m 361 1008 q 519 977 451 1008 q 625 889 588 946 q 663 757 663 832 q 651 669 663 706 q 608 595 639 633 q 515 506 576 557 q 434 426 460 460 q 399 350 408 393 q 389 229 389 307 l 281 229 l 281 271 q 292 391 281 344 q 332 477 303 438 q 421 568 361 517 q 493 639 469 610 q 524 693 517 668 q 532 754 532 718 q 486 858 532 819 q 361 897 440 897 q 226 852 274 897 q 174 718 179 807 l 46 718 q 135 934 53 860 q 361 1008 217 1008 m 263 0 l 263 147 l 407 147 l 407 0 l 263 0 z "},"@":{"ha":1206,"x_min":67,"x_max":1138,"o":"m 617 963 q 892 899 774 963 q 1074 722 1010 836 q 1138 454 1138 607 q 1102 260 1138 339 q 1007 143 1067 182 q 875 104 947 104 q 721 229 744 104 l 718 229 q 528 104 658 104 q 378 174 432 104 q 322 374 324 243 q 358 553 324 475 q 451 676 392 632 q 585 719 510 719 q 746 610 704 719 l 749 610 q 767 706 757 664 l 872 706 q 831 472 847 589 q 814 299 814 356 q 833 220 814 244 q 892 196 853 196 q 1001 262 957 196 q 1046 454 1046 328 q 993 676 1046 581 q 843 823 940 771 q 617 875 746 875 q 370 810 474 875 q 213 634 267 746 q 160 383 160 522 q 213 146 160 246 q 365 -7 267 46 q 596 -60 464 -60 q 901 18 774 -60 l 943 -60 q 596 -147 799 -147 q 317 -83 436 -147 q 132 100 197 -19 q 67 383 67 219 q 133 676 67 544 q 324 885 199 808 q 617 963 449 963 m 601 622 q 483 555 529 622 q 436 375 436 488 q 468 247 436 292 q 557 203 500 203 q 672 271 625 203 q 718 469 718 339 q 688 582 718 542 q 601 622 657 622 z "},"A":{"ha":938,"x_min":7,"x_max":932,"o":"m 251 294 l 143 0 l 7 0 l 382 989 l 556 989 l 932 0 l 794 0 l 688 294 l 251 294 m 614 497 q 471 900 529 731 l 468 900 q 325 497 410 731 l 292 407 l 646 407 l 614 497 z "},"B":{"ha":871,"x_min":132,"x_max":810,"o":"m 454 989 q 703 922 619 989 q 788 738 788 854 q 746 595 788 654 q 624 507 704 536 l 624 504 q 761 423 713 483 q 810 272 810 363 q 722 74 810 147 q 481 0 635 0 l 132 0 l 132 989 l 454 989 m 260 557 l 444 557 q 661 719 661 557 q 610 840 661 800 q 450 881 560 881 l 260 881 l 260 557 m 260 108 l 463 108 q 678 279 678 108 q 444 450 678 450 l 260 450 l 260 108 z "},"C":{"ha":957,"x_min":60,"x_max":892,"o":"m 493 1008 q 697 963 610 1008 q 832 838 783 918 q 886 654 881 757 l 754 654 q 674 828 744 764 q 493 892 604 892 q 273 785 353 892 q 193 494 193 679 q 272 203 193 310 q 489 97 351 97 q 671 163 599 97 q 758 340 743 228 l 892 340 q 769 77 876 174 q 489 -19 663 -19 q 260 42 357 -19 q 112 220 164 104 q 60 494 60 336 q 112 769 60 653 q 262 947 164 885 q 493 1008 360 1008 z "},"D":{"ha":1004,"x_min":132,"x_max":946,"o":"m 433 989 q 813 860 679 989 q 946 494 946 732 q 813 128 946 257 q 433 0 679 0 l 132 0 l 132 989 l 433 989 m 260 114 l 432 114 q 714 211 617 114 q 811 494 811 308 q 714 778 811 681 q 432 875 617 875 l 260 875 l 260 114 z "},"E":{"ha":858,"x_min":132,"x_max":785,"o":"m 260 875 l 260 563 l 740 563 l 740 450 l 260 450 l 260 114 l 785 114 l 785 0 l 132 0 l 132 989 l 769 989 l 769 875 l 260 875 z "},"F":{"ha":796,"x_min":132,"x_max":751,"o":"m 260 875 l 260 538 l 721 538 l 721 424 l 260 424 l 260 0 l 132 0 l 132 989 l 751 989 l 751 875 l 260 875 z "},"G":{"ha":1015,"x_min":60,"x_max":900,"o":"m 507 1008 q 781 923 676 1008 q 900 692 886 838 l 764 692 q 681 840 747 788 q 507 892 614 892 q 277 785 361 892 q 193 492 193 678 q 274 198 193 304 q 497 92 356 92 q 701 170 625 92 q 778 415 776 249 l 506 415 l 506 525 l 900 525 l 900 0 l 786 0 l 786 136 l 783 136 q 660 24 743 65 q 472 -18 576 -18 q 253 43 347 -18 q 110 219 160 104 q 60 492 60 335 q 114 767 60 651 q 269 946 168 883 q 507 1008 369 1008 z "},"H":{"ha":1024,"x_min":132,"x_max":893,"o":"m 764 0 l 764 457 l 260 457 l 260 0 l 132 0 l 132 989 l 260 989 l 260 569 l 764 569 l 764 989 l 893 989 l 893 0 l 764 0 z "},"I":{"ha":392,"x_min":132,"x_max":260,"o":"m 132 0 l 132 989 l 260 989 l 260 0 l 132 0 z "},"J":{"ha":494,"x_min":21,"x_max":369,"o":"m 90 -7 q 21 1 49 -7 l 21 115 q 81 108 58 108 q 202 153 163 108 q 242 300 242 197 l 242 989 l 369 989 l 369 283 q 90 -7 369 -7 z "},"K":{"ha":868,"x_min":132,"x_max":863,"o":"m 863 0 l 692 0 l 263 486 l 260 486 l 260 0 l 132 0 l 132 989 l 260 989 l 260 543 l 263 543 l 661 989 l 822 989 l 390 518 l 863 0 z "},"L":{"ha":779,"x_min":132,"x_max":765,"o":"m 765 114 l 765 0 l 132 0 l 132 989 l 260 989 l 260 114 l 765 114 z "},"M":{"ha":1297,"x_min":132,"x_max":1165,"o":"m 1040 0 l 1040 503 q 1043 881 1040 628 l 1040 881 q 924 553 990 736 l 906 503 l 722 0 l 575 0 l 392 503 l 374 553 q 257 881 307 736 l 254 881 q 257 503 257 628 l 257 0 l 132 0 l 132 989 l 338 989 l 517 501 q 647 122 583 314 l 650 122 q 781 501 714 314 l 958 989 l 1165 989 l 1165 0 l 1040 0 z "},"N":{"ha":1049,"x_min":132,"x_max":918,"o":"m 729 0 l 494 426 q 256 869 361 665 l 253 869 q 257 396 257 632 l 257 0 l 132 0 l 132 989 l 319 989 l 556 563 q 794 119 696 307 l 797 119 q 793 593 793 357 l 793 989 l 918 989 l 918 0 l 729 0 z "},"O":{"ha":1017,"x_min":60,"x_max":957,"o":"m 508 1008 q 576 1008 508 1008 q 746 946 644 1008 q 902 767 847 883 q 957 494 957 651 q 902 222 957 338 q 746 43 847 106 q 508 -19 644 -19 q 271 43 372 -19 q 115 222 169 106 q 60 494 60 338 q 115 767 60 651 q 271 946 169 883 q 508 1008 372 1008 m 508 892 q 460 892 508 892 q 341 843 413 892 q 231 705 269 794 q 193 494 193 615 q 231 284 193 374 q 341 146 269 194 q 508 97 413 97 q 676 146 604 97 q 785 284 747 194 q 824 494 824 374 q 785 705 824 615 q 676 843 747 794 q 508 892 604 892 z "},"P":{"ha":856,"x_min":132,"x_max":817,"o":"m 471 989 q 728 909 639 989 q 817 690 817 829 q 728 472 817 551 q 471 392 639 392 l 260 392 l 260 0 l 132 0 l 132 989 l 471 989 m 260 503 l 461 503 q 628 552 572 503 q 685 690 685 601 q 628 828 685 779 q 461 878 572 878 l 260 878 l 260 503 z "},"Q":{"ha":1015,"x_min":60,"x_max":956,"o":"m 956 494 q 924 281 956 376 q 835 118 893 185 l 944 -3 l 867 -76 l 754 47 q 511 -19 649 -19 q 272 43 374 -19 q 115 222 169 106 q 60 494 60 338 q 115 767 60 651 q 272 946 169 883 q 511 1008 374 1008 q 747 946 647 1008 q 901 767 847 883 q 956 494 956 651 m 671 138 l 540 281 l 619 353 l 749 211 q 825 493 825 321 q 787 704 825 614 q 678 843 749 794 q 513 892 607 892 q 343 843 415 892 q 232 704 271 794 q 193 493 193 614 q 232 281 193 372 q 343 142 271 190 q 513 93 415 93 q 671 138 603 93 z "},"R":{"ha":889,"x_min":132,"x_max":854,"o":"m 446 989 q 707 919 621 989 q 793 721 793 850 q 742 560 793 626 q 604 474 690 493 l 604 471 q 689 415 658 454 q 753 285 719 376 l 854 0 l 715 0 l 625 261 q 553 383 594 350 q 433 417 513 417 l 260 417 l 260 0 l 132 0 l 132 989 l 446 989 m 260 525 l 444 525 q 609 576 556 525 q 663 711 663 626 q 436 879 663 879 l 260 879 l 260 525 z "},"S":{"ha":846,"x_min":54,"x_max":778,"o":"m 400 1008 q 665 926 576 1008 q 754 683 754 844 l 625 683 q 567 845 625 792 q 399 899 510 899 q 255 857 307 899 q 203 744 203 815 q 228 662 203 693 q 302 610 253 631 q 442 568 351 590 q 624 511 556 540 q 735 425 693 482 q 778 272 778 368 q 734 119 778 185 q 610 17 690 53 q 424 -19 531 -19 q 151 69 249 -19 q 54 328 54 158 l 186 328 q 249 149 186 208 q 425 90 311 90 q 588 136 531 90 q 646 265 646 182 q 620 350 646 318 q 545 401 594 382 q 404 443 496 419 q 222 501 290 471 q 113 586 154 531 q 72 736 72 642 q 113 877 72 815 q 227 974 153 939 q 400 1008 301 1008 z "},"T":{"ha":832,"x_min":14,"x_max":818,"o":"m 481 875 l 481 0 l 351 0 l 351 875 l 14 875 l 14 989 l 818 989 l 818 875 l 481 875 z "},"U":{"ha":979,"x_min":124,"x_max":857,"o":"m 857 371 q 763 81 857 181 q 490 -19 668 -19 q 217 80 311 -19 q 124 371 124 179 l 124 989 l 251 989 l 251 374 q 314 167 251 238 q 490 97 376 97 q 666 167 604 97 q 728 374 728 238 l 728 989 l 857 989 l 857 371 z "},"V":{"ha":867,"x_min":10,"x_max":858,"o":"m 350 0 l 10 989 l 143 989 l 294 549 q 432 125 343 408 l 435 125 q 574 549 510 367 l 724 989 l 858 989 l 517 0 l 350 0 z "},"W":{"ha":1272,"x_min":14,"x_max":1258,"o":"m 844 0 l 740 432 q 638 875 683 667 l 635 875 q 532 432 589 667 l 428 0 l 244 0 l 14 989 l 142 989 l 235 589 q 328 168 267 449 l 338 124 l 340 124 q 450 590 403 404 l 547 989 l 725 989 l 822 590 q 932 124 869 404 l 935 124 q 1038 589 978 333 l 1131 989 l 1258 989 l 1028 0 l 844 0 z "},"X":{"ha":863,"x_min":10,"x_max":853,"o":"m 853 0 l 700 0 l 433 407 l 431 407 l 164 0 l 10 0 l 353 507 l 29 989 l 179 989 l 431 604 l 433 604 l 683 989 l 833 989 l 510 507 l 853 0 z "},"Y":{"ha":853,"x_min":6,"x_max":847,"o":"m 490 0 l 363 0 l 363 410 l 6 989 l 154 989 l 275 785 q 425 524 346 665 l 428 524 q 578 785 507 665 l 700 989 l 847 989 l 490 410 l 490 0 z "},"Z":{"ha":786,"x_min":25,"x_max":761,"o":"m 175 115 l 175 113 l 761 113 l 761 0 l 25 0 l 25 122 l 585 874 l 585 876 l 40 876 l 40 989 l 735 989 l 735 867 l 175 115 z "},"[":{"ha":413,"x_min":106,"x_max":388,"o":"m 224 947 l 224 -124 l 388 -124 l 388 -206 l 106 -206 l 106 1029 l 388 1029 l 388 947 l 224 947 z "},"\\":{"ha":635,"x_min":71,"x_max":593,"o":"m 593 -124 l 483 -124 l 71 1035 l 181 1035 l 593 -124 z "},"]":{"ha":413,"x_min":25,"x_max":307,"o":"m 307 -206 l 25 -206 l 25 -124 l 189 -124 l 189 947 l 25 947 l 25 1029 l 307 1029 l 307 -206 z "},"^":{"ha":624,"x_min":15,"x_max":608,"o":"m 494 515 l 314 890 l 311 890 l 131 515 l 15 515 l 246 989 l 378 989 l 608 515 l 494 515 z "},"_":{"ha":694,"x_min":0,"x_max":694,"o":"m 0 -140 l 0 -69 l 694 -69 l 694 -140 l 0 -140 z "},"`":{"ha":415,"x_min":69,"x_max":346,"o":"m 346 790 l 240 790 l 69 989 l 226 989 l 346 790 z "},"a":{"ha":738,"x_min":47,"x_max":654,"o":"m 360 725 q 565 656 492 725 q 638 451 638 588 l 638 181 q 654 0 638 74 l 543 0 q 533 103 533 44 l 531 103 q 432 15 493 46 q 286 -15 371 -15 q 113 42 178 -15 q 47 192 47 100 q 108 337 47 283 q 315 414 168 390 q 519 438 418 431 l 519 465 q 477 590 519 550 q 360 631 435 631 q 243 592 285 631 q 199 490 201 554 l 76 490 q 156 660 82 594 q 360 725 229 725 m 335 322 q 209 281 246 308 q 172 200 172 253 q 210 112 172 144 q 317 79 249 79 q 398 94 360 79 q 463 135 436 108 q 507 203 494 168 q 519 301 519 239 l 519 344 q 335 322 413 336 z "},"b":{"ha":800,"x_min":108,"x_max":743,"o":"m 233 608 q 320 692 263 661 q 449 724 378 724 q 604 678 538 724 q 707 549 671 633 q 743 354 743 465 q 707 159 743 243 q 603 29 671 75 q 447 -17 536 -17 q 318 15 376 -17 q 232 103 260 47 l 229 103 l 229 0 l 108 0 l 108 989 l 231 989 l 231 608 l 233 608 m 417 625 q 277 552 329 625 q 225 354 225 479 q 277 156 225 229 q 417 82 329 82 q 561 156 507 82 q 615 354 615 231 q 561 551 615 478 q 417 625 507 625 z "},"c":{"ha":742,"x_min":57,"x_max":690,"o":"m 389 725 q 538 691 472 725 q 644 596 604 657 q 690 456 683 535 l 563 456 q 508 578 556 531 q 388 625 460 625 q 240 552 294 625 q 186 353 186 479 q 240 153 186 226 q 388 81 293 81 q 508 131 460 81 q 563 260 556 182 l 690 260 q 644 116 683 179 q 540 17 606 53 q 389 -19 474 -19 q 213 26 288 -19 q 97 155 138 71 q 57 353 57 239 q 97 551 57 467 q 213 680 138 635 q 389 725 288 725 z "},"d":{"ha":800,"x_min":57,"x_max":692,"o":"m 572 0 l 572 103 l 569 103 q 483 15 540 47 q 353 -17 425 -17 q 197 29 264 -17 q 93 159 129 75 q 57 354 57 243 q 93 549 57 465 q 196 678 129 633 q 351 724 263 724 q 480 692 422 724 q 567 608 538 661 l 569 608 l 569 989 l 692 989 l 692 0 l 572 0 m 383 625 q 239 551 293 625 q 185 354 185 478 q 239 156 185 231 q 383 82 293 82 q 524 156 471 82 q 576 354 576 229 q 524 552 576 479 q 383 625 471 625 z "},"e":{"ha":764,"x_min":57,"x_max":707,"o":"m 389 75 q 513 113 464 75 q 575 211 563 150 l 700 211 q 599 47 681 113 q 389 -19 518 -19 q 211 28 286 -19 q 97 161 136 75 q 57 363 57 247 q 97 549 57 467 q 210 678 136 632 q 385 725 285 725 q 584 660 503 725 q 693 479 665 594 q 707 328 707 422 l 179 328 q 241 139 183 203 q 389 75 299 75 m 385 631 q 244 576 299 631 q 181 421 190 521 l 586 421 q 522 576 576 522 q 385 631 468 631 z "},"f":{"ha":424,"x_min":18,"x_max":406,"o":"m 365 899 q 288 871 313 899 q 263 779 263 843 l 263 706 l 403 706 l 403 608 l 263 608 l 263 0 l 142 0 l 142 608 l 18 608 l 18 706 l 142 706 l 142 793 q 191 945 142 894 q 335 996 240 996 q 406 989 378 996 l 406 894 q 365 899 393 899 z "},"g":{"ha":796,"x_min":57,"x_max":688,"o":"m 567 603 l 569 603 l 569 706 l 688 706 l 688 43 q 608 -190 688 -111 q 379 -268 529 -268 q 167 -208 244 -268 q 88 -44 90 -149 l 210 -44 q 258 -140 213 -106 q 381 -174 303 -174 q 522 -121 476 -174 q 568 49 568 -68 l 568 125 l 565 125 q 356 7 489 7 q 198 51 265 7 q 94 177 131 96 q 57 365 57 258 q 94 555 57 474 q 198 680 131 636 q 356 724 265 724 q 567 603 494 724 m 375 622 q 237 552 289 622 q 185 365 185 482 q 237 180 185 250 q 375 110 289 110 q 519 178 467 110 q 572 365 572 247 q 519 553 572 485 q 375 622 467 622 z "},"h":{"ha":800,"x_min":108,"x_max":699,"o":"m 233 617 q 324 694 268 668 q 443 721 379 721 q 632 647 565 721 q 699 431 699 574 l 699 0 l 576 0 l 576 421 q 535 574 576 528 q 414 621 493 621 q 283 564 335 621 q 231 404 231 507 l 231 0 l 108 0 l 108 989 l 231 989 l 231 617 l 233 617 z "},"i":{"ha":339,"x_min":108,"x_max":231,"o":"m 108 0 l 108 706 l 231 706 l 231 0 l 108 0 m 108 851 l 108 989 l 231 989 l 231 851 l 108 851 z "},"j":{"ha":346,"x_min":-31,"x_max":238,"o":"m 238 -40 q 184 -209 238 -156 q 35 -262 131 -262 q -31 -256 -4 -262 l -31 -158 q 10 -162 -10 -162 q 90 -133 64 -162 q 115 -29 115 -103 l 115 706 l 238 706 l 238 -40 m 115 851 l 115 989 l 238 989 l 238 851 l 115 851 z "},"k":{"ha":694,"x_min":108,"x_max":707,"o":"m 546 0 l 233 353 l 231 353 l 231 0 l 108 0 l 108 989 l 231 989 l 231 413 l 233 413 l 518 706 l 669 706 l 353 386 l 707 0 l 546 0 z "},"l":{"ha":339,"x_min":108,"x_max":231,"o":"m 108 0 l 108 989 l 231 989 l 231 0 l 108 0 z "},"m":{"ha":1199,"x_min":108,"x_max":1097,"o":"m 860 721 q 1035 649 974 721 q 1097 436 1097 576 l 1097 0 l 975 0 l 975 426 q 938 575 975 529 q 831 621 901 621 q 709 561 754 621 q 664 400 664 501 l 664 0 l 542 0 l 542 444 q 504 574 542 528 q 399 621 467 621 q 276 560 321 621 q 231 392 231 499 l 231 0 l 108 0 l 108 706 l 226 706 l 226 618 l 229 618 q 426 721 304 721 q 554 687 500 721 q 636 588 608 653 q 860 721 711 721 z "},"n":{"ha":800,"x_min":108,"x_max":699,"o":"m 443 721 q 632 647 565 721 q 699 431 699 574 l 699 0 l 576 0 l 576 421 q 535 574 576 528 q 414 621 493 621 q 283 564 335 621 q 231 404 231 507 l 231 0 l 108 0 l 108 706 l 226 706 l 226 613 l 229 613 q 318 692 263 663 q 443 721 374 721 z "},"o":{"ha":785,"x_min":57,"x_max":728,"o":"m 392 725 q 469 725 392 725 q 638 625 547 725 q 728 353 728 525 q 638 81 728 181 q 392 -19 547 -19 q 147 81 236 -19 q 57 353 57 181 q 147 625 57 525 q 392 725 236 725 m 392 625 q 240 552 296 625 q 185 353 185 479 q 240 153 185 226 q 392 81 296 81 q 544 153 489 81 q 600 353 600 226 q 544 552 600 479 q 392 625 489 625 z "},"p":{"ha":800,"x_min":108,"x_max":743,"o":"m 447 724 q 603 678 536 724 q 707 549 671 633 q 743 354 743 465 q 707 159 743 243 q 604 29 671 75 q 449 -17 538 -17 q 320 15 378 -17 q 233 100 263 46 l 231 100 l 231 -257 l 108 -257 l 108 706 l 229 706 l 229 604 l 232 604 q 318 692 260 660 q 447 724 376 724 m 417 625 q 277 552 329 625 q 225 354 225 479 q 277 156 225 229 q 417 82 329 82 q 561 156 507 82 q 615 354 615 231 q 561 551 615 478 q 417 625 507 625 z "},"q":{"ha":800,"x_min":57,"x_max":692,"o":"m 353 724 q 483 692 425 724 q 569 604 540 660 l 572 604 l 572 706 l 692 706 l 692 -257 l 569 -257 l 569 100 l 567 100 q 480 15 538 46 q 351 -17 422 -17 q 196 29 263 -17 q 93 159 129 75 q 57 354 57 243 q 93 549 57 465 q 197 678 129 633 q 353 724 264 724 m 383 625 q 239 551 293 625 q 185 354 185 478 q 239 156 185 231 q 383 82 293 82 q 524 156 471 82 q 576 354 576 229 q 524 552 576 479 q 383 625 471 625 z "},"r":{"ha":503,"x_min":108,"x_max":488,"o":"m 488 707 l 488 597 q 439 601 442 601 q 285 539 339 601 q 231 360 231 476 l 231 0 l 108 0 l 108 706 l 225 706 l 225 597 l 228 597 q 436 713 297 713 q 488 707 467 713 z "},"s":{"ha":686,"x_min":54,"x_max":629,"o":"m 332 725 q 535 663 463 725 q 607 485 607 600 l 488 485 q 447 593 488 556 q 331 631 406 631 q 230 603 267 631 q 193 531 193 576 q 210 475 193 494 q 260 444 228 456 q 363 417 292 433 q 505 375 454 394 q 592 312 556 356 q 629 192 629 268 q 553 38 629 96 q 350 -19 478 -19 q 133 46 210 -19 q 54 235 56 111 l 178 235 q 223 119 178 160 q 351 78 268 78 q 463 107 421 78 q 504 183 504 136 q 485 246 504 224 q 428 281 465 268 q 310 314 390 294 q 181 352 225 335 q 103 409 136 369 q 71 521 71 449 q 144 668 71 611 q 332 725 217 725 z "},"t":{"ha":444,"x_min":15,"x_max":407,"o":"m 407 103 l 407 3 q 329 -6 376 -6 q 183 42 228 -6 q 138 197 138 89 l 138 608 l 15 608 l 15 706 l 138 706 l 138 876 l 260 876 l 260 706 l 400 706 l 400 608 l 260 608 l 260 210 q 282 122 260 149 q 357 96 304 96 q 407 103 386 96 z "},"u":{"ha":800,"x_min":101,"x_max":692,"o":"m 356 -15 q 167 58 233 -15 q 101 275 101 132 l 101 706 l 224 706 l 224 285 q 265 131 224 178 q 386 85 307 85 q 517 142 464 85 q 569 301 569 200 l 569 706 l 692 706 l 692 0 l 574 0 l 574 93 l 571 93 q 481 14 538 43 q 356 -15 425 -15 z "},"v":{"ha":653,"x_min":-8,"x_max":661,"o":"m 247 0 l -8 706 l 122 706 l 222 410 q 325 96 286 219 l 328 96 q 429 410 383 274 l 531 706 l 661 706 l 406 0 l 247 0 z "},"w":{"ha":1069,"x_min":10,"x_max":1060,"o":"m 697 0 l 614 306 q 594 383 599 364 q 536 611 561 507 l 533 611 q 475 383 508 507 q 456 306 471 364 l 372 0 l 197 0 l 10 706 l 133 706 l 208 411 q 286 94 242 278 l 289 94 q 367 404 326 253 l 447 706 l 622 706 l 703 404 l 781 94 l 783 94 q 861 411 828 278 l 936 706 l 1060 706 l 872 0 l 697 0 z "},"x":{"ha":667,"x_min":-3,"x_max":671,"o":"m 671 0 l 524 0 l 335 282 l 332 282 l 143 0 l -3 0 l 260 367 l 19 706 l 164 706 l 332 453 l 335 453 l 504 706 l 649 706 l 408 367 l 671 0 z "},"y":{"ha":656,"x_min":-8,"x_max":664,"o":"m 381 -32 q 308 -173 346 -124 q 219 -242 269 -222 q 90 -262 168 -262 q 26 -256 49 -262 l 26 -153 q 85 -161 51 -161 q 162 -147 132 -161 q 214 -100 192 -133 q 260 -3 236 -67 l -8 706 l 124 706 l 326 144 l 329 144 l 535 706 l 664 706 l 381 -32 z "},"z":{"ha":651,"x_min":36,"x_max":615,"o":"m 186 103 l 186 100 l 615 100 l 615 0 l 36 0 l 36 106 l 451 603 l 451 606 l 50 606 l 50 706 l 601 706 l 601 600 l 186 103 z "},"{":{"ha":418,"x_min":56,"x_max":385,"o":"m 385 951 q 290 917 318 949 q 263 811 263 886 l 263 585 q 236 472 263 511 q 146 413 210 433 l 146 408 q 236 349 210 389 q 263 238 263 310 l 263 10 q 290 -97 263 -65 q 385 -129 318 -128 l 385 -207 l 354 -207 q 197 -153 244 -207 q 149 18 149 -100 l 149 233 q 128 324 149 294 q 56 368 107 353 l 56 453 q 128 498 107 468 q 149 588 149 528 l 149 804 q 197 976 149 922 q 354 1029 244 1029 l 385 1029 l 385 951 z "},"|":{"ha":379,"x_min":133,"x_max":246,"o":"m 133 -285 l 133 1017 l 246 1017 l 246 -285 l 133 -285 z "},"}":{"ha":418,"x_min":33,"x_max":363,"o":"m 64 1029 q 222 976 174 1029 q 269 804 269 922 l 269 588 q 290 498 269 528 q 363 453 311 468 l 363 368 q 290 324 311 353 q 269 233 269 294 l 269 18 q 222 -153 269 -100 q 64 -207 174 -207 l 33 -207 l 33 -129 q 128 -97 100 -128 q 156 10 156 -65 l 156 238 q 182 349 156 310 q 272 408 208 389 l 272 413 q 182 472 208 433 q 156 585 156 511 l 156 811 q 128 917 156 886 q 33 951 100 949 l 33 1029 l 64 1029 z "},"~":{"ha":810,"x_min":35,"x_max":775,"o":"m 240 569 q 335 548 294 569 q 431 483 376 526 q 506 431 475 449 q 571 414 536 414 q 657 452 625 414 q 689 554 689 490 l 775 554 q 718 378 775 444 q 569 311 661 311 q 474 333 515 311 q 379 397 433 354 q 304 449 335 432 q 239 467 274 467 q 153 428 185 467 q 121 325 121 389 l 35 325 q 92 502 35 435 q 240 569 149 569 z "}," ":{"ha":319,"x_min":0,"x_max":0,"o":""},"¡":{"ha":382,"x_min":113,"x_max":269,"o":"m 264 706 l 264 558 l 119 558 l 119 706 l 264 706 m 240 463 l 269 -283 l 113 -283 l 142 463 l 240 463 z "},"¢":{"ha":781,"x_min":74,"x_max":707,"o":"m 449 196 q 538 258 503 210 q 579 369 574 306 l 707 369 q 628 182 697 257 q 449 93 558 107 l 449 -33 l 361 -33 l 361 93 q 151 206 228 108 q 74 463 74 304 q 150 719 74 622 q 361 832 226 817 l 361 956 l 449 956 l 449 832 q 627 747 557 819 q 707 567 697 675 l 579 567 q 539 673 574 629 q 449 729 504 717 l 449 196 m 203 463 q 203 407 203 463 q 244 281 203 351 q 361 194 286 211 l 361 731 q 244 644 286 714 q 203 463 203 574 z "},"£":{"ha":781,"x_min":33,"x_max":728,"o":"m 721 106 l 721 0 l 33 0 l 33 107 q 134 151 100 107 q 168 293 168 196 l 168 407 l 33 407 l 33 514 l 168 514 l 168 653 q 242 879 168 803 q 453 956 315 956 q 655 879 582 956 q 728 669 728 803 l 604 669 q 565 799 604 754 q 453 844 525 844 q 335 796 375 844 q 294 653 294 747 l 294 514 l 468 514 l 468 407 l 294 407 l 294 294 q 277 178 294 221 q 221 108 260 136 l 221 106 l 721 106 z "},"¤":{"ha":781,"x_min":42,"x_max":739,"o":"m 633 225 l 739 113 l 657 36 l 553 147 q 390 104 482 104 q 228 147 299 104 l 124 36 l 42 113 l 147 224 q 96 404 96 299 q 147 585 96 510 l 42 696 l 124 772 l 228 661 q 390 704 299 704 q 553 661 482 704 l 657 772 l 739 696 l 633 583 q 685 404 685 508 q 633 225 685 300 m 390 208 q 433 208 390 208 q 526 262 475 208 q 576 404 576 315 q 526 547 576 493 q 390 600 475 600 q 256 547 306 600 q 206 404 206 493 q 256 262 206 315 q 390 208 306 208 z "},"¥":{"ha":781,"x_min":13,"x_max":768,"o":"m 694 500 l 694 418 l 456 418 l 456 340 l 694 340 l 694 258 l 456 258 l 456 0 l 326 0 l 326 258 l 86 258 l 86 340 l 326 340 l 326 418 l 86 418 l 86 500 l 276 500 l 13 936 l 160 936 l 242 793 q 389 532 307 682 l 392 532 q 539 793 450 639 l 622 936 l 768 936 l 506 500 l 694 500 z "},"¦":{"ha":379,"x_min":133,"x_max":246,"o":"m 133 531 l 133 1017 l 246 1017 l 246 531 l 133 531 m 133 -285 l 133 201 l 246 201 l 246 -285 l 133 -285 z "},"§":{"ha":803,"x_min":89,"x_max":714,"o":"m 393 1008 q 583 948 517 1008 q 656 771 650 888 l 532 771 q 393 906 528 906 q 301 876 335 906 q 267 797 267 847 q 281 738 267 760 q 330 699 296 717 q 449 644 364 681 q 607 565 553 599 q 688 485 661 531 q 714 371 714 440 q 596 169 714 242 l 596 167 q 664 13 664 113 q 592 -149 664 -90 q 399 -208 521 -208 q 193 -146 265 -208 q 119 39 121 -83 l 243 39 q 397 -106 247 -106 q 499 -74 463 -106 q 536 13 536 -43 q 518 78 536 53 q 460 126 500 104 q 332 189 421 149 q 191 265 240 232 q 115 342 142 297 q 89 453 89 386 q 118 566 89 515 q 204 651 147 617 l 204 654 q 139 797 139 707 q 210 950 139 892 q 393 1008 281 1008 m 207 468 q 246 374 207 413 q 390 288 285 335 q 518 224 453 260 q 575 281 554 247 q 596 357 596 315 q 581 422 596 394 q 528 476 567 450 q 419 533 490 501 q 283 597 354 561 q 207 468 207 543 z "},"¨":{"ha":524,"x_min":69,"x_max":454,"o":"m 69 851 l 69 989 l 183 989 l 183 851 l 69 851 m 340 851 l 340 989 l 454 989 l 454 851 l 340 851 z "},"©":{"ha":1125,"x_min":65,"x_max":1061,"o":"m 563 1006 q 636 1006 563 1006 q 823 942 710 1006 q 999 762 936 878 q 1061 494 1061 646 q 999 227 1061 343 q 823 47 936 111 q 563 -17 710 -17 q 302 47 415 -17 q 127 227 189 111 q 65 494 65 343 q 127 762 65 646 q 302 942 189 878 q 563 1006 415 1006 m 563 940 q 498 940 563 940 q 335 885 433 940 q 182 728 236 829 q 128 494 128 628 q 182 260 128 361 q 335 104 236 160 q 563 49 433 49 q 790 104 692 49 q 943 260 889 160 q 997 494 997 361 q 943 728 997 628 q 790 885 889 829 q 563 940 692 940 m 564 832 q 751 767 681 832 q 826 597 821 701 l 722 597 q 675 702 717 663 q 564 742 633 742 q 433 676 481 742 q 385 494 385 610 q 433 314 385 381 q 563 247 481 247 q 673 288 629 247 q 725 397 717 328 l 831 397 q 749 222 819 286 q 563 157 678 157 q 355 247 431 157 q 279 494 279 338 q 356 742 279 651 q 564 832 432 832 z "},"ª":{"ha":546,"x_min":33,"x_max":486,"o":"m 267 967 q 420 917 367 967 q 474 771 474 868 l 474 589 q 486 458 474 514 l 392 458 q 385 528 385 496 l 382 528 q 207 447 325 447 q 81 488 128 447 q 33 594 33 529 q 78 698 33 660 q 232 753 124 736 q 372 768 331 765 l 372 785 q 265 890 372 890 q 188 867 215 890 q 160 801 161 843 l 54 801 q 113 920 58 874 q 267 967 168 967 m 249 679 q 165 652 189 669 q 140 601 140 635 q 165 546 140 567 q 236 525 190 525 q 291 534 265 525 q 333 560 317 543 q 364 605 356 582 q 372 668 372 628 l 372 694 q 249 679 306 689 z "},"«":{"ha":644,"x_min":67,"x_max":578,"o":"m 578 75 l 464 75 l 306 353 l 464 631 l 578 631 l 424 353 l 578 75 m 339 75 l 225 75 l 67 353 l 225 631 l 339 631 l 185 353 l 339 75 z "},"¬":{"ha":786,"x_min":99,"x_max":688,"o":"m 586 194 l 586 528 l 99 528 l 99 631 l 688 631 l 688 194 l 586 194 z "},"­":{"ha":417,"x_min":42,"x_max":375,"o":"m 42 351 l 42 460 l 375 460 l 375 351 l 42 351 z "},"®":{"ha":815,"x_min":63,"x_max":753,"o":"m 407 1008 q 458 1008 407 1008 q 588 964 510 1008 q 710 840 667 919 q 753 654 753 760 q 710 468 753 549 q 588 343 667 388 q 407 299 510 299 q 226 343 304 299 q 106 468 149 388 q 63 654 63 549 q 106 840 63 760 q 226 964 149 919 q 407 1008 304 1008 m 407 963 q 363 963 407 963 q 251 924 318 963 q 146 816 183 886 q 108 654 108 746 q 146 492 108 563 q 251 384 183 422 q 407 346 318 346 q 563 384 496 346 q 668 492 631 422 q 706 654 706 563 q 668 816 706 746 q 563 924 631 886 q 407 963 496 963 m 414 881 q 526 847 488 881 q 564 754 564 814 q 542 685 564 715 q 486 647 521 654 l 486 644 q 520 622 507 638 q 546 572 533 607 l 593 438 l 513 438 l 475 551 q 445 601 464 586 q 393 615 426 615 l 326 615 l 326 438 l 251 438 l 251 881 l 414 881 m 326 679 l 396 679 q 488 750 488 679 q 466 799 488 782 q 401 817 444 817 l 326 817 l 326 679 z "},"¯":{"ha":533,"x_min":69,"x_max":464,"o":"m 69 856 l 69 944 l 464 944 l 464 856 l 69 856 z "},"°":{"ha":443,"x_min":54,"x_max":389,"o":"m 221 1003 q 256 1003 221 1003 q 340 953 290 1003 q 389 835 389 904 q 340 717 389 765 q 221 668 290 668 q 103 717 153 668 q 54 835 54 767 q 103 953 54 904 q 221 1003 151 1003 m 221 929 q 156 901 183 929 q 129 835 129 874 q 156 770 129 797 q 221 743 183 743 q 288 770 260 743 q 315 835 315 797 q 288 901 315 874 q 221 929 260 929 z "},"±":{"ha":786,"x_min":99,"x_max":688,"o":"m 688 529 l 688 426 l 443 426 l 443 189 l 343 189 l 343 426 l 99 426 l 99 529 l 343 529 l 343 768 l 443 768 l 443 529 l 688 529 m 99 0 l 99 103 l 688 103 l 688 0 l 99 0 z "},"²":{"ha":583,"x_min":53,"x_max":535,"o":"m 294 1128 q 458 1076 396 1128 q 519 942 519 1025 q 472 813 519 863 q 331 713 425 763 q 207 628 239 663 q 174 550 175 593 l 535 550 l 535 458 l 54 458 q 53 482 53 467 q 69 598 53 550 q 127 688 85 646 q 251 776 169 731 q 369 854 335 821 q 404 940 404 888 q 374 1010 404 983 q 294 1036 344 1036 q 174 917 181 1036 l 61 917 q 127 1072 64 1015 q 294 1128 190 1128 z "},"³":{"ha":575,"x_min":43,"x_max":524,"o":"m 285 1128 q 453 1078 392 1128 q 514 947 514 1029 q 487 856 514 892 q 400 796 460 819 l 400 793 q 494 732 465 769 q 524 633 524 694 q 458 497 524 549 q 286 444 392 444 q 106 501 169 444 q 43 660 43 557 l 154 660 q 286 535 154 535 q 377 563 342 535 q 413 636 413 592 q 374 718 413 690 q 261 746 335 746 l 238 746 l 238 833 l 261 833 q 365 862 326 833 q 403 938 403 890 q 370 1010 403 983 q 282 1036 338 1036 q 161 915 161 1036 l 50 915 q 113 1072 50 1015 q 285 1128 175 1128 z "},"´":{"ha":415,"x_min":69,"x_max":346,"o":"m 69 790 l 189 989 l 346 989 l 175 790 l 69 790 z "},"µ":{"ha":810,"x_min":108,"x_max":792,"o":"m 693 201 q 708 116 693 139 q 758 93 722 93 q 792 97 775 93 l 792 4 q 708 -8 754 -8 q 619 19 650 -8 q 579 106 588 46 l 576 106 q 499 22 551 53 q 379 -10 446 -10 q 231 49 276 -10 l 231 -257 l 108 -257 l 108 706 l 231 706 l 231 288 q 270 134 231 181 q 388 88 310 88 q 519 144 467 88 q 571 303 571 201 l 571 706 l 693 706 l 693 201 z "},"¶":{"ha":817,"x_min":56,"x_max":786,"o":"m 675 903 l 675 -167 l 583 -167 l 583 903 l 463 903 l 463 -167 l 371 -167 l 371 428 l 322 428 q 128 503 200 428 q 56 708 56 579 q 128 913 56 836 q 322 989 200 989 l 786 989 l 786 903 l 675 903 z "},"·":{"ha":314,"x_min":82,"x_max":232,"o":"m 82 343 l 82 506 l 232 506 l 232 343 l 82 343 z "},"¸":{"ha":438,"x_min":69,"x_max":368,"o":"m 257 -82 q 335 -110 303 -82 q 368 -185 368 -139 q 328 -271 368 -236 q 215 -306 289 -306 q 69 -268 140 -306 l 94 -217 q 203 -246 144 -246 q 260 -231 240 -246 q 281 -189 281 -217 q 260 -147 281 -162 q 207 -131 240 -131 q 164 -139 183 -131 l 139 -111 l 213 0 l 276 0 l 221 -86 q 257 -82 246 -82 z "},"¹":{"ha":381,"x_min":15,"x_max":281,"o":"m 171 458 l 171 919 l 15 919 l 15 1003 q 138 1028 99 1003 q 188 1114 178 1054 l 281 1114 l 281 458 l 171 458 z "},"º":{"ha":578,"x_min":40,"x_max":538,"o":"m 289 967 q 471 897 404 967 q 538 706 538 826 q 471 514 538 583 q 289 444 404 444 q 108 515 175 444 q 40 706 40 585 q 108 897 40 826 q 289 967 175 967 m 289 882 q 189 835 225 882 q 153 706 153 788 q 189 576 153 624 q 289 529 225 529 q 391 576 354 529 q 428 706 428 624 q 391 835 428 788 q 289 882 354 882 z "},"»":{"ha":644,"x_min":67,"x_max":578,"o":"m 339 353 l 181 75 l 67 75 l 221 353 l 67 631 l 181 631 l 339 353 m 578 353 l 419 75 l 304 75 l 460 353 l 304 631 l 419 631 l 578 353 z "},"¼":{"ha":1001,"x_min":13,"x_max":988,"o":"m 143 375 l 143 761 l 13 761 l 13 842 q 115 864 81 842 q 158 936 149 886 l 250 936 l 250 375 l 143 375 m 117 0 l 650 936 l 753 936 l 218 0 l 117 0 m 896 132 l 896 0 l 792 0 l 792 132 l 521 132 l 521 224 l 758 561 l 896 561 l 896 219 l 988 219 l 988 132 l 896 132 m 794 219 l 794 288 q 797 472 794 350 l 794 472 q 678 301 739 385 l 619 219 l 794 219 z "},"½":{"ha":1049,"x_min":13,"x_max":1006,"o":"m 143 375 l 143 761 l 13 761 l 13 842 q 115 864 81 842 q 158 936 149 886 l 250 936 l 250 375 l 143 375 m 117 0 l 650 936 l 753 936 l 218 0 l 117 0 m 794 574 q 938 529 885 574 q 990 413 990 485 q 949 300 990 344 q 829 214 907 256 q 724 147 751 174 q 696 88 697 119 l 1006 88 l 1006 0 l 583 0 q 582 22 582 7 q 596 125 582 83 q 647 203 610 167 q 754 278 683 239 q 855 344 826 318 q 883 413 883 369 q 860 466 883 446 q 794 486 836 486 q 697 390 700 486 l 590 390 q 647 525 592 476 q 794 574 703 574 z "},"¾":{"ha":1176,"x_min":36,"x_max":1163,"o":"m 250 949 q 397 906 343 949 q 451 793 451 864 q 429 716 451 746 q 357 665 407 686 l 357 663 q 437 610 413 643 q 461 525 461 578 q 403 407 461 451 q 251 363 346 363 q 92 412 149 363 q 36 550 36 461 l 143 550 q 251 450 143 450 q 327 472 299 450 q 356 529 356 493 q 323 594 356 572 q 228 617 290 617 l 210 617 l 210 701 l 228 701 q 315 724 282 701 q 347 785 347 746 q 321 841 347 821 q 249 861 294 861 q 147 767 147 861 l 43 767 q 99 901 43 853 q 250 949 154 949 m 290 0 l 824 936 l 926 936 l 392 0 l 290 0 m 1071 132 l 1071 0 l 967 0 l 967 132 l 696 132 l 696 224 l 933 561 l 1071 561 l 1071 219 l 1163 219 l 1163 132 l 1071 132 m 969 219 l 969 288 q 972 472 969 350 l 969 472 q 853 301 914 385 l 794 219 l 969 219 z "},"¿":{"ha":671,"x_min":54,"x_max":671,"o":"m 456 706 l 456 558 l 311 558 l 311 706 l 456 706 m 356 -303 q 197 -272 265 -303 q 92 -183 129 -240 q 54 -51 54 -126 q 66 36 54 0 q 109 110 78 72 q 203 200 140 149 q 283 279 258 246 q 318 356 308 313 q 328 476 328 399 l 436 476 q 438 435 438 461 q 426 314 438 360 q 385 228 414 268 q 296 138 356 189 q 224 67 247 96 q 192 13 200 38 q 185 -49 185 -12 q 231 -153 185 -114 q 356 -192 276 -192 q 491 -147 443 -192 q 544 -12 539 -101 l 671 -12 q 583 -228 665 -154 q 356 -303 501 -303 z "},"À":{"ha":938,"x_min":7,"x_max":932,"o":"m 251 294 l 143 0 l 7 0 l 382 989 l 556 989 l 932 0 l 794 0 l 688 294 l 251 294 m 614 497 q 471 900 529 731 l 468 900 q 325 497 410 731 l 292 407 l 646 407 l 614 497 m 561 1056 l 456 1056 l 285 1247 l 442 1247 l 561 1056 z "},"Á":{"ha":938,"x_min":7,"x_max":932,"o":"m 251 294 l 143 0 l 7 0 l 382 989 l 556 989 l 932 0 l 794 0 l 688 294 l 251 294 m 614 497 q 471 900 529 731 l 468 900 q 325 497 410 731 l 292 407 l 646 407 l 614 497 m 376 1056 l 496 1247 l 653 1247 l 482 1056 l 376 1056 z "},"Â":{"ha":938,"x_min":7,"x_max":932,"o":"m 251 294 l 143 0 l 7 0 l 382 989 l 556 989 l 932 0 l 794 0 l 688 294 l 251 294 m 614 497 q 471 900 529 731 l 468 900 q 325 497 410 731 l 292 407 l 646 407 l 614 497 m 536 1247 l 694 1056 l 571 1056 l 468 1179 l 367 1056 l 243 1056 l 401 1247 l 536 1247 z "},"Ã":{"ha":938,"x_min":7,"x_max":932,"o":"m 251 294 l 143 0 l 7 0 l 382 989 l 556 989 l 932 0 l 794 0 l 688 294 l 251 294 m 614 497 q 471 900 529 731 l 468 900 q 325 497 410 731 l 292 407 l 646 407 l 614 497 m 708 1239 q 667 1121 704 1163 q 568 1079 629 1079 q 512 1090 538 1079 q 454 1119 486 1100 q 408 1143 424 1136 q 374 1150 392 1150 q 310 1079 317 1150 l 229 1079 q 271 1197 233 1156 q 369 1239 308 1239 q 426 1228 400 1239 q 483 1199 451 1218 q 530 1175 514 1182 q 564 1168 546 1168 q 628 1239 619 1168 l 708 1239 z "},"Ä":{"ha":938,"x_min":7,"x_max":932,"o":"m 251 294 l 143 0 l 7 0 l 382 989 l 556 989 l 932 0 l 794 0 l 688 294 l 251 294 m 614 497 q 471 900 529 731 l 468 900 q 325 497 410 731 l 292 407 l 646 407 l 614 497 m 276 1076 l 276 1214 l 390 1214 l 390 1076 l 276 1076 m 547 1076 l 547 1214 l 661 1214 l 661 1076 l 547 1076 z "},"Å":{"ha":938,"x_min":7,"x_max":932,"o":"m 251 294 l 143 0 l 7 0 l 382 989 l 556 989 l 932 0 l 794 0 l 688 294 l 251 294 m 614 497 q 471 900 529 731 l 468 900 q 325 497 410 731 l 292 407 l 646 407 l 614 497 m 468 1324 q 567 1283 526 1324 q 608 1183 608 1242 q 567 1085 608 1126 q 468 1044 526 1044 q 370 1085 411 1044 q 329 1183 329 1126 q 370 1283 329 1242 q 468 1324 411 1324 m 468 1264 q 413 1240 436 1264 q 389 1183 389 1217 q 413 1127 389 1150 q 468 1104 436 1104 q 526 1127 503 1104 q 549 1183 549 1150 q 526 1240 549 1217 q 468 1264 503 1264 z "},"Æ":{"ha":1301,"x_min":-8,"x_max":1228,"o":"m 1228 0 l 713 0 l 665 311 l 286 311 l 138 0 l -8 0 l 476 989 l 1213 989 l 1213 875 l 707 875 l 754 563 l 1185 563 l 1185 450 l 771 450 l 821 114 l 1228 114 l 1228 0 m 581 881 l 560 881 l 340 424 l 649 424 l 581 881 z "},"Ç":{"ha":957,"x_min":60,"x_max":892,"o":"m 892 340 q 782 90 876 185 q 532 -18 688 -6 l 488 -86 q 524 -82 513 -82 q 602 -110 569 -82 q 635 -185 635 -139 q 595 -271 635 -236 q 482 -306 556 -306 q 336 -268 407 -306 l 361 -217 q 469 -246 411 -246 q 527 -231 507 -246 q 547 -189 547 -217 q 527 -147 547 -162 q 474 -131 507 -131 q 431 -139 449 -131 l 406 -111 l 467 -19 q 250 49 342 -14 q 109 226 158 113 q 60 494 60 340 q 112 769 60 653 q 262 947 164 885 q 493 1008 360 1008 q 697 963 610 1008 q 832 838 783 918 q 886 654 881 757 l 754 654 q 674 828 744 764 q 493 892 604 892 q 273 785 353 892 q 193 494 193 679 q 272 203 193 310 q 489 97 351 97 q 671 163 599 97 q 758 340 743 228 l 892 340 z "},"È":{"ha":858,"x_min":132,"x_max":785,"o":"m 260 875 l 260 563 l 740 563 l 740 450 l 260 450 l 260 114 l 785 114 l 785 0 l 132 0 l 132 989 l 769 989 l 769 875 l 260 875 m 543 1056 l 438 1056 l 267 1247 l 424 1247 l 543 1056 z "},"É":{"ha":858,"x_min":132,"x_max":785,"o":"m 260 875 l 260 563 l 740 563 l 740 450 l 260 450 l 260 114 l 785 114 l 785 0 l 132 0 l 132 989 l 769 989 l 769 875 l 260 875 m 357 1056 l 476 1247 l 633 1247 l 463 1056 l 357 1056 z "},"Ê":{"ha":858,"x_min":132,"x_max":785,"o":"m 260 875 l 260 563 l 740 563 l 740 450 l 260 450 l 260 114 l 785 114 l 785 0 l 132 0 l 132 989 l 769 989 l 769 875 l 260 875 m 518 1247 l 676 1056 l 553 1056 l 450 1179 l 349 1056 l 225 1056 l 383 1247 l 518 1247 z "},"Ë":{"ha":858,"x_min":132,"x_max":785,"o":"m 260 875 l 260 563 l 740 563 l 740 450 l 260 450 l 260 114 l 785 114 l 785 0 l 132 0 l 132 989 l 769 989 l 769 875 l 260 875 m 258 1076 l 258 1214 l 372 1214 l 372 1076 l 258 1076 m 529 1076 l 529 1214 l 643 1214 l 643 1076 l 529 1076 z "},"Ì":{"ha":392,"x_min":13,"x_max":289,"o":"m 132 0 l 132 989 l 260 989 l 260 0 l 132 0 m 289 1056 l 183 1056 l 13 1247 l 169 1247 l 289 1056 z "},"Í":{"ha":392,"x_min":103,"x_max":379,"o":"m 132 0 l 132 989 l 260 989 l 260 0 l 132 0 m 103 1056 l 222 1247 l 379 1247 l 208 1056 l 103 1056 z "},"Î":{"ha":392,"x_min":-31,"x_max":421,"o":"m 132 0 l 132 989 l 260 989 l 260 0 l 132 0 m 263 1247 l 421 1056 l 297 1056 l 194 1179 l 93 1056 l -31 1056 l 128 1247 l 263 1247 z "},"Ï":{"ha":392,"x_min":3,"x_max":388,"o":"m 132 0 l 132 989 l 260 989 l 260 0 l 132 0 m 3 1076 l 3 1214 l 117 1214 l 117 1076 l 3 1076 m 274 1076 l 274 1214 l 388 1214 l 388 1076 l 274 1076 z "},"Ð":{"ha":1004,"x_min":40,"x_max":946,"o":"m 433 989 q 813 860 679 989 q 946 494 946 732 q 813 128 946 257 q 433 0 679 0 l 132 0 l 132 451 l 40 451 l 40 550 l 132 550 l 132 989 l 433 989 m 432 114 q 714 211 617 114 q 811 494 811 308 q 714 778 811 681 q 432 875 617 875 l 260 875 l 260 550 l 540 550 l 540 451 l 260 451 l 260 114 l 432 114 z "},"Ñ":{"ha":1049,"x_min":132,"x_max":918,"o":"m 729 0 l 494 426 q 256 869 361 665 l 253 869 q 257 396 257 632 l 257 0 l 132 0 l 132 989 l 319 989 l 556 563 q 794 119 696 307 l 797 119 q 793 593 793 357 l 793 989 l 918 989 l 918 0 l 729 0 m 765 1239 q 724 1121 761 1163 q 625 1079 686 1079 q 569 1090 594 1079 q 511 1119 543 1100 q 465 1143 481 1136 q 431 1150 449 1150 q 367 1079 374 1150 l 286 1079 q 328 1197 290 1156 q 426 1239 365 1239 q 483 1228 457 1239 q 540 1199 508 1218 q 587 1175 571 1182 q 621 1168 603 1168 q 685 1239 676 1168 l 765 1239 z "},"Ò":{"ha":1017,"x_min":60,"x_max":957,"o":"m 508 1008 q 576 1008 508 1008 q 746 946 644 1008 q 902 767 847 883 q 957 494 957 651 q 902 222 957 338 q 746 43 847 106 q 508 -19 644 -19 q 271 43 372 -19 q 115 222 169 106 q 60 494 60 338 q 115 767 60 651 q 271 946 169 883 q 508 1008 372 1008 m 508 892 q 460 892 508 892 q 341 843 413 892 q 231 705 269 794 q 193 494 193 615 q 231 284 193 374 q 341 146 269 194 q 508 97 413 97 q 676 146 604 97 q 785 284 747 194 q 824 494 824 374 q 785 705 824 615 q 676 843 747 794 q 508 892 604 892 m 600 1056 l 494 1056 l 324 1247 l 481 1247 l 600 1056 z "},"Ó":{"ha":1017,"x_min":60,"x_max":957,"o":"m 508 1008 q 576 1008 508 1008 q 746 946 644 1008 q 902 767 847 883 q 957 494 957 651 q 902 222 957 338 q 746 43 847 106 q 508 -19 644 -19 q 271 43 372 -19 q 115 222 169 106 q 60 494 60 338 q 115 767 60 651 q 271 946 169 883 q 508 1008 372 1008 m 508 892 q 460 892 508 892 q 341 843 413 892 q 231 705 269 794 q 193 494 193 615 q 231 284 193 374 q 341 146 269 194 q 508 97 413 97 q 676 146 604 97 q 785 284 747 194 q 824 494 824 374 q 785 705 824 615 q 676 843 747 794 q 508 892 604 892 m 415 1056 l 535 1247 l 692 1247 l 521 1056 l 415 1056 z "},"Ô":{"ha":1017,"x_min":60,"x_max":957,"o":"m 508 1008 q 576 1008 508 1008 q 746 946 644 1008 q 902 767 847 883 q 957 494 957 651 q 902 222 957 338 q 746 43 847 106 q 508 -19 644 -19 q 271 43 372 -19 q 115 222 169 106 q 60 494 60 338 q 115 767 60 651 q 271 946 169 883 q 508 1008 372 1008 m 508 892 q 460 892 508 892 q 341 843 413 892 q 231 705 269 794 q 193 494 193 615 q 231 284 193 374 q 341 146 269 194 q 508 97 413 97 q 676 146 604 97 q 785 284 747 194 q 824 494 824 374 q 785 705 824 615 q 676 843 747 794 q 508 892 604 892 m 575 1247 l 733 1056 l 610 1056 l 507 1179 l 406 1056 l 282 1056 l 440 1247 l 575 1247 z "},"Õ":{"ha":1017,"x_min":60,"x_max":957,"o":"m 508 1008 q 576 1008 508 1008 q 746 946 644 1008 q 902 767 847 883 q 957 494 957 651 q 902 222 957 338 q 746 43 847 106 q 508 -19 644 -19 q 271 43 372 -19 q 115 222 169 106 q 60 494 60 338 q 115 767 60 651 q 271 946 169 883 q 508 1008 372 1008 m 508 892 q 460 892 508 892 q 341 843 413 892 q 231 705 269 794 q 193 494 193 615 q 231 284 193 374 q 341 146 269 194 q 508 97 413 97 q 676 146 604 97 q 785 284 747 194 q 824 494 824 374 q 785 705 824 615 q 676 843 747 794 q 508 892 604 892 m 749 1239 q 707 1121 744 1163 q 608 1079 669 1079 q 552 1090 578 1079 q 494 1119 526 1100 q 448 1143 464 1136 q 414 1150 432 1150 q 350 1079 357 1150 l 269 1079 q 311 1197 274 1156 q 410 1239 349 1239 q 466 1228 440 1239 q 524 1199 492 1218 q 570 1175 554 1182 q 604 1168 586 1168 q 668 1239 660 1168 l 749 1239 z "},"Ö":{"ha":1017,"x_min":60,"x_max":957,"o":"m 508 1008 q 576 1008 508 1008 q 746 946 644 1008 q 902 767 847 883 q 957 494 957 651 q 902 222 957 338 q 746 43 847 106 q 508 -19 644 -19 q 271 43 372 -19 q 115 222 169 106 q 60 494 60 338 q 115 767 60 651 q 271 946 169 883 q 508 1008 372 1008 m 508 892 q 460 892 508 892 q 341 843 413 892 q 231 705 269 794 q 193 494 193 615 q 231 284 193 374 q 341 146 269 194 q 508 97 413 97 q 676 146 604 97 q 785 284 747 194 q 824 494 824 374 q 785 705 824 615 q 676 843 747 794 q 508 892 604 892 m 315 1076 l 315 1214 l 429 1214 l 429 1076 l 315 1076 m 586 1076 l 586 1214 l 700 1214 l 700 1076 l 586 1076 z "},"×":{"ha":786,"x_min":54,"x_max":732,"o":"m 464 425 l 732 158 l 661 88 l 393 354 l 126 88 l 54 158 l 322 425 l 54 693 l 126 764 l 393 497 l 661 764 l 732 693 l 464 425 z "},"Ø":{"ha":1017,"x_min":60,"x_max":957,"o":"m 842 863 q 927 701 897 794 q 957 494 957 608 q 902 222 957 338 q 746 43 847 106 q 508 -19 644 -19 q 240 64 349 -19 l 157 -46 l 86 8 l 175 126 q 90 288 119 194 q 60 494 60 381 q 115 767 60 651 q 271 946 169 883 q 508 1008 372 1008 q 778 924 668 1008 l 861 1035 l 931 981 l 842 863 m 254 232 l 704 826 q 508 896 624 896 q 340 847 411 896 q 229 707 268 797 q 190 494 190 617 q 254 232 190 335 m 508 93 q 677 142 606 93 q 788 282 749 192 q 826 494 826 372 q 763 757 826 654 l 314 163 q 508 93 394 93 z "},"Ù":{"ha":979,"x_min":124,"x_max":857,"o":"m 857 371 q 763 81 857 181 q 490 -19 668 -19 q 217 80 311 -19 q 124 371 124 179 l 124 989 l 251 989 l 251 374 q 314 167 251 238 q 490 97 376 97 q 666 167 604 97 q 728 374 728 238 l 728 989 l 857 989 l 857 371 m 582 1056 l 476 1056 l 306 1247 l 463 1247 l 582 1056 z "},"Ú":{"ha":979,"x_min":124,"x_max":857,"o":"m 857 371 q 763 81 857 181 q 490 -19 668 -19 q 217 80 311 -19 q 124 371 124 179 l 124 989 l 251 989 l 251 374 q 314 167 251 238 q 490 97 376 97 q 666 167 604 97 q 728 374 728 238 l 728 989 l 857 989 l 857 371 m 397 1056 l 517 1247 l 674 1247 l 503 1056 l 397 1056 z "},"Û":{"ha":979,"x_min":124,"x_max":857,"o":"m 857 371 q 763 81 857 181 q 490 -19 668 -19 q 217 80 311 -19 q 124 371 124 179 l 124 989 l 251 989 l 251 374 q 314 167 251 238 q 490 97 376 97 q 666 167 604 97 q 728 374 728 238 l 728 989 l 857 989 l 857 371 m 557 1247 l 715 1056 l 592 1056 l 489 1179 l 388 1056 l 264 1056 l 422 1247 l 557 1247 z "},"Ü":{"ha":979,"x_min":124,"x_max":857,"o":"m 857 371 q 763 81 857 181 q 490 -19 668 -19 q 217 80 311 -19 q 124 371 124 179 l 124 989 l 251 989 l 251 374 q 314 167 251 238 q 490 97 376 97 q 666 167 604 97 q 728 374 728 238 l 728 989 l 857 989 l 857 371 m 297 1076 l 297 1214 l 411 1214 l 411 1076 l 297 1076 m 568 1076 l 568 1214 l 682 1214 l 682 1076 l 568 1076 z "},"Ý":{"ha":853,"x_min":6,"x_max":847,"o":"m 490 0 l 363 0 l 363 410 l 6 989 l 154 989 l 275 785 q 425 524 346 665 l 428 524 q 578 785 507 665 l 700 989 l 847 989 l 490 410 l 490 0 m 333 1056 l 453 1247 l 610 1247 l 439 1056 l 333 1056 z "},"Þ":{"ha":856,"x_min":132,"x_max":817,"o":"m 471 808 q 728 728 639 808 q 817 511 817 649 q 728 292 817 372 q 471 213 639 213 l 260 213 l 260 0 l 132 0 l 132 989 l 260 989 l 260 808 l 471 808 m 260 324 l 461 324 q 628 373 572 324 q 685 511 685 422 q 628 649 685 600 q 461 697 572 697 l 260 697 l 260 324 z "},"ß":{"ha":774,"x_min":108,"x_max":719,"o":"m 394 1008 q 597 943 521 1008 q 672 769 672 878 q 513 554 672 607 l 513 551 q 665 465 610 533 q 719 288 719 397 q 633 70 719 149 q 399 -8 547 -8 q 328 0 360 -8 l 328 104 q 383 97 353 97 q 537 149 482 97 q 592 294 592 200 q 537 442 592 389 q 385 496 482 496 l 365 496 l 365 604 q 551 758 551 604 q 510 867 551 828 q 396 906 468 906 q 231 700 231 906 l 231 0 l 108 0 l 108 708 q 183 930 108 851 q 394 1008 258 1008 z "},"à":{"ha":738,"x_min":47,"x_max":654,"o":"m 360 725 q 565 656 492 725 q 638 451 638 588 l 638 181 q 654 0 638 74 l 543 0 q 533 103 533 44 l 531 103 q 432 15 493 46 q 286 -15 371 -15 q 113 42 178 -15 q 47 192 47 100 q 108 337 47 283 q 315 414 168 390 q 519 438 418 431 l 519 465 q 477 590 519 550 q 360 631 435 631 q 243 592 285 631 q 199 490 201 554 l 76 490 q 156 660 82 594 q 360 725 229 725 m 335 322 q 209 281 246 308 q 172 200 172 253 q 210 112 172 144 q 317 79 249 79 q 398 94 360 79 q 463 135 436 108 q 507 203 494 168 q 519 301 519 239 l 519 344 q 335 322 413 336 m 443 790 l 338 790 l 167 989 l 324 989 l 443 790 z "},"á":{"ha":738,"x_min":47,"x_max":654,"o":"m 360 725 q 565 656 492 725 q 638 451 638 588 l 638 181 q 654 0 638 74 l 543 0 q 533 103 533 44 l 531 103 q 432 15 493 46 q 286 -15 371 -15 q 113 42 178 -15 q 47 192 47 100 q 108 337 47 283 q 315 414 168 390 q 519 438 418 431 l 519 465 q 477 590 519 550 q 360 631 435 631 q 243 592 285 631 q 199 490 201 554 l 76 490 q 156 660 82 594 q 360 725 229 725 m 335 322 q 209 281 246 308 q 172 200 172 253 q 210 112 172 144 q 317 79 249 79 q 398 94 360 79 q 463 135 436 108 q 507 203 494 168 q 519 301 519 239 l 519 344 q 335 322 413 336 m 258 790 l 378 989 l 535 989 l 364 790 l 258 790 z "},"â":{"ha":738,"x_min":47,"x_max":654,"o":"m 360 725 q 565 656 492 725 q 638 451 638 588 l 638 181 q 654 0 638 74 l 543 0 q 533 103 533 44 l 531 103 q 432 15 493 46 q 286 -15 371 -15 q 113 42 178 -15 q 47 192 47 100 q 108 337 47 283 q 315 414 168 390 q 519 438 418 431 l 519 465 q 477 590 519 550 q 360 631 435 631 q 243 592 285 631 q 199 490 201 554 l 76 490 q 156 660 82 594 q 360 725 229 725 m 335 322 q 209 281 246 308 q 172 200 172 253 q 210 112 172 144 q 317 79 249 79 q 398 94 360 79 q 463 135 436 108 q 507 203 494 168 q 519 301 519 239 l 519 344 q 335 322 413 336 m 351 919 l 249 790 l 125 790 l 283 989 l 418 989 l 576 790 l 453 790 l 351 919 z "},"ã":{"ha":738,"x_min":47,"x_max":654,"o":"m 360 725 q 565 656 492 725 q 638 451 638 588 l 638 181 q 654 0 638 74 l 543 0 q 533 103 533 44 l 531 103 q 432 15 493 46 q 286 -15 371 -15 q 113 42 178 -15 q 47 192 47 100 q 108 337 47 283 q 315 414 168 390 q 519 438 418 431 l 519 465 q 477 590 519 550 q 360 631 435 631 q 243 592 285 631 q 199 490 201 554 l 76 490 q 156 660 82 594 q 360 725 229 725 m 335 322 q 209 281 246 308 q 172 200 172 253 q 210 112 172 144 q 317 79 249 79 q 398 94 360 79 q 463 135 436 108 q 507 203 494 168 q 519 301 519 239 l 519 344 q 335 322 413 336 m 592 981 q 550 863 588 904 q 451 821 513 821 q 395 831 421 821 q 338 861 369 842 q 291 885 307 878 q 257 892 275 892 q 193 821 200 892 l 113 821 q 154 939 117 897 q 253 981 192 981 q 309 970 283 981 q 367 940 335 960 q 413 917 397 924 q 447 910 429 910 q 511 981 503 910 l 592 981 z "},"ä":{"ha":738,"x_min":47,"x_max":654,"o":"m 360 725 q 565 656 492 725 q 638 451 638 588 l 638 181 q 654 0 638 74 l 543 0 q 533 103 533 44 l 531 103 q 432 15 493 46 q 286 -15 371 -15 q 113 42 178 -15 q 47 192 47 100 q 108 337 47 283 q 315 414 168 390 q 519 438 418 431 l 519 465 q 477 590 519 550 q 360 631 435 631 q 243 592 285 631 q 199 490 201 554 l 76 490 q 156 660 82 594 q 360 725 229 725 m 335 322 q 209 281 246 308 q 172 200 172 253 q 210 112 172 144 q 317 79 249 79 q 398 94 360 79 q 463 135 436 108 q 507 203 494 168 q 519 301 519 239 l 519 344 q 335 322 413 336 m 158 851 l 158 989 l 272 989 l 272 851 l 158 851 m 429 851 l 429 989 l 543 989 l 543 851 l 429 851 z "},"å":{"ha":738,"x_min":47,"x_max":654,"o":"m 360 725 q 565 656 492 725 q 638 451 638 588 l 638 181 q 654 0 638 74 l 543 0 q 533 103 533 44 l 531 103 q 432 15 493 46 q 286 -15 371 -15 q 113 42 178 -15 q 47 192 47 100 q 108 337 47 283 q 315 414 168 390 q 519 438 418 431 l 519 465 q 477 590 519 550 q 360 631 435 631 q 243 592 285 631 q 199 490 201 554 l 76 490 q 156 660 82 594 q 360 725 229 725 m 335 322 q 209 281 246 308 q 172 200 172 253 q 210 112 172 144 q 317 79 249 79 q 398 94 360 79 q 463 135 436 108 q 507 203 494 168 q 519 301 519 239 l 519 344 q 335 322 413 336 m 350 1064 q 449 1023 408 1064 q 490 925 490 982 q 449 826 490 867 q 350 785 408 785 q 252 826 293 785 q 211 925 211 867 q 252 1023 211 982 q 350 1064 293 1064 m 350 1006 q 294 982 318 1006 q 271 925 271 958 q 294 868 271 892 q 350 844 318 844 q 408 867 385 844 q 431 925 431 890 q 408 982 431 958 q 350 1006 385 1006 z "},"æ":{"ha":1197,"x_min":47,"x_max":1140,"o":"m 833 75 q 950 113 904 75 q 1008 211 996 150 l 1133 211 q 1037 47 1115 113 q 833 -19 958 -19 q 681 19 746 -19 q 576 131 615 58 q 465 19 538 58 q 299 -19 393 -19 q 116 40 185 -19 q 47 193 47 99 q 123 358 47 300 q 372 417 199 417 l 525 417 l 525 465 q 483 590 525 549 q 363 631 440 631 q 245 592 288 631 q 199 490 203 554 l 76 490 q 158 660 83 594 q 363 725 232 725 q 596 611 533 725 q 694 695 635 665 q 829 725 754 725 q 1021 658 942 725 q 1126 478 1100 592 q 1140 324 1140 418 l 635 324 q 694 138 640 200 q 833 75 749 75 m 829 631 q 696 574 747 631 q 636 417 644 518 l 1019 417 q 962 575 1014 519 q 829 631 910 631 m 386 324 q 221 292 269 324 q 172 197 172 261 q 211 108 172 142 q 319 75 250 75 q 403 90 364 75 q 467 132 442 104 q 513 202 500 165 q 525 301 525 239 l 525 324 l 386 324 z "},"ç":{"ha":742,"x_min":57,"x_max":690,"o":"m 388 81 q 508 131 460 81 q 563 260 556 182 l 690 260 q 612 73 681 149 q 435 -17 543 -3 l 390 -86 q 426 -82 415 -82 q 505 -110 472 -82 q 538 -185 538 -139 q 498 -271 538 -236 q 385 -306 458 -306 q 239 -268 310 -306 l 264 -217 q 372 -246 314 -246 q 430 -231 410 -246 q 450 -189 450 -217 q 430 -147 450 -162 q 376 -131 410 -131 q 333 -139 353 -131 l 308 -111 l 369 -19 q 141 87 225 -12 q 57 353 57 186 q 97 551 57 467 q 213 680 138 635 q 389 725 288 725 q 538 691 472 725 q 644 596 604 657 q 690 456 683 535 l 563 456 q 508 578 556 531 q 388 625 460 625 q 240 552 294 625 q 186 353 186 479 q 240 153 186 226 q 388 81 293 81 z "},"è":{"ha":764,"x_min":57,"x_max":707,"o":"m 389 75 q 513 113 464 75 q 575 211 563 150 l 700 211 q 599 47 681 113 q 389 -19 518 -19 q 211 28 286 -19 q 97 161 136 75 q 57 363 57 247 q 97 549 57 467 q 210 678 136 632 q 385 725 285 725 q 584 660 503 725 q 693 479 665 594 q 707 328 707 422 l 179 328 q 241 139 183 203 q 389 75 299 75 m 385 631 q 244 576 299 631 q 181 421 190 521 l 586 421 q 522 576 576 522 q 385 631 468 631 m 474 790 l 368 790 l 197 989 l 354 989 l 474 790 z "},"é":{"ha":764,"x_min":57,"x_max":707,"o":"m 389 75 q 513 113 464 75 q 575 211 563 150 l 700 211 q 599 47 681 113 q 389 -19 518 -19 q 211 28 286 -19 q 97 161 136 75 q 57 363 57 247 q 97 549 57 467 q 210 678 136 632 q 385 725 285 725 q 584 660 503 725 q 693 479 665 594 q 707 328 707 422 l 179 328 q 241 139 183 203 q 389 75 299 75 m 385 631 q 244 576 299 631 q 181 421 190 521 l 586 421 q 522 576 576 522 q 385 631 468 631 m 289 790 l 408 989 l 565 989 l 394 790 l 289 790 z "},"ê":{"ha":764,"x_min":57,"x_max":707,"o":"m 389 75 q 513 113 464 75 q 575 211 563 150 l 700 211 q 599 47 681 113 q 389 -19 518 -19 q 211 28 286 -19 q 97 161 136 75 q 57 363 57 247 q 97 549 57 467 q 210 678 136 632 q 385 725 285 725 q 584 660 503 725 q 693 479 665 594 q 707 328 707 422 l 179 328 q 241 139 183 203 q 389 75 299 75 m 385 631 q 244 576 299 631 q 181 421 190 521 l 586 421 q 522 576 576 522 q 385 631 468 631 m 382 919 l 279 790 l 156 790 l 314 989 l 449 989 l 607 790 l 483 790 l 382 919 z "},"ë":{"ha":764,"x_min":57,"x_max":707,"o":"m 389 75 q 513 113 464 75 q 575 211 563 150 l 700 211 q 599 47 681 113 q 389 -19 518 -19 q 211 28 286 -19 q 97 161 136 75 q 57 363 57 247 q 97 549 57 467 q 210 678 136 632 q 385 725 285 725 q 584 660 503 725 q 693 479 665 594 q 707 328 707 422 l 179 328 q 241 139 183 203 q 389 75 299 75 m 385 631 q 244 576 299 631 q 181 421 190 521 l 586 421 q 522 576 576 522 q 385 631 468 631 m 189 851 l 189 989 l 303 989 l 303 851 l 189 851 m 460 851 l 460 989 l 574 989 l 574 851 l 460 851 z "},"ì":{"ha":339,"x_min":-14,"x_max":263,"o":"m 108 0 l 108 706 l 231 706 l 231 0 l 108 0 m 263 790 l 157 790 l -14 989 l 143 989 l 263 790 z "},"í":{"ha":339,"x_min":78,"x_max":354,"o":"m 108 0 l 108 706 l 231 706 l 231 0 l 108 0 m 78 790 l 197 989 l 354 989 l 183 790 l 78 790 z "},"î":{"ha":339,"x_min":-36,"x_max":375,"o":"m 108 0 l 108 706 l 231 706 l 231 0 l 108 0 m 257 792 l 169 921 l 83 792 l -36 792 l 103 989 l 236 989 l 375 792 l 257 792 z "},"ï":{"ha":339,"x_min":6,"x_max":332,"o":"m 108 0 l 108 706 l 231 706 l 231 0 l 108 0 m 6 851 l 6 989 l 119 989 l 119 851 l 6 851 m 219 851 l 219 989 l 332 989 l 332 851 l 219 851 z "},"ð":{"ha":786,"x_min":57,"x_max":728,"o":"m 589 742 q 694 556 660 649 q 728 356 728 463 q 638 81 728 182 q 393 -19 549 -19 q 147 78 238 -19 q 57 346 57 176 q 141 612 57 514 q 369 710 225 710 q 514 661 454 710 l 514 664 q 361 826 453 746 l 175 743 l 146 811 l 297 879 q 200 950 246 919 l 290 1008 q 401 926 354 965 l 572 1003 l 603 935 l 464 872 q 589 742 542 804 m 392 81 q 544 153 489 81 q 600 351 600 225 q 544 549 600 476 q 392 621 489 621 q 240 549 296 621 q 185 351 185 476 q 240 153 185 225 q 392 81 296 81 z "},"ñ":{"ha":800,"x_min":108,"x_max":699,"o":"m 443 721 q 632 647 565 721 q 699 431 699 574 l 699 0 l 576 0 l 576 421 q 535 574 576 528 q 414 621 493 621 q 283 564 335 621 q 231 404 231 507 l 231 0 l 108 0 l 108 706 l 226 706 l 226 613 l 229 613 q 318 692 263 663 q 443 721 374 721 m 643 981 q 601 863 639 904 q 503 821 564 821 q 447 831 472 821 q 389 861 421 842 q 342 885 358 878 q 308 892 326 892 q 244 821 251 892 l 164 821 q 206 939 168 897 q 304 981 243 981 q 360 970 335 981 q 418 940 386 960 q 465 917 449 924 q 499 910 481 910 q 563 981 554 910 l 643 981 z "},"ò":{"ha":785,"x_min":57,"x_max":728,"o":"m 392 725 q 469 725 392 725 q 638 625 547 725 q 728 353 728 525 q 638 81 728 181 q 392 -19 547 -19 q 147 81 236 -19 q 57 353 57 181 q 147 625 57 525 q 392 725 236 725 m 392 625 q 240 552 296 625 q 185 353 185 479 q 240 153 185 226 q 392 81 296 81 q 544 153 489 81 q 600 353 600 226 q 544 552 600 479 q 392 625 489 625 m 485 790 l 379 790 l 208 989 l 365 989 l 485 790 z "},"ó":{"ha":785,"x_min":57,"x_max":728,"o":"m 392 725 q 469 725 392 725 q 638 625 547 725 q 728 353 728 525 q 638 81 728 181 q 392 -19 547 -19 q 147 81 236 -19 q 57 353 57 181 q 147 625 57 525 q 392 725 236 725 m 392 625 q 240 552 296 625 q 185 353 185 479 q 240 153 185 226 q 392 81 296 81 q 544 153 489 81 q 600 353 600 226 q 544 552 600 479 q 392 625 489 625 m 300 790 l 419 989 l 576 989 l 406 790 l 300 790 z "},"ô":{"ha":785,"x_min":57,"x_max":728,"o":"m 392 725 q 469 725 392 725 q 638 625 547 725 q 728 353 728 525 q 638 81 728 181 q 392 -19 547 -19 q 147 81 236 -19 q 57 353 57 181 q 147 625 57 525 q 392 725 236 725 m 392 625 q 240 552 296 625 q 185 353 185 479 q 240 153 185 226 q 392 81 296 81 q 544 153 489 81 q 600 353 600 226 q 544 552 600 479 q 392 625 489 625 m 393 919 l 290 790 l 167 790 l 325 989 l 460 989 l 618 790 l 494 790 l 393 919 z "},"õ":{"ha":785,"x_min":57,"x_max":728,"o":"m 392 725 q 469 725 392 725 q 638 625 547 725 q 728 353 728 525 q 638 81 728 181 q 392 -19 547 -19 q 147 81 236 -19 q 57 353 57 181 q 147 625 57 525 q 392 725 236 725 m 392 625 q 240 552 296 625 q 185 353 185 479 q 240 153 185 226 q 392 81 296 81 q 544 153 489 81 q 600 353 600 226 q 544 552 600 479 q 392 625 489 625 m 632 981 q 590 863 628 904 q 492 821 553 821 q 435 831 461 821 q 378 861 410 842 q 331 885 347 878 q 297 892 315 892 q 233 821 240 892 l 153 821 q 194 939 157 897 q 293 981 232 981 q 349 970 324 981 q 407 940 375 960 q 453 917 438 924 q 488 910 469 910 q 551 981 543 910 l 632 981 z "},"ö":{"ha":785,"x_min":57,"x_max":728,"o":"m 392 725 q 469 725 392 725 q 638 625 547 725 q 728 353 728 525 q 638 81 728 181 q 392 -19 547 -19 q 147 81 236 -19 q 57 353 57 181 q 147 625 57 525 q 392 725 236 725 m 392 625 q 240 552 296 625 q 185 353 185 479 q 240 153 185 226 q 392 81 296 81 q 544 153 489 81 q 600 353 600 226 q 544 552 600 479 q 392 625 489 625 m 200 851 l 200 989 l 314 989 l 314 851 l 200 851 m 471 851 l 471 989 l 585 989 l 585 851 l 471 851 z "},"÷":{"ha":786,"x_min":99,"x_max":688,"o":"m 336 613 l 336 731 l 450 731 l 450 613 l 336 613 m 99 389 l 99 490 l 688 490 l 688 389 l 99 389 m 336 150 l 336 268 l 450 268 l 450 150 l 336 150 z "},"ø":{"ha":786,"x_min":57,"x_max":728,"o":"m 643 619 q 706 503 685 571 q 728 353 728 435 q 638 81 728 181 q 392 -19 547 -19 q 200 33 278 -19 l 129 -58 l 69 -12 l 143 85 q 57 353 57 183 q 147 625 57 525 q 392 725 236 725 q 585 671 504 725 l 657 765 l 717 717 l 643 619 m 392 628 q 238 554 294 628 q 181 353 181 481 q 217 183 181 251 l 519 583 q 392 628 468 628 m 392 78 q 547 151 490 78 q 604 353 604 225 q 567 522 604 451 l 265 121 q 392 78 317 78 z "},"ù":{"ha":800,"x_min":101,"x_max":692,"o":"m 356 -15 q 167 58 233 -15 q 101 275 101 132 l 101 706 l 224 706 l 224 285 q 265 131 224 178 q 386 85 307 85 q 517 142 464 85 q 569 301 569 200 l 569 706 l 692 706 l 692 0 l 574 0 l 574 93 l 571 93 q 481 14 538 43 q 356 -15 425 -15 m 493 790 l 388 790 l 217 989 l 374 989 l 493 790 z "},"ú":{"ha":800,"x_min":101,"x_max":692,"o":"m 356 -15 q 167 58 233 -15 q 101 275 101 132 l 101 706 l 224 706 l 224 285 q 265 131 224 178 q 386 85 307 85 q 517 142 464 85 q 569 301 569 200 l 569 706 l 692 706 l 692 0 l 574 0 l 574 93 l 571 93 q 481 14 538 43 q 356 -15 425 -15 m 307 790 l 426 989 l 583 989 l 413 790 l 307 790 z "},"û":{"ha":800,"x_min":101,"x_max":692,"o":"m 356 -15 q 167 58 233 -15 q 101 275 101 132 l 101 706 l 224 706 l 224 285 q 265 131 224 178 q 386 85 307 85 q 517 142 464 85 q 569 301 569 200 l 569 706 l 692 706 l 692 0 l 574 0 l 574 93 l 571 93 q 481 14 538 43 q 356 -15 425 -15 m 400 919 l 297 790 l 174 790 l 332 989 l 467 989 l 625 790 l 501 790 l 400 919 z "},"ü":{"ha":800,"x_min":101,"x_max":692,"o":"m 356 -15 q 167 58 233 -15 q 101 275 101 132 l 101 706 l 224 706 l 224 285 q 265 131 224 178 q 386 85 307 85 q 517 142 464 85 q 569 301 569 200 l 569 706 l 692 706 l 692 0 l 574 0 l 574 93 l 571 93 q 481 14 538 43 q 356 -15 425 -15 m 207 851 l 207 989 l 321 989 l 321 851 l 207 851 m 478 851 l 478 989 l 592 989 l 592 851 l 478 851 z "},"ý":{"ha":656,"x_min":-8,"x_max":664,"o":"m 381 -32 q 308 -173 346 -124 q 219 -242 269 -222 q 90 -262 168 -262 q 26 -256 49 -262 l 26 -153 q 85 -161 51 -161 q 162 -147 132 -161 q 214 -100 192 -133 q 260 -3 236 -67 l -8 706 l 124 706 l 326 144 l 329 144 l 535 706 l 664 706 l 381 -32 m 236 790 l 356 989 l 513 989 l 342 790 l 236 790 z "},"þ":{"ha":800,"x_min":108,"x_max":743,"o":"m 233 608 q 319 692 263 661 q 447 724 376 724 q 603 678 536 724 q 707 549 671 633 q 743 354 743 465 q 707 159 743 243 q 604 29 671 75 q 449 -17 538 -17 q 320 15 378 -17 q 233 100 263 46 l 231 100 l 231 -257 l 108 -257 l 108 989 l 231 989 l 231 608 l 233 608 m 417 625 q 277 552 329 625 q 225 354 225 479 q 277 156 225 229 q 417 82 329 82 q 561 156 507 82 q 615 354 615 231 q 561 551 615 478 q 417 625 507 625 z "},"ÿ":{"ha":656,"x_min":-8,"x_max":664,"o":"m 381 -32 q 308 -173 346 -124 q 219 -242 269 -222 q 90 -262 168 -262 q 26 -256 49 -262 l 26 -153 q 85 -161 51 -161 q 162 -147 132 -161 q 214 -100 192 -133 q 260 -3 236 -67 l -8 706 l 124 706 l 326 144 l 329 144 l 535 706 l 664 706 l 381 -32 m 136 851 l 136 989 l 250 989 l 250 851 l 136 851 m 407 851 l 407 989 l 521 989 l 521 851 l 407 851 z "},"Ā":{"ha":938,"x_min":7,"x_max":932,"o":"m 251 294 l 143 0 l 7 0 l 382 989 l 556 989 l 932 0 l 794 0 l 688 294 l 251 294 m 614 497 q 471 900 529 731 l 468 900 q 325 497 410 731 l 292 407 l 646 407 l 614 497 m 271 1094 l 271 1185 l 665 1185 l 665 1094 l 271 1094 z "},"ā":{"ha":738,"x_min":47,"x_max":654,"o":"m 360 725 q 565 656 492 725 q 638 451 638 588 l 638 181 q 654 0 638 74 l 543 0 q 533 103 533 44 l 531 103 q 432 15 493 46 q 286 -15 371 -15 q 113 42 178 -15 q 47 192 47 100 q 108 337 47 283 q 315 414 168 390 q 519 438 418 431 l 519 465 q 477 590 519 550 q 360 631 435 631 q 243 592 285 631 q 199 490 201 554 l 76 490 q 156 660 82 594 q 360 725 229 725 m 335 322 q 209 281 246 308 q 172 200 172 253 q 210 112 172 144 q 317 79 249 79 q 398 94 360 79 q 463 135 436 108 q 507 203 494 168 q 519 301 519 239 l 519 344 q 335 322 413 336 m 154 856 l 154 944 l 549 944 l 549 856 l 154 856 z "},"Ă":{"ha":938,"x_min":7,"x_max":932,"o":"m 251 294 l 143 0 l 7 0 l 382 989 l 556 989 l 932 0 l 794 0 l 688 294 l 251 294 m 614 497 q 471 900 529 731 l 468 900 q 325 497 410 731 l 292 407 l 646 407 l 614 497 m 685 1247 q 622 1101 678 1153 q 469 1050 565 1050 q 316 1101 372 1050 q 253 1247 260 1153 l 344 1247 q 383 1165 350 1194 q 469 1136 417 1136 q 555 1165 522 1136 q 594 1247 588 1194 l 685 1247 z "},"ă":{"ha":738,"x_min":47,"x_max":654,"o":"m 360 725 q 565 656 492 725 q 638 451 638 588 l 638 181 q 654 0 638 74 l 543 0 q 533 103 533 44 l 531 103 q 432 15 493 46 q 286 -15 371 -15 q 113 42 178 -15 q 47 192 47 100 q 108 337 47 283 q 315 414 168 390 q 519 438 418 431 l 519 465 q 477 590 519 550 q 360 631 435 631 q 243 592 285 631 q 199 490 201 554 l 76 490 q 156 660 82 594 q 360 725 229 725 m 335 322 q 209 281 246 308 q 172 200 172 253 q 210 112 172 144 q 317 79 249 79 q 398 94 360 79 q 463 135 436 108 q 507 203 494 168 q 519 301 519 239 l 519 344 q 335 322 413 336 m 567 989 q 503 842 560 894 q 351 790 447 790 q 199 842 256 790 q 135 989 142 894 l 226 989 q 265 906 232 935 q 351 876 299 876 q 437 906 404 876 q 476 989 469 935 l 567 989 z "},"Ą":{"ha":938,"x_min":7,"x_max":936,"o":"m 936 -182 l 936 -256 q 854 -269 901 -269 q 751 -240 785 -269 q 717 -158 717 -211 q 742 -77 717 -114 q 825 0 768 -40 l 794 0 l 688 294 l 251 294 l 143 0 l 7 0 l 382 989 l 556 989 l 932 0 q 850 -76 874 -43 q 826 -142 826 -108 q 882 -192 826 -192 q 936 -182 913 -192 m 614 497 q 471 900 529 731 l 468 900 q 325 497 410 731 l 292 407 l 646 407 l 614 497 z "},"ą":{"ha":738,"x_min":47,"x_max":658,"o":"m 658 -182 l 658 -256 q 576 -269 624 -269 q 473 -240 507 -269 q 439 -158 439 -211 q 465 -77 439 -114 q 547 0 490 -40 l 543 0 q 533 103 533 44 l 531 103 q 432 15 493 46 q 286 -15 371 -15 q 113 42 178 -15 q 47 192 47 100 q 108 337 47 283 q 315 414 168 390 q 519 438 418 431 l 519 465 q 477 590 519 550 q 360 631 435 631 q 243 592 285 631 q 199 490 201 554 l 76 490 q 156 660 82 594 q 360 725 229 725 q 565 656 492 725 q 638 451 638 588 l 638 181 q 654 0 638 74 q 572 -76 596 -43 q 549 -142 549 -108 q 604 -192 549 -192 q 658 -182 635 -192 m 335 322 q 209 281 246 308 q 172 200 172 253 q 210 112 172 144 q 317 79 249 79 q 398 94 360 79 q 463 135 436 108 q 507 203 494 168 q 519 301 519 239 l 519 344 q 335 322 413 336 z "},"Ć":{"ha":957,"x_min":60,"x_max":892,"o":"m 493 1008 q 697 963 610 1008 q 832 838 783 918 q 886 654 881 757 l 754 654 q 674 828 744 764 q 493 892 604 892 q 273 785 353 892 q 193 494 193 679 q 272 203 193 310 q 489 97 351 97 q 671 163 599 97 q 758 340 743 228 l 892 340 q 769 77 876 174 q 489 -19 663 -19 q 260 42 357 -19 q 112 220 164 104 q 60 494 60 336 q 112 769 60 653 q 262 947 164 885 q 493 1008 360 1008 m 400 1056 l 519 1247 l 676 1247 l 506 1056 l 400 1056 z "},"ć":{"ha":742,"x_min":57,"x_max":690,"o":"m 389 725 q 538 691 472 725 q 644 596 604 657 q 690 456 683 535 l 563 456 q 508 578 556 531 q 388 625 460 625 q 240 552 294 625 q 186 353 186 479 q 240 153 186 226 q 388 81 293 81 q 508 131 460 81 q 563 260 556 182 l 690 260 q 644 116 683 179 q 540 17 606 53 q 389 -19 474 -19 q 213 26 288 -19 q 97 155 138 71 q 57 353 57 239 q 97 551 57 467 q 213 680 138 635 q 389 725 288 725 m 296 790 l 415 989 l 572 989 l 401 790 l 296 790 z "},"Ĉ":{"ha":957,"x_min":60,"x_max":892,"o":"m 493 1008 q 697 963 610 1008 q 832 838 783 918 q 886 654 881 757 l 754 654 q 674 828 744 764 q 493 892 604 892 q 273 785 353 892 q 193 494 193 679 q 272 203 193 310 q 489 97 351 97 q 671 163 599 97 q 758 340 743 228 l 892 340 q 769 77 876 174 q 489 -19 663 -19 q 260 42 357 -19 q 112 220 164 104 q 60 494 60 336 q 112 769 60 653 q 262 947 164 885 q 493 1008 360 1008 m 560 1247 l 718 1056 l 594 1056 l 492 1179 l 390 1056 l 267 1056 l 425 1247 l 560 1247 z "},"ĉ":{"ha":742,"x_min":57,"x_max":690,"o":"m 389 725 q 538 691 472 725 q 644 596 604 657 q 690 456 683 535 l 563 456 q 508 578 556 531 q 388 625 460 625 q 240 552 294 625 q 186 353 186 479 q 240 153 186 226 q 388 81 293 81 q 508 131 460 81 q 563 260 556 182 l 690 260 q 644 116 683 179 q 540 17 606 53 q 389 -19 474 -19 q 213 26 288 -19 q 97 155 138 71 q 57 353 57 239 q 97 551 57 467 q 213 680 138 635 q 389 725 288 725 m 389 919 l 286 790 l 163 790 l 321 989 l 456 989 l 614 790 l 490 790 l 389 919 z "},"Ċ":{"ha":957,"x_min":60,"x_max":892,"o":"m 493 1008 q 697 963 610 1008 q 832 838 783 918 q 886 654 881 757 l 754 654 q 674 828 744 764 q 493 892 604 892 q 273 785 353 892 q 193 494 193 679 q 272 203 193 310 q 489 97 351 97 q 671 163 599 97 q 758 340 743 228 l 892 340 q 769 77 876 174 q 489 -19 663 -19 q 260 42 357 -19 q 112 220 164 104 q 60 494 60 336 q 112 769 60 653 q 262 947 164 885 q 493 1008 360 1008 m 432 1068 l 432 1206 l 554 1206 l 554 1068 l 432 1068 z "},"ċ":{"ha":742,"x_min":57,"x_max":690,"o":"m 389 725 q 538 691 472 725 q 644 596 604 657 q 690 456 683 535 l 563 456 q 508 578 556 531 q 388 625 460 625 q 240 552 294 625 q 186 353 186 479 q 240 153 186 226 q 388 81 293 81 q 508 131 460 81 q 563 260 556 182 l 690 260 q 644 116 683 179 q 540 17 606 53 q 389 -19 474 -19 q 213 26 288 -19 q 97 155 138 71 q 57 353 57 239 q 97 551 57 467 q 213 680 138 635 q 389 725 288 725 m 326 851 l 326 989 l 449 989 l 449 851 l 326 851 z "},"Č":{"ha":957,"x_min":60,"x_max":892,"o":"m 493 1008 q 697 963 610 1008 q 832 838 783 918 q 886 654 881 757 l 754 654 q 674 828 744 764 q 493 892 604 892 q 273 785 353 892 q 193 494 193 679 q 272 203 193 310 q 489 97 351 97 q 671 163 599 97 q 758 340 743 228 l 892 340 q 769 77 876 174 q 489 -19 663 -19 q 260 42 357 -19 q 112 220 164 104 q 60 494 60 336 q 112 769 60 653 q 262 947 164 885 q 493 1008 360 1008 m 425 1056 l 267 1247 l 390 1247 l 493 1125 l 594 1247 l 718 1247 l 560 1056 l 425 1056 z "},"č":{"ha":742,"x_min":57,"x_max":690,"o":"m 389 725 q 538 691 472 725 q 644 596 604 657 q 690 456 683 535 l 563 456 q 508 578 556 531 q 388 625 460 625 q 240 552 294 625 q 186 353 186 479 q 240 153 186 226 q 388 81 293 81 q 508 131 460 81 q 563 260 556 182 l 690 260 q 644 116 683 179 q 540 17 606 53 q 389 -19 474 -19 q 213 26 288 -19 q 97 155 138 71 q 57 353 57 239 q 97 551 57 467 q 213 680 138 635 q 389 725 288 725 m 321 790 l 163 989 l 286 989 l 389 860 l 490 989 l 614 989 l 456 790 l 321 790 z "},"Ď":{"ha":1004,"x_min":132,"x_max":946,"o":"m 433 989 q 813 860 679 989 q 946 494 946 732 q 813 128 946 257 q 433 0 679 0 l 132 0 l 132 989 l 433 989 m 260 114 l 432 114 q 714 211 617 114 q 811 494 811 308 q 714 778 811 681 q 432 875 617 875 l 260 875 l 260 114 m 389 1056 l 231 1247 l 354 1247 l 457 1125 l 558 1247 l 682 1247 l 524 1056 l 389 1056 z "},"ď":{"ha":800,"x_min":57,"x_max":890,"o":"m 572 0 l 572 103 l 569 103 q 483 15 540 47 q 353 -17 425 -17 q 197 29 264 -17 q 93 159 129 75 q 57 354 57 243 q 93 549 57 465 q 196 678 129 633 q 351 724 263 724 q 480 692 422 724 q 567 608 538 661 l 569 608 l 569 989 l 692 989 l 692 0 l 572 0 m 383 625 q 239 551 293 625 q 185 354 185 478 q 239 156 185 231 q 383 82 293 82 q 524 156 471 82 q 576 354 576 229 q 524 552 576 479 q 383 625 471 625 m 739 744 l 779 989 l 890 989 l 814 744 l 739 744 z "},"Đ":{"ha":1004,"x_min":40,"x_max":946,"o":"m 433 989 q 813 860 679 989 q 946 494 946 732 q 813 128 946 257 q 433 0 679 0 l 132 0 l 132 451 l 40 451 l 40 550 l 132 550 l 132 989 l 433 989 m 432 114 q 714 211 617 114 q 811 494 811 308 q 714 778 811 681 q 432 875 617 875 l 260 875 l 260 550 l 540 550 l 540 451 l 260 451 l 260 114 l 432 114 z "},"đ":{"ha":792,"x_min":57,"x_max":782,"o":"m 692 806 l 692 0 l 572 0 l 572 103 l 569 103 q 483 15 540 47 q 353 -17 425 -17 q 197 29 264 -17 q 93 159 129 75 q 57 354 57 243 q 93 549 57 465 q 196 678 129 633 q 351 724 263 724 q 480 692 422 724 q 567 608 538 661 l 569 608 l 569 806 l 388 806 l 388 882 l 569 882 l 569 989 l 692 989 l 692 882 l 782 882 l 782 806 l 692 806 m 383 82 q 524 156 471 82 q 576 354 576 229 q 524 552 576 479 q 383 625 471 625 q 239 551 293 625 q 185 354 185 478 q 239 156 185 231 q 383 82 293 82 z "},"Ē":{"ha":858,"x_min":132,"x_max":785,"o":"m 260 875 l 260 563 l 740 563 l 740 450 l 260 450 l 260 114 l 785 114 l 785 0 l 132 0 l 132 989 l 769 989 l 769 875 l 260 875 m 253 1094 l 253 1185 l 647 1185 l 647 1094 l 253 1094 z "},"ē":{"ha":764,"x_min":57,"x_max":707,"o":"m 389 75 q 513 113 464 75 q 575 211 563 150 l 700 211 q 599 47 681 113 q 389 -19 518 -19 q 211 28 286 -19 q 97 161 136 75 q 57 363 57 247 q 97 549 57 467 q 210 678 136 632 q 385 725 285 725 q 584 660 503 725 q 693 479 665 594 q 707 328 707 422 l 179 328 q 241 139 183 203 q 389 75 299 75 m 385 631 q 244 576 299 631 q 181 421 190 521 l 586 421 q 522 576 576 522 q 385 631 468 631 m 183 856 l 183 944 l 578 944 l 578 856 l 183 856 z "},"Ĕ":{"ha":858,"x_min":132,"x_max":785,"o":"m 260 875 l 260 563 l 740 563 l 740 450 l 260 450 l 260 114 l 785 114 l 785 0 l 132 0 l 132 989 l 769 989 l 769 875 l 260 875 m 667 1247 q 603 1101 660 1153 q 451 1050 547 1050 q 298 1101 354 1050 q 235 1247 242 1153 l 326 1247 q 365 1165 332 1194 q 451 1136 399 1136 q 537 1165 504 1136 q 576 1247 569 1194 l 667 1247 z "},"ĕ":{"ha":764,"x_min":57,"x_max":707,"o":"m 389 75 q 513 113 464 75 q 575 211 563 150 l 700 211 q 599 47 681 113 q 389 -19 518 -19 q 211 28 286 -19 q 97 161 136 75 q 57 363 57 247 q 97 549 57 467 q 210 678 136 632 q 385 725 285 725 q 584 660 503 725 q 693 479 665 594 q 707 328 707 422 l 179 328 q 241 139 183 203 q 389 75 299 75 m 385 631 q 244 576 299 631 q 181 421 190 521 l 586 421 q 522 576 576 522 q 385 631 468 631 m 597 989 q 534 842 590 894 q 382 790 478 790 q 229 842 286 790 q 165 989 172 894 l 257 989 q 296 906 263 935 q 382 876 329 876 q 467 906 435 876 q 507 989 500 935 l 597 989 z "},"Ė":{"ha":858,"x_min":132,"x_max":785,"o":"m 260 875 l 260 563 l 740 563 l 740 450 l 260 450 l 260 114 l 785 114 l 785 0 l 132 0 l 132 989 l 769 989 l 769 875 l 260 875 m 389 1068 l 389 1206 l 511 1206 l 511 1068 l 389 1068 z "},"ė":{"ha":764,"x_min":57,"x_max":707,"o":"m 389 75 q 513 113 464 75 q 575 211 563 150 l 700 211 q 599 47 681 113 q 389 -19 518 -19 q 211 28 286 -19 q 97 161 136 75 q 57 363 57 247 q 97 549 57 467 q 210 678 136 632 q 385 725 285 725 q 584 660 503 725 q 693 479 665 594 q 707 328 707 422 l 179 328 q 241 139 183 203 q 389 75 299 75 m 385 631 q 244 576 299 631 q 181 421 190 521 l 586 421 q 522 576 576 522 q 385 631 468 631 m 319 851 l 319 989 l 442 989 l 442 851 l 319 851 z "},"Ę":{"ha":858,"x_min":132,"x_max":789,"o":"m 789 -182 l 789 -256 q 707 -269 754 -269 q 603 -240 638 -269 q 569 -158 569 -211 q 595 -77 569 -114 q 678 0 621 -40 l 132 0 l 132 989 l 769 989 l 769 875 l 260 875 l 260 563 l 740 563 l 740 450 l 260 450 l 260 114 l 785 114 l 785 0 q 703 -76 726 -43 q 679 -142 679 -108 q 735 -192 679 -192 q 789 -182 765 -192 z "},"ę":{"ha":764,"x_min":57,"x_max":707,"o":"m 389 75 q 513 113 464 75 q 575 211 563 150 l 700 211 q 665 117 690 160 q 593 33 639 75 q 506 -60 531 -22 q 482 -136 482 -97 q 497 -177 482 -162 q 539 -192 511 -192 q 593 -182 569 -192 l 593 -256 q 511 -269 558 -269 q 408 -240 442 -269 q 374 -158 374 -211 q 447 -17 374 -83 l 447 -14 q 389 -19 411 -19 q 211 28 286 -19 q 97 161 136 75 q 57 363 57 247 q 97 549 57 467 q 210 678 136 632 q 385 725 285 725 q 584 660 503 725 q 693 479 665 594 q 707 328 707 422 l 179 328 q 241 139 183 203 q 389 75 299 75 m 385 631 q 244 576 299 631 q 181 421 190 521 l 586 421 q 522 576 576 522 q 385 631 468 631 z "},"Ě":{"ha":858,"x_min":132,"x_max":785,"o":"m 260 875 l 260 563 l 740 563 l 740 450 l 260 450 l 260 114 l 785 114 l 785 0 l 132 0 l 132 989 l 769 989 l 769 875 l 260 875 m 383 1056 l 225 1247 l 349 1247 l 451 1125 l 553 1247 l 676 1247 l 518 1056 l 383 1056 z "},"ě":{"ha":764,"x_min":57,"x_max":707,"o":"m 389 75 q 513 113 464 75 q 575 211 563 150 l 700 211 q 599 47 681 113 q 389 -19 518 -19 q 211 28 286 -19 q 97 161 136 75 q 57 363 57 247 q 97 549 57 467 q 210 678 136 632 q 385 725 285 725 q 584 660 503 725 q 693 479 665 594 q 707 328 707 422 l 179 328 q 241 139 183 203 q 389 75 299 75 m 385 631 q 244 576 299 631 q 181 421 190 521 l 586 421 q 522 576 576 522 q 385 631 468 631 m 314 790 l 156 989 l 279 989 l 382 860 l 483 989 l 607 989 l 449 790 l 314 790 z "},"Ĝ":{"ha":1015,"x_min":60,"x_max":900,"o":"m 507 1008 q 781 923 676 1008 q 900 692 886 838 l 764 692 q 681 840 747 788 q 507 892 614 892 q 277 785 361 892 q 193 492 193 678 q 274 198 193 304 q 497 92 356 92 q 701 170 625 92 q 778 415 776 249 l 506 415 l 506 525 l 900 525 l 900 0 l 786 0 l 786 136 l 783 136 q 660 24 743 65 q 472 -18 576 -18 q 253 43 347 -18 q 110 219 160 104 q 60 492 60 335 q 114 767 60 651 q 269 946 168 883 q 507 1008 369 1008 m 567 1247 l 725 1056 l 601 1056 l 499 1179 l 397 1056 l 274 1056 l 432 1247 l 567 1247 z "},"ĝ":{"ha":796,"x_min":57,"x_max":688,"o":"m 567 603 l 569 603 l 569 706 l 688 706 l 688 43 q 608 -190 688 -111 q 379 -268 529 -268 q 167 -208 244 -268 q 88 -44 90 -149 l 210 -44 q 258 -140 213 -106 q 381 -174 303 -174 q 522 -121 476 -174 q 568 49 568 -68 l 568 125 l 565 125 q 356 7 489 7 q 198 51 265 7 q 94 177 131 96 q 57 365 57 258 q 94 555 57 474 q 198 680 131 636 q 356 724 265 724 q 567 603 494 724 m 375 622 q 237 552 289 622 q 185 365 185 482 q 237 180 185 250 q 375 110 289 110 q 519 178 467 110 q 572 365 572 247 q 519 553 572 485 q 375 622 467 622 m 382 919 l 279 790 l 156 790 l 314 989 l 449 989 l 607 790 l 483 790 l 382 919 z "},"Ğ":{"ha":1015,"x_min":60,"x_max":900,"o":"m 507 1008 q 781 923 676 1008 q 900 692 886 838 l 764 692 q 681 840 747 788 q 507 892 614 892 q 277 785 361 892 q 193 492 193 678 q 274 198 193 304 q 497 92 356 92 q 701 170 625 92 q 778 415 776 249 l 506 415 l 506 525 l 900 525 l 900 0 l 786 0 l 786 136 l 783 136 q 660 24 743 65 q 472 -18 576 -18 q 253 43 347 -18 q 110 219 160 104 q 60 492 60 335 q 114 767 60 651 q 269 946 168 883 q 507 1008 369 1008 m 715 1247 q 652 1101 708 1153 q 500 1050 596 1050 q 347 1101 403 1050 q 283 1247 290 1153 l 375 1247 q 414 1165 381 1194 q 500 1136 447 1136 q 585 1165 553 1136 q 625 1247 618 1194 l 715 1247 z "},"ğ":{"ha":796,"x_min":57,"x_max":688,"o":"m 567 603 l 569 603 l 569 706 l 688 706 l 688 43 q 608 -190 688 -111 q 379 -268 529 -268 q 167 -208 244 -268 q 88 -44 90 -149 l 210 -44 q 258 -140 213 -106 q 381 -174 303 -174 q 522 -121 476 -174 q 568 49 568 -68 l 568 125 l 565 125 q 356 7 489 7 q 198 51 265 7 q 94 177 131 96 q 57 365 57 258 q 94 555 57 474 q 198 680 131 636 q 356 724 265 724 q 567 603 494 724 m 375 622 q 237 552 289 622 q 185 365 185 482 q 237 180 185 250 q 375 110 289 110 q 519 178 467 110 q 572 365 572 247 q 519 553 572 485 q 375 622 467 622 m 597 989 q 534 842 590 894 q 382 790 478 790 q 229 842 286 790 q 165 989 172 894 l 257 989 q 296 906 263 935 q 382 876 329 876 q 467 906 435 876 q 507 989 500 935 l 597 989 z "},"Ġ":{"ha":1015,"x_min":60,"x_max":900,"o":"m 507 1008 q 781 923 676 1008 q 900 692 886 838 l 764 692 q 681 840 747 788 q 507 892 614 892 q 277 785 361 892 q 193 492 193 678 q 274 198 193 304 q 497 92 356 92 q 701 170 625 92 q 778 415 776 249 l 506 415 l 506 525 l 900 525 l 900 0 l 786 0 l 786 136 l 783 136 q 660 24 743 65 q 472 -18 576 -18 q 253 43 347 -18 q 110 219 160 104 q 60 492 60 335 q 114 767 60 651 q 269 946 168 883 q 507 1008 369 1008 m 438 1068 l 438 1206 l 560 1206 l 560 1068 l 438 1068 z "},"ġ":{"ha":796,"x_min":57,"x_max":688,"o":"m 567 603 l 569 603 l 569 706 l 688 706 l 688 43 q 608 -190 688 -111 q 379 -268 529 -268 q 167 -208 244 -268 q 88 -44 90 -149 l 210 -44 q 258 -140 213 -106 q 381 -174 303 -174 q 522 -121 476 -174 q 568 49 568 -68 l 568 125 l 565 125 q 356 7 489 7 q 198 51 265 7 q 94 177 131 96 q 57 365 57 258 q 94 555 57 474 q 198 680 131 636 q 356 724 265 724 q 567 603 494 724 m 375 622 q 237 552 289 622 q 185 365 185 482 q 237 180 185 250 q 375 110 289 110 q 519 178 467 110 q 572 365 572 247 q 519 553 572 485 q 375 622 467 622 m 319 851 l 319 989 l 442 989 l 442 851 l 319 851 z "},"Ģ":{"ha":1015,"x_min":60,"x_max":900,"o":"m 507 1008 q 781 923 676 1008 q 900 692 886 838 l 764 692 q 681 840 747 788 q 507 892 614 892 q 277 785 361 892 q 193 492 193 678 q 274 198 193 304 q 497 92 356 92 q 701 170 625 92 q 778 415 776 249 l 506 415 l 506 525 l 900 525 l 900 0 l 786 0 l 786 136 l 783 136 q 660 24 743 65 q 472 -18 576 -18 q 253 43 347 -18 q 110 219 160 104 q 60 492 60 335 q 114 767 60 651 q 269 946 168 883 q 507 1008 369 1008 m 483 -357 l 431 -357 l 483 -214 l 436 -214 l 436 -90 l 560 -90 l 560 -214 l 483 -357 z "},"ģ":{"ha":796,"x_min":57,"x_max":688,"o":"m 567 603 l 569 603 l 569 706 l 688 706 l 688 43 q 608 -190 688 -111 q 379 -268 529 -268 q 167 -208 244 -268 q 88 -44 90 -149 l 210 -44 q 258 -140 213 -106 q 381 -174 303 -174 q 522 -121 476 -174 q 568 49 568 -68 l 568 125 l 565 125 q 356 7 489 7 q 198 51 265 7 q 94 177 131 96 q 57 365 57 258 q 94 555 57 474 q 198 680 131 636 q 356 724 265 724 q 567 603 494 724 m 375 622 q 237 552 289 622 q 185 365 185 482 q 237 180 185 250 q 375 110 289 110 q 519 178 467 110 q 572 365 572 247 q 519 553 572 485 q 375 622 467 622 m 440 933 l 440 810 l 317 810 l 317 933 l 393 1076 l 446 1076 l 393 933 l 440 933 z "},"Ĥ":{"ha":1024,"x_min":132,"x_max":893,"o":"m 764 0 l 764 457 l 260 457 l 260 0 l 132 0 l 132 989 l 260 989 l 260 569 l 764 569 l 764 989 l 893 989 l 893 0 l 764 0 m 579 1247 l 738 1056 l 614 1056 l 511 1179 l 410 1056 l 286 1056 l 444 1247 l 579 1247 z "},"ĥ":{"ha":800,"x_min":108,"x_max":699,"o":"m 233 617 q 324 694 268 668 q 443 721 379 721 q 632 647 565 721 q 699 431 699 574 l 699 0 l 576 0 l 576 421 q 535 574 576 528 q 414 621 493 621 q 283 564 335 621 q 231 404 231 507 l 231 0 l 108 0 l 108 989 l 231 989 l 231 617 l 233 617 m 467 1247 l 625 1056 l 501 1056 l 399 1179 l 297 1056 l 174 1056 l 332 1247 l 467 1247 z "},"Ħ":{"ha":1024,"x_min":50,"x_max":974,"o":"m 893 797 l 893 0 l 764 0 l 764 457 l 260 457 l 260 0 l 132 0 l 132 797 l 50 797 l 50 878 l 132 878 l 132 989 l 260 989 l 260 878 l 764 878 l 764 989 l 893 989 l 893 878 l 974 878 l 974 797 l 893 797 m 260 797 l 260 569 l 764 569 l 764 797 l 260 797 z "},"ħ":{"ha":800,"x_min":10,"x_max":699,"o":"m 443 721 q 632 647 565 721 q 699 431 699 574 l 699 0 l 576 0 l 576 421 q 535 574 576 528 q 414 621 493 621 q 283 564 335 621 q 231 404 231 507 l 231 0 l 108 0 l 108 806 l 10 806 l 10 878 l 108 878 l 108 989 l 231 989 l 231 878 l 404 878 l 404 806 l 231 806 l 231 617 l 233 617 q 324 694 268 668 q 443 721 379 721 z "},"Ĩ":{"ha":392,"x_min":-43,"x_max":436,"o":"m 132 0 l 132 989 l 260 989 l 260 0 l 132 0 m 436 1239 q 394 1121 432 1163 q 296 1079 357 1079 q 240 1090 265 1079 q 182 1119 214 1100 q 135 1143 151 1136 q 101 1150 119 1150 q 38 1079 44 1150 l -43 1079 q -1 1197 -39 1156 q 97 1239 36 1239 q 153 1228 128 1239 q 211 1199 179 1218 q 258 1175 242 1182 q 292 1168 274 1168 q 356 1239 347 1168 l 436 1239 z "},"ĩ":{"ha":339,"x_min":-40,"x_max":379,"o":"m 108 0 l 108 706 l 231 706 l 231 0 l 108 0 m 379 981 q 342 863 376 904 q 250 821 308 821 q 203 831 222 821 q 154 863 183 842 q 117 886 129 879 q 89 893 104 893 q 31 821 38 893 l -40 821 q -3 939 -37 897 q 89 981 31 981 q 136 970 117 981 q 185 939 156 960 q 221 915 207 922 q 250 907 235 907 q 290 925 276 907 q 307 981 304 943 l 379 981 z "},"Ī":{"ha":392,"x_min":-1,"x_max":393,"o":"m 132 0 l 132 989 l 260 989 l 260 0 l 132 0 m -1 1094 l -1 1185 l 393 1185 l 393 1094 l -1 1094 z "},"ī":{"ha":339,"x_min":-8,"x_max":349,"o":"m 108 0 l 108 706 l 231 706 l 231 0 l 108 0 m -8 857 l -8 947 l 349 947 l 349 857 l -8 857 z "},"Ĭ":{"ha":392,"x_min":-21,"x_max":411,"o":"m 132 0 l 132 989 l 260 989 l 260 0 l 132 0 m 411 1247 q 348 1101 404 1153 q 196 1050 292 1050 q 42 1101 99 1050 q -21 1247 -14 1153 l 71 1247 q 110 1165 76 1194 q 196 1136 143 1136 q 281 1165 249 1136 q 321 1247 314 1194 l 411 1247 z "},"ĭ":{"ha":339,"x_min":-24,"x_max":363,"o":"m 108 0 l 108 706 l 231 706 l 231 0 l 108 0 m 363 989 q 308 842 358 894 q 169 790 257 790 q 31 842 82 790 q -24 989 -19 894 l 64 989 q 95 904 68 933 q 169 875 122 875 q 244 904 217 875 q 275 989 271 933 l 363 989 z "},"Į":{"ha":392,"x_min":44,"x_max":264,"o":"m 264 -182 l 264 -256 q 182 -269 229 -269 q 78 -240 113 -269 q 44 -158 44 -211 q 70 -77 44 -114 q 153 0 96 -40 l 132 0 l 132 989 l 260 989 l 260 0 q 178 -76 201 -43 q 154 -142 154 -108 q 210 -192 154 -192 q 264 -182 240 -192 z "},"į":{"ha":339,"x_min":15,"x_max":235,"o":"m 108 851 l 108 989 l 231 989 l 231 851 l 108 851 m 235 -182 l 235 -256 q 153 -269 200 -269 q 49 -240 83 -269 q 15 -158 15 -211 q 41 -77 15 -114 q 124 0 67 -40 l 108 0 l 108 706 l 231 706 l 231 0 q 149 -76 172 -43 q 125 -142 125 -108 q 181 -192 125 -192 q 235 -182 211 -192 z "},"İ":{"ha":392,"x_min":132,"x_max":260,"o":"m 132 0 l 132 989 l 260 989 l 260 0 l 132 0 m 135 1068 l 135 1206 l 257 1206 l 257 1068 l 135 1068 z "},"ı":{"ha":339,"x_min":108,"x_max":231,"o":"m 108 0 l 108 706 l 231 706 l 231 0 l 108 0 z "},"Ĳ":{"ha":885,"x_min":132,"x_max":761,"o":"m 132 0 l 132 989 l 260 989 l 260 0 l 132 0 m 482 -7 q 413 1 440 -7 l 413 115 q 472 108 450 108 q 594 153 554 108 q 633 300 633 197 l 633 989 l 761 989 l 761 283 q 482 -7 761 -7 z "},"ĳ":{"ha":685,"x_min":108,"x_max":576,"o":"m 108 851 l 108 989 l 231 989 l 231 851 l 108 851 m 454 851 l 454 989 l 576 989 l 576 851 l 454 851 m 108 0 l 108 706 l 231 706 l 231 0 l 108 0 m 576 -40 q 523 -209 576 -156 q 374 -262 469 -262 q 308 -256 335 -262 l 308 -158 q 349 -162 329 -162 q 428 -133 403 -162 q 454 -29 454 -103 l 454 706 l 576 706 l 576 -40 z "},"Ĵ":{"ha":494,"x_min":21,"x_max":531,"o":"m 90 -7 q 21 1 49 -7 l 21 115 q 81 108 58 108 q 202 153 163 108 q 242 300 242 197 l 242 989 l 369 989 l 369 283 q 90 -7 369 -7 m 372 1247 l 531 1056 l 407 1056 l 304 1179 l 203 1056 l 79 1056 l 238 1247 l 372 1247 z "},"ĵ":{"ha":346,"x_min":-31,"x_max":382,"o":"m 238 -40 q 184 -209 238 -156 q 35 -262 131 -262 q -31 -256 -4 -262 l -31 -158 q 10 -162 -10 -162 q 90 -133 64 -162 q 115 -29 115 -103 l 115 706 l 238 706 l 238 -40 m 264 792 l 176 921 l 90 792 l -29 792 l 110 989 l 243 989 l 382 792 l 264 792 z "},"Ķ":{"ha":868,"x_min":132,"x_max":863,"o":"m 863 0 l 692 0 l 263 486 l 260 486 l 260 0 l 132 0 l 132 989 l 260 989 l 260 543 l 263 543 l 661 989 l 822 989 l 390 518 l 863 0 m 440 -357 l 388 -357 l 440 -214 l 393 -214 l 393 -90 l 517 -90 l 517 -214 l 440 -357 z "},"ķ":{"ha":694,"x_min":108,"x_max":707,"o":"m 546 0 l 233 353 l 231 353 l 231 0 l 108 0 l 108 989 l 231 989 l 231 413 l 233 413 l 518 706 l 669 706 l 353 386 l 707 0 l 546 0 m 365 -357 l 313 -357 l 365 -214 l 318 -214 l 318 -90 l 442 -90 l 442 -214 l 365 -357 z "},"ĸ":{"ha":718,"x_min":108,"x_max":707,"o":"m 546 0 l 233 353 l 231 353 l 231 0 l 108 0 l 108 706 l 231 706 l 231 413 l 233 413 l 518 706 l 669 706 l 353 386 l 707 0 l 546 0 z "},"Ĺ":{"ha":779,"x_min":132,"x_max":765,"o":"m 765 114 l 765 0 l 132 0 l 132 989 l 260 989 l 260 114 l 765 114 m 147 1056 l 267 1247 l 424 1247 l 253 1056 l 147 1056 z "},"ĺ":{"ha":339,"x_min":104,"x_max":381,"o":"m 108 0 l 108 989 l 231 989 l 231 0 l 108 0 m 104 1074 l 224 1272 l 381 1272 l 210 1074 l 104 1074 z "},"Ļ":{"ha":779,"x_min":132,"x_max":765,"o":"m 765 114 l 765 0 l 132 0 l 132 989 l 260 989 l 260 114 l 765 114 m 433 -357 l 381 -357 l 433 -214 l 386 -214 l 386 -90 l 510 -90 l 510 -214 l 433 -357 z "},"ļ":{"ha":339,"x_min":101,"x_max":231,"o":"m 108 0 l 108 989 l 231 989 l 231 0 l 108 0 m 154 -357 l 101 -357 l 154 -214 l 107 -214 l 107 -90 l 231 -90 l 231 -214 l 154 -357 z "},"Ľ":{"ha":779,"x_min":132,"x_max":765,"o":"m 765 114 l 765 0 l 132 0 l 132 989 l 260 989 l 260 114 l 765 114 m 342 686 l 382 989 l 493 989 l 417 686 l 342 686 z "},"ľ":{"ha":339,"x_min":108,"x_max":432,"o":"m 108 0 l 108 989 l 231 989 l 231 0 l 108 0 m 281 744 l 321 989 l 432 989 l 356 744 l 281 744 z "},"Ŀ":{"ha":890,"x_min":132,"x_max":765,"o":"m 765 114 l 765 0 l 132 0 l 132 989 l 260 989 l 260 114 l 765 114 m 563 492 l 563 654 l 713 654 l 713 492 l 563 492 z "},"ŀ":{"ha":554,"x_min":108,"x_max":521,"o":"m 108 0 l 108 989 l 231 989 l 231 0 l 108 0 m 371 413 l 371 575 l 521 575 l 521 413 l 371 413 z "},"Ł":{"ha":779,"x_min":22,"x_max":765,"o":"m 765 0 l 132 0 l 132 424 l 22 357 l 22 472 l 132 538 l 132 989 l 260 989 l 260 603 l 465 725 l 465 611 l 260 489 l 260 114 l 765 114 l 765 0 z "},"ł":{"ha":396,"x_min":14,"x_max":382,"o":"m 260 525 l 260 0 l 138 0 l 138 465 l 14 393 l 14 501 l 138 575 l 138 989 l 260 989 l 260 633 l 382 707 l 382 597 l 260 525 z "},"Ń":{"ha":1049,"x_min":132,"x_max":918,"o":"m 729 0 l 494 426 q 256 869 361 665 l 253 869 q 257 396 257 632 l 257 0 l 132 0 l 132 989 l 319 989 l 556 563 q 794 119 696 307 l 797 119 q 793 593 793 357 l 793 989 l 918 989 l 918 0 l 729 0 m 432 1056 l 551 1247 l 708 1247 l 538 1056 l 432 1056 z "},"ń":{"ha":800,"x_min":108,"x_max":699,"o":"m 443 721 q 632 647 565 721 q 699 431 699 574 l 699 0 l 576 0 l 576 421 q 535 574 576 528 q 414 621 493 621 q 283 564 335 621 q 231 404 231 507 l 231 0 l 108 0 l 108 706 l 226 706 l 226 613 l 229 613 q 318 692 263 663 q 443 721 374 721 m 311 790 l 431 989 l 588 989 l 417 790 l 311 790 z "},"Ņ":{"ha":1049,"x_min":132,"x_max":918,"o":"m 729 0 l 494 426 q 256 869 361 665 l 253 869 q 257 396 257 632 l 257 0 l 132 0 l 132 989 l 319 989 l 556 563 q 794 119 696 307 l 797 119 q 793 593 793 357 l 793 989 l 918 989 l 918 0 l 729 0 m 510 -357 l 457 -357 l 510 -214 l 463 -214 l 463 -90 l 586 -90 l 586 -214 l 510 -357 z "},"ņ":{"ha":800,"x_min":108,"x_max":699,"o":"m 443 721 q 632 647 565 721 q 699 431 699 574 l 699 0 l 576 0 l 576 421 q 535 574 576 528 q 414 621 493 621 q 283 564 335 621 q 231 404 231 507 l 231 0 l 108 0 l 108 706 l 226 706 l 226 613 l 229 613 q 318 692 263 663 q 443 721 374 721 m 389 -357 l 336 -357 l 389 -214 l 342 -214 l 342 -90 l 465 -90 l 465 -214 l 389 -357 z "},"Ň":{"ha":1049,"x_min":132,"x_max":918,"o":"m 729 0 l 494 426 q 256 869 361 665 l 253 869 q 257 396 257 632 l 257 0 l 132 0 l 132 989 l 319 989 l 556 563 q 794 119 696 307 l 797 119 q 793 593 793 357 l 793 989 l 918 989 l 918 0 l 729 0 m 457 1056 l 299 1247 l 422 1247 l 525 1125 l 626 1247 l 750 1247 l 592 1056 l 457 1056 z "},"ň":{"ha":800,"x_min":108,"x_max":699,"o":"m 443 721 q 632 647 565 721 q 699 431 699 574 l 699 0 l 576 0 l 576 421 q 535 574 576 528 q 414 621 493 621 q 283 564 335 621 q 231 404 231 507 l 231 0 l 108 0 l 108 706 l 226 706 l 226 613 l 229 613 q 318 692 263 663 q 443 721 374 721 m 336 790 l 178 989 l 301 989 l 404 860 l 506 989 l 629 989 l 471 790 l 336 790 z "},"ŉ":{"ha":964,"x_min":93,"x_max":864,"o":"m 167 653 l 93 653 l 142 839 l 96 839 l 96 989 l 233 989 l 233 839 l 167 653 m 608 721 q 797 647 731 721 q 864 431 864 574 l 864 0 l 742 0 l 742 421 q 700 574 742 528 q 579 621 658 621 q 448 564 500 621 q 396 404 396 507 l 396 0 l 274 0 l 274 706 l 392 706 l 392 613 l 394 613 q 483 692 428 663 q 608 721 539 721 z "},"Ŋ":{"ha":1033,"x_min":132,"x_max":903,"o":"m 903 -50 q 848 -212 903 -161 q 697 -264 793 -264 q 632 -257 658 -264 l 632 -160 q 674 -164 653 -164 q 752 -137 726 -164 q 778 -43 778 -110 l 778 0 l 496 456 q 254 854 349 694 l 251 854 q 257 417 257 660 l 257 0 l 132 0 l 132 989 l 307 989 l 538 613 q 779 214 651 429 l 782 214 q 776 653 776 408 l 776 989 l 903 989 l 903 -50 z "},"ŋ":{"ha":800,"x_min":108,"x_max":699,"o":"m 628 653 q 683 559 667 614 q 699 415 699 504 l 699 -47 q 494 -262 699 -262 q 429 -256 464 -262 l 429 -158 q 469 -162 450 -162 q 550 -134 524 -162 q 576 -37 576 -106 l 576 406 q 567 512 576 474 q 533 576 557 550 q 414 621 490 621 q 283 564 336 621 q 231 406 231 507 l 231 0 l 108 0 l 108 706 l 226 706 l 226 611 l 229 611 q 324 694 267 667 q 446 722 381 722 q 628 653 558 722 z "},"Ō":{"ha":1017,"x_min":60,"x_max":957,"o":"m 508 1008 q 576 1008 508 1008 q 746 946 644 1008 q 902 767 847 883 q 957 494 957 651 q 902 222 957 338 q 746 43 847 106 q 508 -19 644 -19 q 271 43 372 -19 q 115 222 169 106 q 60 494 60 338 q 115 767 60 651 q 271 946 169 883 q 508 1008 372 1008 m 508 892 q 460 892 508 892 q 341 843 413 892 q 231 705 269 794 q 193 494 193 615 q 231 284 193 374 q 341 146 269 194 q 508 97 413 97 q 676 146 604 97 q 785 284 747 194 q 824 494 824 374 q 785 705 824 615 q 676 843 747 794 q 508 892 604 892 m 311 1094 l 311 1185 l 706 1185 l 706 1094 l 311 1094 z "},"ō":{"ha":785,"x_min":57,"x_max":728,"o":"m 392 725 q 469 725 392 725 q 638 625 547 725 q 728 353 728 525 q 638 81 728 181 q 392 -19 547 -19 q 147 81 236 -19 q 57 353 57 181 q 147 625 57 525 q 392 725 236 725 m 392 625 q 240 552 296 625 q 185 353 185 479 q 240 153 185 226 q 392 81 296 81 q 544 153 489 81 q 600 353 600 226 q 544 552 600 479 q 392 625 489 625 m 194 856 l 194 944 l 589 944 l 589 856 l 194 856 z "},"Ŏ":{"ha":1017,"x_min":60,"x_max":957,"o":"m 508 1008 q 576 1008 508 1008 q 746 946 644 1008 q 902 767 847 883 q 957 494 957 651 q 902 222 957 338 q 746 43 847 106 q 508 -19 644 -19 q 271 43 372 -19 q 115 222 169 106 q 60 494 60 338 q 115 767 60 651 q 271 946 169 883 q 508 1008 372 1008 m 508 892 q 460 892 508 892 q 341 843 413 892 q 231 705 269 794 q 193 494 193 615 q 231 284 193 374 q 341 146 269 194 q 508 97 413 97 q 676 146 604 97 q 785 284 747 194 q 824 494 824 374 q 785 705 824 615 q 676 843 747 794 q 508 892 604 892 m 724 1247 q 660 1101 717 1153 q 508 1050 604 1050 q 355 1101 411 1050 q 292 1247 299 1153 l 383 1247 q 422 1165 389 1194 q 508 1136 456 1136 q 594 1165 561 1136 q 633 1247 626 1194 l 724 1247 z "},"ŏ":{"ha":785,"x_min":57,"x_max":728,"o":"m 392 725 q 469 725 392 725 q 638 625 547 725 q 728 353 728 525 q 638 81 728 181 q 392 -19 547 -19 q 147 81 236 -19 q 57 353 57 181 q 147 625 57 525 q 392 725 236 725 m 392 625 q 240 552 296 625 q 185 353 185 479 q 240 153 185 226 q 392 81 296 81 q 544 153 489 81 q 600 353 600 226 q 544 552 600 479 q 392 625 489 625 m 608 989 q 545 842 601 894 q 393 790 489 790 q 240 842 297 790 q 176 989 183 894 l 268 989 q 307 906 274 935 q 393 876 340 876 q 478 906 446 876 q 518 989 511 935 l 608 989 z "},"Ő":{"ha":1017,"x_min":60,"x_max":957,"o":"m 508 1008 q 576 1008 508 1008 q 746 946 644 1008 q 902 767 847 883 q 957 494 957 651 q 902 222 957 338 q 746 43 847 106 q 508 -19 644 -19 q 271 43 372 -19 q 115 222 169 106 q 60 494 60 338 q 115 767 60 651 q 271 946 169 883 q 508 1008 372 1008 m 508 892 q 460 892 508 892 q 341 843 413 892 q 231 705 269 794 q 193 494 193 615 q 231 284 193 374 q 341 146 269 194 q 508 97 413 97 q 676 146 604 97 q 785 284 747 194 q 824 494 824 374 q 785 705 824 615 q 676 843 747 794 q 508 892 604 892 m 306 1050 l 453 1247 l 597 1247 l 408 1050 l 306 1050 m 528 1050 l 675 1247 l 819 1247 l 631 1050 l 528 1050 z "},"ő":{"ha":785,"x_min":57,"x_max":728,"o":"m 392 725 q 469 725 392 725 q 638 625 547 725 q 728 353 728 525 q 638 81 728 181 q 392 -19 547 -19 q 147 81 236 -19 q 57 353 57 181 q 147 625 57 525 q 392 725 236 725 m 392 625 q 240 552 296 625 q 185 353 185 479 q 240 153 185 226 q 392 81 296 81 q 544 153 489 81 q 600 353 600 226 q 544 552 600 479 q 392 625 489 625 m 200 790 l 347 989 l 492 989 l 303 790 l 200 790 m 422 790 l 569 989 l 714 989 l 525 790 l 422 790 z "},"Œ":{"ha":1388,"x_min":60,"x_max":1314,"o":"m 789 875 l 789 563 l 1271 563 l 1271 450 l 789 450 l 789 114 l 1314 114 l 1314 0 l 568 0 q 192 128 324 0 q 60 494 60 257 q 192 860 60 732 q 568 989 324 989 l 1299 989 l 1299 875 l 789 875 m 568 875 q 290 777 386 875 q 193 494 193 679 q 290 212 193 310 q 568 114 386 114 l 661 114 l 661 875 l 568 875 z "},"œ":{"ha":1246,"x_min":57,"x_max":1189,"o":"m 882 75 q 999 113 953 75 q 1057 211 1044 150 l 1182 211 q 1085 47 1164 113 q 882 -19 1007 -19 q 733 17 797 -19 q 629 124 668 54 q 526 17 590 54 q 378 -19 461 -19 q 143 81 229 -19 q 57 353 57 181 q 143 625 57 525 q 378 725 229 725 q 525 688 461 725 q 629 583 589 651 q 731 688 668 650 q 878 725 794 725 q 1069 659 990 725 q 1175 479 1149 593 q 1189 328 1189 422 l 683 328 q 742 139 688 203 q 882 75 796 75 m 878 631 q 746 576 797 631 q 685 421 694 521 l 1068 421 q 1008 576 1058 522 q 878 631 957 631 m 378 81 q 520 153 468 81 q 572 353 572 226 q 520 552 572 479 q 378 625 468 625 q 237 552 289 625 q 185 353 185 479 q 237 153 185 226 q 378 81 289 81 z "},"Ŕ":{"ha":889,"x_min":132,"x_max":854,"o":"m 446 989 q 707 919 621 989 q 793 721 793 850 q 742 560 793 626 q 604 474 690 493 l 604 471 q 689 415 658 454 q 753 285 719 376 l 854 0 l 715 0 l 625 261 q 553 383 594 350 q 433 417 513 417 l 260 417 l 260 0 l 132 0 l 132 989 l 446 989 m 260 525 l 444 525 q 609 576 556 525 q 663 711 663 626 q 436 879 663 879 l 260 879 l 260 525 m 346 1056 l 465 1247 l 622 1247 l 451 1056 l 346 1056 z "},"ŕ":{"ha":503,"x_min":108,"x_max":488,"o":"m 488 707 l 488 597 q 439 601 442 601 q 285 539 339 601 q 231 360 231 476 l 231 0 l 108 0 l 108 706 l 225 706 l 225 597 l 228 597 q 436 713 297 713 q 488 707 467 713 m 194 790 l 314 989 l 471 989 l 300 790 l 194 790 z "},"Ŗ":{"ha":889,"x_min":132,"x_max":854,"o":"m 446 989 q 707 919 621 989 q 793 721 793 850 q 742 560 793 626 q 604 474 690 493 l 604 471 q 689 415 658 454 q 753 285 719 376 l 854 0 l 715 0 l 625 261 q 553 383 594 350 q 433 417 513 417 l 260 417 l 260 0 l 132 0 l 132 989 l 446 989 m 260 525 l 444 525 q 609 576 556 525 q 663 711 663 626 q 436 879 663 879 l 260 879 l 260 525 m 457 -357 l 404 -357 l 457 -214 l 410 -214 l 410 -90 l 533 -90 l 533 -214 l 457 -357 z "},"ŗ":{"ha":503,"x_min":101,"x_max":488,"o":"m 488 707 l 488 597 q 439 601 442 601 q 285 539 339 601 q 231 360 231 476 l 231 0 l 108 0 l 108 706 l 225 706 l 225 597 l 228 597 q 436 713 297 713 q 488 707 467 713 m 154 -357 l 101 -357 l 154 -214 l 107 -214 l 107 -90 l 231 -90 l 231 -214 l 154 -357 z "},"Ř":{"ha":889,"x_min":132,"x_max":854,"o":"m 446 989 q 707 919 621 989 q 793 721 793 850 q 742 560 793 626 q 604 474 690 493 l 604 471 q 689 415 658 454 q 753 285 719 376 l 854 0 l 715 0 l 625 261 q 553 383 594 350 q 433 417 513 417 l 260 417 l 260 0 l 132 0 l 132 989 l 446 989 m 260 525 l 444 525 q 609 576 556 525 q 663 711 663 626 q 436 879 663 879 l 260 879 l 260 525 m 371 1056 l 213 1247 l 336 1247 l 439 1125 l 540 1247 l 664 1247 l 506 1056 l 371 1056 z "},"ř":{"ha":503,"x_min":61,"x_max":513,"o":"m 488 707 l 488 597 q 439 601 442 601 q 285 539 339 601 q 231 360 231 476 l 231 0 l 108 0 l 108 706 l 225 706 l 225 597 l 228 597 q 436 713 297 713 q 488 707 467 713 m 219 790 l 61 989 l 185 989 l 288 860 l 389 989 l 513 989 l 354 790 l 219 790 z "},"Ś":{"ha":846,"x_min":54,"x_max":778,"o":"m 400 1008 q 665 926 576 1008 q 754 683 754 844 l 625 683 q 567 845 625 792 q 399 899 510 899 q 255 857 307 899 q 203 744 203 815 q 228 662 203 693 q 302 610 253 631 q 442 568 351 590 q 624 511 556 540 q 735 425 693 482 q 778 272 778 368 q 734 119 778 185 q 610 17 690 53 q 424 -19 531 -19 q 151 69 249 -19 q 54 328 54 158 l 186 328 q 249 149 186 208 q 425 90 311 90 q 588 136 531 90 q 646 265 646 182 q 620 350 646 318 q 545 401 594 382 q 404 443 496 419 q 222 501 290 471 q 113 586 154 531 q 72 736 72 642 q 113 877 72 815 q 227 974 153 939 q 400 1008 301 1008 m 308 1056 l 428 1247 l 585 1247 l 414 1056 l 308 1056 z "},"ś":{"ha":686,"x_min":54,"x_max":629,"o":"m 332 725 q 535 663 463 725 q 607 485 607 600 l 488 485 q 447 593 488 556 q 331 631 406 631 q 230 603 267 631 q 193 531 193 576 q 210 475 193 494 q 260 444 228 456 q 363 417 292 433 q 505 375 454 394 q 592 312 556 356 q 629 192 629 268 q 553 38 629 96 q 350 -19 478 -19 q 133 46 210 -19 q 54 235 56 111 l 178 235 q 223 119 178 160 q 351 78 268 78 q 463 107 421 78 q 504 183 504 136 q 485 246 504 224 q 428 281 465 268 q 310 314 390 294 q 181 352 225 335 q 103 409 136 369 q 71 521 71 449 q 144 668 71 611 q 332 725 217 725 m 239 790 l 358 989 l 515 989 l 344 790 l 239 790 z "},"Ŝ":{"ha":846,"x_min":54,"x_max":778,"o":"m 400 1008 q 665 926 576 1008 q 754 683 754 844 l 625 683 q 567 845 625 792 q 399 899 510 899 q 255 857 307 899 q 203 744 203 815 q 228 662 203 693 q 302 610 253 631 q 442 568 351 590 q 624 511 556 540 q 735 425 693 482 q 778 272 778 368 q 734 119 778 185 q 610 17 690 53 q 424 -19 531 -19 q 151 69 249 -19 q 54 328 54 158 l 186 328 q 249 149 186 208 q 425 90 311 90 q 588 136 531 90 q 646 265 646 182 q 620 350 646 318 q 545 401 594 382 q 404 443 496 419 q 222 501 290 471 q 113 586 154 531 q 72 736 72 642 q 113 877 72 815 q 227 974 153 939 q 400 1008 301 1008 m 468 1247 l 626 1056 l 503 1056 l 400 1179 l 299 1056 l 175 1056 l 333 1247 l 468 1247 z "},"ŝ":{"ha":686,"x_min":54,"x_max":629,"o":"m 332 725 q 535 663 463 725 q 607 485 607 600 l 488 485 q 447 593 488 556 q 331 631 406 631 q 230 603 267 631 q 193 531 193 576 q 210 475 193 494 q 260 444 228 456 q 363 417 292 433 q 505 375 454 394 q 592 312 556 356 q 629 192 629 268 q 553 38 629 96 q 350 -19 478 -19 q 133 46 210 -19 q 54 235 56 111 l 178 235 q 223 119 178 160 q 351 78 268 78 q 463 107 421 78 q 504 183 504 136 q 485 246 504 224 q 428 281 465 268 q 310 314 390 294 q 181 352 225 335 q 103 409 136 369 q 71 521 71 449 q 144 668 71 611 q 332 725 217 725 m 332 919 l 229 790 l 106 790 l 264 989 l 399 989 l 557 790 l 433 790 l 332 919 z "},"Ş":{"ha":846,"x_min":54,"x_max":778,"o":"m 778 272 q 694 70 778 147 q 465 -18 610 -7 l 421 -86 q 457 -82 446 -82 q 535 -110 503 -82 q 568 -185 568 -139 q 528 -271 568 -236 q 415 -306 489 -306 q 269 -268 340 -306 l 294 -217 q 403 -246 344 -246 q 460 -231 440 -246 q 481 -189 481 -217 q 460 -147 481 -162 q 407 -131 440 -131 q 364 -139 382 -131 l 339 -111 l 400 -19 q 145 76 236 -12 q 54 328 54 165 l 186 328 q 249 149 186 208 q 425 90 311 90 q 588 136 531 90 q 646 265 646 182 q 620 350 646 318 q 545 401 594 382 q 404 443 496 419 q 222 501 290 471 q 113 586 154 531 q 72 736 72 642 q 113 877 72 815 q 227 974 153 939 q 400 1008 301 1008 q 665 926 576 1008 q 754 683 754 844 l 625 683 q 567 845 625 792 q 399 899 510 899 q 255 857 307 899 q 203 744 203 815 q 228 662 203 693 q 302 610 253 631 q 442 568 351 590 q 624 511 556 540 q 735 425 693 482 q 778 272 778 368 z "},"ş":{"ha":686,"x_min":54,"x_max":629,"o":"m 629 192 q 566 49 629 106 q 394 -18 503 -7 l 350 -86 q 386 -82 375 -82 q 465 -110 432 -82 q 497 -185 497 -139 q 458 -271 497 -236 q 344 -306 418 -306 q 199 -268 269 -306 l 224 -217 q 332 -246 274 -246 q 390 -231 369 -246 q 410 -189 410 -217 q 390 -147 410 -162 q 336 -131 369 -131 q 293 -139 311 -131 l 268 -111 l 329 -19 q 127 51 199 -14 q 54 235 56 117 l 178 235 q 223 119 178 160 q 351 78 268 78 q 463 107 421 78 q 504 183 504 136 q 485 246 504 224 q 428 281 465 268 q 310 314 390 294 q 181 352 225 335 q 103 409 136 369 q 71 521 71 449 q 144 668 71 611 q 332 725 217 725 q 535 663 463 725 q 607 485 607 600 l 488 485 q 447 593 488 556 q 331 631 406 631 q 230 603 267 631 q 193 531 193 576 q 210 475 193 494 q 260 444 228 456 q 363 417 292 433 q 505 375 454 394 q 592 312 556 356 q 629 192 629 268 z "},"Š":{"ha":846,"x_min":54,"x_max":778,"o":"m 400 1008 q 665 926 576 1008 q 754 683 754 844 l 625 683 q 567 845 625 792 q 399 899 510 899 q 255 857 307 899 q 203 744 203 815 q 228 662 203 693 q 302 610 253 631 q 442 568 351 590 q 624 511 556 540 q 735 425 693 482 q 778 272 778 368 q 734 119 778 185 q 610 17 690 53 q 424 -19 531 -19 q 151 69 249 -19 q 54 328 54 158 l 186 328 q 249 149 186 208 q 425 90 311 90 q 588 136 531 90 q 646 265 646 182 q 620 350 646 318 q 545 401 594 382 q 404 443 496 419 q 222 501 290 471 q 113 586 154 531 q 72 736 72 642 q 113 877 72 815 q 227 974 153 939 q 400 1008 301 1008 m 333 1056 l 175 1247 l 299 1247 l 401 1125 l 503 1247 l 626 1247 l 468 1056 l 333 1056 z "},"š":{"ha":686,"x_min":54,"x_max":629,"o":"m 332 725 q 535 663 463 725 q 607 485 607 600 l 488 485 q 447 593 488 556 q 331 631 406 631 q 230 603 267 631 q 193 531 193 576 q 210 475 193 494 q 260 444 228 456 q 363 417 292 433 q 505 375 454 394 q 592 312 556 356 q 629 192 629 268 q 553 38 629 96 q 350 -19 478 -19 q 133 46 210 -19 q 54 235 56 111 l 178 235 q 223 119 178 160 q 351 78 268 78 q 463 107 421 78 q 504 183 504 136 q 485 246 504 224 q 428 281 465 268 q 310 314 390 294 q 181 352 225 335 q 103 409 136 369 q 71 521 71 449 q 144 668 71 611 q 332 725 217 725 m 264 790 l 106 989 l 229 989 l 332 860 l 433 989 l 557 989 l 399 790 l 264 790 z "},"Ţ":{"ha":832,"x_min":14,"x_max":818,"o":"m 481 875 l 481 0 l 351 0 l 351 875 l 14 875 l 14 989 l 818 989 l 818 875 l 481 875 m 401 -357 l 349 -357 l 401 -214 l 354 -214 l 354 -90 l 478 -90 l 478 -214 l 401 -357 z "},"ţ":{"ha":444,"x_min":15,"x_max":407,"o":"m 407 103 l 407 3 q 329 -6 376 -6 q 183 42 228 -6 q 138 197 138 89 l 138 608 l 15 608 l 15 706 l 138 706 l 138 876 l 260 876 l 260 706 l 400 706 l 400 608 l 260 608 l 260 210 q 282 122 260 149 q 357 96 304 96 q 407 103 386 96 m 310 -90 l 310 -214 l 233 -357 l 181 -357 l 233 -214 l 186 -214 l 186 -90 l 310 -90 z "},"Ť":{"ha":832,"x_min":14,"x_max":818,"o":"m 481 875 l 481 0 l 351 0 l 351 875 l 14 875 l 14 989 l 818 989 l 818 875 l 481 875 m 349 1056 l 190 1247 l 314 1247 l 417 1125 l 518 1247 l 642 1247 l 483 1056 l 349 1056 z "},"ť":{"ha":444,"x_min":15,"x_max":458,"o":"m 407 103 l 407 3 q 329 -6 376 -6 q 183 42 228 -6 q 138 197 138 89 l 138 608 l 15 608 l 15 706 l 138 706 l 138 876 l 260 876 l 260 706 l 400 706 l 400 608 l 260 608 l 260 210 q 282 122 260 149 q 357 96 304 96 q 407 103 386 96 m 307 744 l 347 989 l 458 989 l 382 744 l 307 744 z "},"Ŧ":{"ha":832,"x_min":14,"x_max":818,"o":"m 481 568 l 676 568 l 676 468 l 481 468 l 481 0 l 351 0 l 351 468 l 156 468 l 156 568 l 351 568 l 351 875 l 14 875 l 14 989 l 818 989 l 818 875 l 481 875 l 481 568 z "},"ŧ":{"ha":442,"x_min":15,"x_max":407,"o":"m 407 103 l 407 3 q 329 -6 376 -6 q 183 42 228 -6 q 138 197 138 89 l 138 338 l 19 338 l 19 419 l 138 419 l 138 608 l 15 608 l 15 706 l 138 706 l 138 876 l 260 876 l 260 706 l 400 706 l 400 608 l 260 608 l 260 419 l 396 419 l 396 338 l 260 338 l 260 210 q 282 122 260 149 q 357 96 304 96 q 407 103 386 96 z "},"Ũ":{"ha":979,"x_min":124,"x_max":857,"o":"m 857 371 q 763 81 857 181 q 490 -19 668 -19 q 217 80 311 -19 q 124 371 124 179 l 124 989 l 251 989 l 251 374 q 314 167 251 238 q 490 97 376 97 q 666 167 604 97 q 728 374 728 238 l 728 989 l 857 989 l 857 371 m 729 1239 q 688 1121 725 1163 q 589 1079 650 1079 q 533 1090 558 1079 q 475 1119 507 1100 q 428 1143 444 1136 q 394 1150 413 1150 q 331 1079 338 1150 l 250 1079 q 292 1197 254 1156 q 390 1239 329 1239 q 447 1228 421 1239 q 504 1199 472 1218 q 551 1175 535 1182 q 585 1168 567 1168 q 649 1239 640 1168 l 729 1239 z "},"ũ":{"ha":800,"x_min":101,"x_max":692,"o":"m 356 -15 q 167 58 233 -15 q 101 275 101 132 l 101 706 l 224 706 l 224 285 q 265 131 224 178 q 386 85 307 85 q 517 142 464 85 q 569 301 569 200 l 569 706 l 692 706 l 692 0 l 574 0 l 574 93 l 571 93 q 481 14 538 43 q 356 -15 425 -15 m 640 981 q 599 863 636 904 q 500 821 561 821 q 444 831 469 821 q 386 861 418 842 q 340 885 356 878 q 306 892 324 892 q 242 821 249 892 l 161 821 q 203 939 165 897 q 301 981 240 981 q 358 970 332 981 q 415 940 383 960 q 462 917 446 924 q 496 910 478 910 q 560 981 551 910 l 640 981 z "},"Ū":{"ha":979,"x_min":124,"x_max":857,"o":"m 857 371 q 763 81 857 181 q 490 -19 668 -19 q 217 80 311 -19 q 124 371 124 179 l 124 989 l 251 989 l 251 374 q 314 167 251 238 q 490 97 376 97 q 666 167 604 97 q 728 374 728 238 l 728 989 l 857 989 l 857 371 m 292 1094 l 292 1185 l 686 1185 l 686 1094 l 292 1094 z "},"ū":{"ha":800,"x_min":101,"x_max":692,"o":"m 356 -15 q 167 58 233 -15 q 101 275 101 132 l 101 706 l 224 706 l 224 285 q 265 131 224 178 q 386 85 307 85 q 517 142 464 85 q 569 301 569 200 l 569 706 l 692 706 l 692 0 l 574 0 l 574 93 l 571 93 q 481 14 538 43 q 356 -15 425 -15 m 203 856 l 203 944 l 597 944 l 597 856 l 203 856 z "},"Ŭ":{"ha":979,"x_min":124,"x_max":857,"o":"m 857 371 q 763 81 857 181 q 490 -19 668 -19 q 217 80 311 -19 q 124 371 124 179 l 124 989 l 251 989 l 251 374 q 314 167 251 238 q 490 97 376 97 q 666 167 604 97 q 728 374 728 238 l 728 989 l 857 989 l 857 371 m 706 1247 q 642 1101 699 1153 q 490 1050 586 1050 q 337 1101 393 1050 q 274 1247 281 1153 l 365 1247 q 404 1165 371 1194 q 490 1136 438 1136 q 576 1165 543 1136 q 615 1247 608 1194 l 706 1247 z "},"ŭ":{"ha":800,"x_min":101,"x_max":692,"o":"m 356 -15 q 167 58 233 -15 q 101 275 101 132 l 101 706 l 224 706 l 224 285 q 265 131 224 178 q 386 85 307 85 q 517 142 464 85 q 569 301 569 200 l 569 706 l 692 706 l 692 0 l 574 0 l 574 93 l 571 93 q 481 14 538 43 q 356 -15 425 -15 m 617 989 q 553 842 610 894 q 401 790 497 790 q 249 842 306 790 q 185 989 192 894 l 276 989 q 315 906 282 935 q 401 876 349 876 q 487 906 454 876 q 526 989 519 935 l 617 989 z "},"Ů":{"ha":979,"x_min":124,"x_max":857,"o":"m 857 371 q 763 81 857 181 q 490 -19 668 -19 q 217 80 311 -19 q 124 371 124 179 l 124 989 l 251 989 l 251 374 q 314 167 251 238 q 490 97 376 97 q 666 167 604 97 q 728 374 728 238 l 728 989 l 857 989 l 857 371 m 489 1324 q 588 1283 547 1324 q 629 1183 629 1242 q 588 1085 629 1126 q 489 1044 547 1044 q 391 1085 432 1044 q 350 1183 350 1126 q 391 1283 350 1242 q 489 1324 432 1324 m 489 1264 q 433 1240 457 1264 q 410 1183 410 1217 q 433 1127 410 1150 q 489 1104 457 1104 q 547 1127 524 1104 q 569 1183 569 1150 q 547 1240 569 1217 q 489 1264 524 1264 z "},"ů":{"ha":800,"x_min":101,"x_max":692,"o":"m 356 -15 q 167 58 233 -15 q 101 275 101 132 l 101 706 l 224 706 l 224 285 q 265 131 224 178 q 386 85 307 85 q 517 142 464 85 q 569 301 569 200 l 569 706 l 692 706 l 692 0 l 574 0 l 574 93 l 571 93 q 481 14 538 43 q 356 -15 425 -15 m 400 1064 q 499 1023 458 1064 q 540 925 540 982 q 499 826 540 867 q 400 785 458 785 q 302 826 343 785 q 261 925 261 867 q 302 1023 261 982 q 400 1064 343 1064 m 400 1006 q 344 982 368 1006 q 321 925 321 958 q 344 868 321 892 q 400 844 368 844 q 458 867 435 844 q 481 925 481 890 q 458 982 481 958 q 400 1006 435 1006 z "},"Ű":{"ha":979,"x_min":124,"x_max":857,"o":"m 857 371 q 763 81 857 181 q 490 -19 668 -19 q 217 80 311 -19 q 124 371 124 179 l 124 989 l 251 989 l 251 374 q 314 167 251 238 q 490 97 376 97 q 666 167 604 97 q 728 374 728 238 l 728 989 l 857 989 l 857 371 m 288 1050 l 435 1247 l 579 1247 l 390 1050 l 288 1050 m 510 1050 l 657 1247 l 801 1247 l 613 1050 l 510 1050 z "},"ű":{"ha":800,"x_min":101,"x_max":722,"o":"m 356 -15 q 167 58 233 -15 q 101 275 101 132 l 101 706 l 224 706 l 224 285 q 265 131 224 178 q 386 85 307 85 q 517 142 464 85 q 569 301 569 200 l 569 706 l 692 706 l 692 0 l 574 0 l 574 93 l 571 93 q 481 14 538 43 q 356 -15 425 -15 m 208 790 l 356 989 l 500 989 l 311 790 l 208 790 m 431 790 l 578 989 l 722 989 l 533 790 l 431 790 z "},"Ų":{"ha":979,"x_min":124,"x_max":857,"o":"m 857 371 q 817 162 857 246 q 699 15 778 78 q 616 -65 639 -32 q 593 -133 593 -99 q 650 -192 593 -192 q 703 -182 679 -192 l 703 -256 q 622 -269 668 -269 q 519 -239 553 -269 q 485 -151 485 -208 q 505 -81 485 -112 q 568 -11 525 -49 l 568 -8 q 490 -19 531 -19 q 217 80 311 -19 q 124 371 124 179 l 124 989 l 251 989 l 251 374 q 314 167 251 238 q 490 97 376 97 q 666 167 604 97 q 728 374 728 238 l 728 989 l 857 989 l 857 371 z "},"ų":{"ha":800,"x_min":101,"x_max":696,"o":"m 696 -182 l 696 -256 q 614 -269 661 -269 q 510 -240 544 -269 q 476 -158 476 -211 q 502 -77 476 -114 q 585 0 528 -40 l 574 0 l 574 93 l 571 93 q 481 14 538 43 q 356 -15 425 -15 q 167 58 233 -15 q 101 275 101 132 l 101 706 l 224 706 l 224 285 q 265 131 224 178 q 386 85 307 85 q 517 142 464 85 q 569 301 569 200 l 569 706 l 692 706 l 692 0 q 610 -76 633 -43 q 586 -142 586 -108 q 642 -192 586 -192 q 696 -182 672 -192 z "},"Ŵ":{"ha":1272,"x_min":14,"x_max":1258,"o":"m 844 0 l 740 432 q 638 875 683 667 l 635 875 q 532 432 589 667 l 428 0 l 244 0 l 14 989 l 142 989 l 235 589 q 328 168 267 449 l 338 124 l 340 124 q 450 590 403 404 l 547 989 l 725 989 l 822 590 q 932 124 869 404 l 935 124 q 1038 589 978 333 l 1131 989 l 1258 989 l 1028 0 l 844 0 m 703 1247 l 861 1056 l 738 1056 l 635 1179 l 533 1056 l 410 1056 l 568 1247 l 703 1247 z "},"ŵ":{"ha":1069,"x_min":10,"x_max":1060,"o":"m 697 0 l 614 306 q 594 383 599 364 q 536 611 561 507 l 533 611 q 475 383 508 507 q 456 306 471 364 l 372 0 l 197 0 l 10 706 l 133 706 l 208 411 q 286 94 242 278 l 289 94 q 367 404 326 253 l 447 706 l 622 706 l 703 404 l 781 94 l 783 94 q 861 411 828 278 l 936 706 l 1060 706 l 872 0 l 697 0 m 535 919 l 432 790 l 308 790 l 467 989 l 601 989 l 760 790 l 636 790 l 535 919 z "},"Ŷ":{"ha":853,"x_min":6,"x_max":847,"o":"m 490 0 l 363 0 l 363 410 l 6 989 l 154 989 l 275 785 q 425 524 346 665 l 428 524 q 578 785 507 665 l 700 989 l 847 989 l 490 410 l 490 0 m 493 1247 l 651 1056 l 528 1056 l 425 1179 l 324 1056 l 200 1056 l 358 1247 l 493 1247 z "},"ŷ":{"ha":656,"x_min":-8,"x_max":664,"o":"m 381 -32 q 308 -173 346 -124 q 219 -242 269 -222 q 90 -262 168 -262 q 26 -256 49 -262 l 26 -153 q 85 -161 51 -161 q 162 -147 132 -161 q 214 -100 192 -133 q 260 -3 236 -67 l -8 706 l 124 706 l 326 144 l 329 144 l 535 706 l 664 706 l 381 -32 m 329 919 l 226 790 l 103 790 l 261 989 l 396 989 l 554 790 l 431 790 l 329 919 z "},"Ÿ":{"ha":853,"x_min":6,"x_max":847,"o":"m 490 0 l 363 0 l 363 410 l 6 989 l 154 989 l 275 785 q 425 524 346 665 l 428 524 q 578 785 507 665 l 700 989 l 847 989 l 490 410 l 490 0 m 233 1076 l 233 1214 l 347 1214 l 347 1076 l 233 1076 m 504 1076 l 504 1214 l 618 1214 l 618 1076 l 504 1076 z "},"Ź":{"ha":786,"x_min":25,"x_max":761,"o":"m 175 115 l 175 113 l 761 113 l 761 0 l 25 0 l 25 122 l 585 874 l 585 876 l 40 876 l 40 989 l 735 989 l 735 867 l 175 115 m 294 1056 l 414 1247 l 571 1247 l 400 1056 l 294 1056 z "},"ź":{"ha":651,"x_min":36,"x_max":615,"o":"m 186 103 l 186 100 l 615 100 l 615 0 l 36 0 l 36 106 l 451 603 l 451 606 l 50 606 l 50 706 l 601 706 l 601 600 l 186 103 m 221 790 l 340 989 l 497 989 l 326 790 l 221 790 z "},"Ż":{"ha":786,"x_min":25,"x_max":761,"o":"m 175 115 l 175 113 l 761 113 l 761 0 l 25 0 l 25 122 l 585 874 l 585 876 l 40 876 l 40 989 l 735 989 l 735 867 l 175 115 m 326 1068 l 326 1206 l 449 1206 l 449 1068 l 326 1068 z "},"ż":{"ha":651,"x_min":36,"x_max":615,"o":"m 186 103 l 186 100 l 615 100 l 615 0 l 36 0 l 36 106 l 451 603 l 451 606 l 50 606 l 50 706 l 601 706 l 601 600 l 186 103 m 251 851 l 251 989 l 374 989 l 374 851 l 251 851 z "},"Ž":{"ha":786,"x_min":25,"x_max":761,"o":"m 175 115 l 175 113 l 761 113 l 761 0 l 25 0 l 25 122 l 585 874 l 585 876 l 40 876 l 40 989 l 735 989 l 735 867 l 175 115 m 319 1056 l 161 1247 l 285 1247 l 388 1125 l 489 1247 l 613 1247 l 454 1056 l 319 1056 z "},"ž":{"ha":651,"x_min":36,"x_max":615,"o":"m 186 103 l 186 100 l 615 100 l 615 0 l 36 0 l 36 106 l 451 603 l 451 606 l 50 606 l 50 706 l 601 706 l 601 600 l 186 103 m 246 790 l 88 989 l 211 989 l 314 860 l 415 989 l 539 989 l 381 790 l 246 790 z "},"ſ":{"ha":424,"x_min":18,"x_max":406,"o":"m 406 989 l 406 894 q 365 899 393 899 q 288 871 313 899 q 263 779 263 843 l 263 0 l 142 0 l 142 608 l 18 608 l 18 706 l 142 706 l 142 793 q 191 945 142 894 q 335 996 240 996 q 406 989 378 996 z "},"Ə":{"ha":1029,"x_min":60,"x_max":969,"o":"m 497 1008 q 749 945 643 1008 q 913 766 856 882 q 969 494 969 650 q 914 228 969 344 q 753 46 858 111 q 507 -19 649 -19 q 269 43 371 -19 q 114 222 168 106 q 60 494 60 338 q 61 539 60 528 l 836 539 q 737 802 831 711 q 496 893 643 893 q 313 838 385 893 q 222 692 240 783 l 82 692 q 152 852 99 781 q 293 966 206 924 q 497 1008 381 1008 m 507 97 q 735 185 647 97 q 835 428 822 274 l 194 428 q 291 184 206 271 q 507 97 376 97 z "},"ƒ":{"ha":781,"x_min":31,"x_max":751,"o":"m 751 989 l 751 888 q 692 894 724 894 q 597 862 631 894 q 543 750 563 829 l 518 650 l 671 650 l 671 556 l 496 556 l 353 -10 q 297 -159 329 -104 q 217 -239 265 -214 q 97 -264 169 -264 q 31 -256 60 -264 l 31 -151 q 86 -160 56 -160 q 176 -126 143 -160 q 232 4 208 -93 l 372 556 l 232 556 l 232 650 l 394 650 l 422 763 q 512 944 454 890 q 674 999 569 999 q 751 989 713 999 z "},"Ǻ":{"ha":938,"x_min":7,"x_max":932,"o":"m 251 294 l 143 0 l 7 0 l 382 989 l 556 989 l 932 0 l 794 0 l 688 294 l 251 294 m 614 497 q 471 900 529 731 l 468 900 q 325 497 410 731 l 292 407 l 646 407 l 614 497 m 468 1297 q 567 1256 526 1297 q 608 1157 608 1215 q 567 1059 608 1100 q 468 1018 526 1018 q 370 1059 411 1018 q 329 1157 329 1100 q 370 1256 329 1215 q 468 1297 411 1297 m 468 1238 q 413 1214 436 1238 q 389 1157 389 1190 q 413 1101 389 1124 q 468 1078 436 1078 q 526 1101 503 1078 q 549 1157 549 1124 q 526 1214 549 1190 q 468 1238 503 1238 m 376 1326 l 496 1518 l 653 1518 l 482 1326 l 376 1326 z "},"ǻ":{"ha":738,"x_min":47,"x_max":654,"o":"m 360 725 q 565 656 492 725 q 638 451 638 588 l 638 181 q 654 0 638 74 l 543 0 q 533 103 533 44 l 531 103 q 432 15 493 46 q 286 -15 371 -15 q 113 42 178 -15 q 47 192 47 100 q 108 337 47 283 q 315 414 168 390 q 519 438 418 431 l 519 465 q 477 590 519 550 q 360 631 435 631 q 243 592 285 631 q 199 490 201 554 l 76 490 q 156 660 82 594 q 360 725 229 725 m 335 322 q 209 281 246 308 q 172 200 172 253 q 210 112 172 144 q 317 79 249 79 q 398 94 360 79 q 463 135 436 108 q 507 203 494 168 q 519 301 519 239 l 519 344 q 335 322 413 336 m 350 1038 q 449 997 408 1038 q 490 899 490 956 q 449 799 490 840 q 350 758 408 758 q 252 799 293 758 q 211 899 211 840 q 252 997 211 956 q 350 1038 293 1038 m 350 979 q 294 956 318 979 q 271 899 271 932 q 294 842 271 865 q 350 818 318 818 q 408 841 385 818 q 431 899 431 864 q 408 956 431 932 q 350 979 385 979 m 258 1072 l 378 1271 l 535 1271 l 364 1072 l 258 1072 z "},"Ǽ":{"ha":1301,"x_min":-8,"x_max":1228,"o":"m 1228 0 l 713 0 l 665 311 l 286 311 l 138 0 l -8 0 l 476 989 l 1213 989 l 1213 875 l 707 875 l 754 563 l 1185 563 l 1185 450 l 771 450 l 821 114 l 1228 114 l 1228 0 m 581 881 l 560 881 l 340 424 l 649 424 l 581 881 m 613 1056 l 732 1247 l 889 1247 l 718 1056 l 613 1056 z "},"ǽ":{"ha":1197,"x_min":47,"x_max":1140,"o":"m 833 75 q 950 113 904 75 q 1008 211 996 150 l 1133 211 q 1037 47 1115 113 q 833 -19 958 -19 q 681 19 746 -19 q 576 131 615 58 q 465 19 538 58 q 299 -19 393 -19 q 116 40 185 -19 q 47 193 47 99 q 123 358 47 300 q 372 417 199 417 l 525 417 l 525 465 q 483 590 525 549 q 363 631 440 631 q 245 592 288 631 q 199 490 203 554 l 76 490 q 158 660 83 594 q 363 725 232 725 q 596 611 533 725 q 694 695 635 665 q 829 725 754 725 q 1021 658 942 725 q 1126 478 1100 592 q 1140 324 1140 418 l 635 324 q 694 138 640 200 q 833 75 749 75 m 829 631 q 696 574 747 631 q 636 417 644 518 l 1019 417 q 962 575 1014 519 q 829 631 910 631 m 386 324 q 221 292 269 324 q 172 197 172 261 q 211 108 172 142 q 319 75 250 75 q 403 90 364 75 q 467 132 442 104 q 513 202 500 165 q 525 301 525 239 l 525 324 l 386 324 m 503 790 l 622 989 l 779 989 l 608 790 l 503 790 z "},"Ǿ":{"ha":1017,"x_min":60,"x_max":957,"o":"m 842 863 q 927 701 897 794 q 957 494 957 608 q 902 222 957 338 q 746 43 847 106 q 508 -19 644 -19 q 240 64 349 -19 l 157 -46 l 86 8 l 175 126 q 90 288 119 194 q 60 494 60 381 q 115 767 60 651 q 271 946 169 883 q 508 1008 372 1008 q 778 924 668 1008 l 861 1035 l 931 981 l 842 863 m 254 232 l 704 826 q 508 896 624 896 q 340 847 411 896 q 229 707 268 797 q 190 494 190 617 q 254 232 190 335 m 508 93 q 677 142 606 93 q 788 282 749 192 q 826 494 826 372 q 763 757 826 654 l 314 163 q 508 93 394 93 m 415 1056 l 535 1247 l 692 1247 l 521 1056 l 415 1056 z "},"ǿ":{"ha":786,"x_min":57,"x_max":728,"o":"m 643 619 q 706 503 685 571 q 728 353 728 435 q 638 81 728 181 q 392 -19 547 -19 q 200 33 278 -19 l 129 -58 l 69 -12 l 143 85 q 57 353 57 183 q 147 625 57 525 q 392 725 236 725 q 585 671 504 725 l 657 765 l 717 717 l 643 619 m 392 628 q 238 554 294 628 q 181 353 181 481 q 217 183 181 251 l 519 583 q 392 628 468 628 m 392 78 q 547 151 490 78 q 604 353 604 225 q 567 522 604 451 l 265 121 q 392 78 317 78 m 300 790 l 419 989 l 576 989 l 406 790 l 300 790 z "},"Ș":{"ha":846,"x_min":54,"x_max":778,"o":"m 400 1008 q 665 926 576 1008 q 754 683 754 844 l 625 683 q 567 845 625 792 q 399 899 510 899 q 255 857 307 899 q 203 744 203 815 q 228 662 203 693 q 302 610 253 631 q 442 568 351 590 q 624 511 556 540 q 735 425 693 482 q 778 272 778 368 q 734 119 778 185 q 610 17 690 53 q 424 -19 531 -19 q 151 69 249 -19 q 54 328 54 158 l 186 328 q 249 149 186 208 q 425 90 311 90 q 588 136 531 90 q 646 265 646 182 q 620 350 646 318 q 545 401 594 382 q 404 443 496 419 q 222 501 290 471 q 113 586 154 531 q 72 736 72 642 q 113 877 72 815 q 227 974 153 939 q 400 1008 301 1008 m 406 -357 l 353 -357 l 406 -214 l 358 -214 l 358 -90 l 482 -90 l 482 -214 l 406 -357 z "},"ș":{"ha":686,"x_min":54,"x_max":629,"o":"m 332 725 q 535 663 463 725 q 607 485 607 600 l 488 485 q 447 593 488 556 q 331 631 406 631 q 230 603 267 631 q 193 531 193 576 q 210 475 193 494 q 260 444 228 456 q 363 417 292 433 q 505 375 454 394 q 592 312 556 356 q 629 192 629 268 q 553 38 629 96 q 350 -19 478 -19 q 133 46 210 -19 q 54 235 56 111 l 178 235 q 223 119 178 160 q 351 78 268 78 q 463 107 421 78 q 504 183 504 136 q 485 246 504 224 q 428 281 465 268 q 310 314 390 294 q 181 352 225 335 q 103 409 136 369 q 71 521 71 449 q 144 668 71 611 q 332 725 217 725 m 333 -357 l 281 -357 l 333 -214 l 286 -214 l 286 -90 l 410 -90 l 410 -214 l 333 -357 z "},"Ț":{"ha":832,"x_min":14,"x_max":818,"o":"m 481 875 l 481 0 l 351 0 l 351 875 l 14 875 l 14 989 l 818 989 l 818 875 l 481 875 m 401 -357 l 349 -357 l 401 -214 l 354 -214 l 354 -90 l 478 -90 l 478 -214 l 401 -357 z "},"ț":{"ha":444,"x_min":15,"x_max":407,"o":"m 407 103 l 407 3 q 329 -6 376 -6 q 183 42 228 -6 q 138 197 138 89 l 138 608 l 15 608 l 15 706 l 138 706 l 138 876 l 260 876 l 260 706 l 400 706 l 400 608 l 260 608 l 260 210 q 282 122 260 149 q 357 96 304 96 q 407 103 386 96 m 233 -357 l 181 -357 l 233 -214 l 186 -214 l 186 -90 l 310 -90 l 310 -214 l 233 -357 z "},"ȷ":{"ha":346,"x_min":-31,"x_max":238,"o":"m 238 -40 q 184 -209 238 -156 q 35 -262 131 -262 q -31 -256 -4 -262 l -31 -158 q 10 -162 -10 -162 q 90 -133 64 -162 q 115 -29 115 -103 l 115 706 l 238 706 l 238 -40 z "},"ə":{"ha":764,"x_min":57,"x_max":707,"o":"m 371 725 q 617 624 528 725 q 707 353 707 522 q 667 160 707 244 q 553 28 628 76 q 378 -19 479 -19 q 208 26 281 -19 q 96 156 135 72 q 57 353 57 240 q 60 388 57 368 l 585 388 q 522 569 581 507 q 371 631 463 631 q 256 594 300 631 q 199 497 211 557 l 72 497 q 169 660 92 596 q 371 725 247 725 m 378 75 q 521 135 465 75 q 583 300 576 194 l 179 300 q 240 133 186 192 q 378 75 294 75 z "},"ʼ":{"ha":329,"x_min":93,"x_max":233,"o":"m 167 653 l 93 653 l 142 839 l 96 839 l 96 989 l 233 989 l 233 839 l 167 653 z "},"ˆ":{"ha":590,"x_min":69,"x_max":521,"o":"m 296 919 l 193 790 l 69 790 l 228 989 l 363 989 l 521 790 l 397 790 l 296 919 z "},"ˇ":{"ha":590,"x_min":69,"x_max":521,"o":"m 228 790 l 69 989 l 193 989 l 296 860 l 397 989 l 521 989 l 363 790 l 228 790 z "},"ˉ":{"ha":533,"x_min":69,"x_max":464,"o":"m 69 856 l 69 944 l 464 944 l 464 856 l 69 856 z "},"˘":{"ha":571,"x_min":69,"x_max":501,"o":"m 501 989 q 438 842 494 894 q 286 790 382 790 q 133 842 190 790 q 69 989 76 894 l 161 989 q 200 906 167 935 q 286 876 233 876 q 372 906 339 876 q 411 989 404 935 l 501 989 z "},"˙":{"ha":261,"x_min":69,"x_max":192,"o":"m 69 851 l 69 989 l 192 989 l 192 851 l 69 851 z "},"˚":{"ha":418,"x_min":69,"x_max":349,"o":"m 208 1064 q 308 1023 267 1064 q 349 925 349 982 q 308 826 349 867 q 208 785 267 785 q 110 826 151 785 q 69 925 69 867 q 110 1023 69 982 q 208 1064 151 1064 m 208 1006 q 153 982 176 1006 q 129 925 129 958 q 153 868 129 892 q 208 844 176 844 q 266 867 243 844 q 289 925 289 890 q 266 982 289 958 q 208 1006 243 1006 z "},"˛":{"ha":358,"x_min":69,"x_max":289,"o":"m 285 0 q 203 -76 226 -43 q 179 -142 179 -108 q 235 -192 179 -192 q 289 -182 265 -192 l 289 -256 q 207 -269 254 -269 q 103 -240 138 -269 q 69 -158 69 -211 q 96 -76 69 -112 q 182 3 122 -39 l 285 0 z "},"˜":{"ha":618,"x_min":69,"x_max":549,"o":"m 549 981 q 507 863 544 904 q 408 821 469 821 q 352 831 378 821 q 294 861 326 842 q 248 885 264 878 q 214 892 232 892 q 150 821 157 892 l 69 821 q 111 939 74 897 q 210 981 149 981 q 266 970 240 981 q 324 940 292 960 q 370 917 354 924 q 404 910 386 910 q 468 981 460 910 l 549 981 z "},"˝":{"ha":653,"x_min":69,"x_max":583,"o":"m 69 790 l 217 989 l 361 989 l 172 790 l 69 790 m 292 790 l 439 989 l 583 989 l 394 790 l 292 790 z "},"̒":{"ha":0,"x_min":69,"x_max":199,"o":"m 193 933 l 193 810 l 69 810 l 69 933 l 146 1076 l 199 1076 l 146 933 l 193 933 z "},"̦":{"ha":0,"x_min":69,"x_max":199,"o":"m 122 -357 l 69 -357 l 122 -214 l 75 -214 l 75 -90 l 199 -90 l 199 -214 l 122 -357 z "},"̳":{"ha":0,"x_min":-694,"x_max":0,"o":"m -694 -137 l -694 -69 l 0 -69 l 0 -137 l -694 -137 m -694 -317 l -694 -249 l 0 -249 l 0 -317 l -694 -317 z "},"ʹ":{"ha":250,"x_min":42,"x_max":208,"o":"m 42 706 l 90 989 l 208 989 l 121 706 l 42 706 z "},"͵":{"ha":250,"x_min":42,"x_max":208,"o":"m 42 -128 l 90 156 l 208 156 l 121 -128 l 42 -128 z "},";":{"ha":314,"x_min":79,"x_max":232,"o":"m 82 543 l 82 706 l 232 706 l 232 543 l 82 543 m 160 -200 l 79 -200 l 132 0 l 82 0 l 82 163 l 232 163 l 232 0 l 160 -200 z "},"΄":{"ha":317,"x_min":68,"x_max":249,"o":"m 68 794 l 125 1017 l 249 1017 l 164 794 l 68 794 z "},"΅":{"ha":636,"x_min":69,"x_max":567,"o":"m 244 794 l 294 999 l 401 999 l 333 794 l 244 794 m 69 814 l 69 953 l 178 953 l 178 814 l 69 814 m 458 814 l 458 953 l 567 953 l 567 814 l 458 814 z "},"Ά":{"ha":938,"x_min":7,"x_max":932,"o":"m 251 294 l 143 0 l 7 0 l 382 989 l 556 989 l 932 0 l 794 0 l 688 294 l 251 294 m 614 497 q 471 900 529 731 l 468 900 q 325 497 410 731 l 292 407 l 646 407 l 614 497 m 63 711 l 119 989 l 243 989 l 158 711 l 63 711 z "},"·":{"ha":314,"x_min":82,"x_max":232,"o":"m 82 543 l 82 706 l 232 706 l 232 543 l 82 543 z "},"Έ":{"ha":858,"x_min":-132,"x_max":785,"o":"m 260 875 l 260 563 l 740 563 l 740 450 l 260 450 l 260 114 l 785 114 l 785 0 l 132 0 l 132 989 l 769 989 l 769 875 l 260 875 m -132 711 l -75 989 l 49 989 l -36 711 l -132 711 z "},"Ή":{"ha":1024,"x_min":-132,"x_max":893,"o":"m 764 0 l 764 457 l 260 457 l 260 0 l 132 0 l 132 989 l 260 989 l 260 569 l 764 569 l 764 989 l 893 989 l 893 0 l 764 0 m -132 711 l -75 989 l 49 989 l -36 711 l -132 711 z "},"Ί":{"ha":392,"x_min":-132,"x_max":260,"o":"m 132 0 l 132 989 l 260 989 l 260 0 l 132 0 m -132 711 l -75 989 l 49 989 l -36 711 l -132 711 z "},"Ό":{"ha":1017,"x_min":-83,"x_max":957,"o":"m 508 1008 q 576 1008 508 1008 q 746 946 644 1008 q 902 767 847 883 q 957 494 957 651 q 902 222 957 338 q 746 43 847 106 q 508 -19 644 -19 q 271 43 372 -19 q 115 222 169 106 q 60 494 60 338 q 115 767 60 651 q 271 946 169 883 q 508 1008 372 1008 m 508 892 q 460 892 508 892 q 341 843 413 892 q 231 705 269 794 q 193 494 193 615 q 231 284 193 374 q 341 146 269 194 q 508 97 413 97 q 676 146 604 97 q 785 284 747 194 q 824 494 824 374 q 785 705 824 615 q 676 843 747 794 q 508 892 604 892 m -83 711 l -26 989 l 97 989 l 13 711 l -83 711 z "},"Ύ":{"ha":853,"x_min":-214,"x_max":847,"o":"m 490 0 l 363 0 l 363 410 l 6 989 l 154 989 l 275 785 q 425 524 346 665 l 428 524 q 578 785 507 665 l 700 989 l 847 989 l 490 410 l 490 0 m -214 711 l -157 989 l -33 989 l -118 711 l -214 711 z "},"Ώ":{"ha":1013,"x_min":-92,"x_max":960,"o":"m 506 1008 q 825 897 706 1008 q 944 571 944 786 q 887 331 944 438 q 724 115 829 224 l 724 113 l 960 113 l 960 0 l 593 0 l 593 117 q 755 327 699 225 q 811 557 811 429 q 728 806 811 721 q 506 892 644 892 q 285 806 368 892 q 201 557 201 721 q 258 327 201 429 q 419 117 314 225 l 419 0 l 53 0 l 53 113 l 289 113 l 289 115 q 126 331 183 224 q 68 571 68 438 q 188 897 68 786 q 506 1008 307 1008 m -92 711 l -35 989 l 89 989 l 4 711 l -92 711 z "},"ΐ":{"ha":386,"x_min":-85,"x_max":413,"o":"m 224 228 q 246 126 224 157 q 321 96 268 96 q 371 103 350 96 l 371 3 q 294 -7 335 -7 q 147 45 193 -7 q 101 215 101 97 l 101 706 l 224 706 l 224 228 m 90 794 l 140 999 l 247 999 l 179 794 l 90 794 m -85 814 l -85 953 l 24 953 l 24 814 l -85 814 m 304 814 l 304 953 l 413 953 l 413 814 l 304 814 z "},"Α":{"ha":938,"x_min":7,"x_max":932,"o":"m 251 294 l 143 0 l 7 0 l 382 989 l 556 989 l 932 0 l 794 0 l 688 294 l 251 294 m 614 497 q 471 900 529 731 l 468 900 q 325 497 410 731 l 292 407 l 646 407 l 614 497 z "},"Β":{"ha":871,"x_min":132,"x_max":810,"o":"m 454 989 q 703 922 619 989 q 788 738 788 854 q 746 595 788 654 q 624 507 704 536 l 624 504 q 761 423 713 483 q 810 272 810 363 q 722 74 810 147 q 481 0 635 0 l 132 0 l 132 989 l 454 989 m 260 557 l 444 557 q 661 719 661 557 q 610 840 661 800 q 450 881 560 881 l 260 881 l 260 557 m 260 108 l 463 108 q 678 279 678 108 q 444 450 678 450 l 260 450 l 260 108 z "},"Γ":{"ha":678,"x_min":132,"x_max":664,"o":"m 132 989 l 664 989 l 664 875 l 260 875 l 260 0 l 132 0 l 132 989 z "},"Δ":{"ha":938,"x_min":7,"x_max":932,"o":"m 7 0 l 383 989 l 557 989 l 932 0 l 7 0 m 613 497 q 469 900 528 731 l 467 900 q 324 497 408 731 l 183 114 l 753 114 l 613 497 z "},"Ε":{"ha":858,"x_min":132,"x_max":785,"o":"m 260 875 l 260 563 l 740 563 l 740 450 l 260 450 l 260 114 l 785 114 l 785 0 l 132 0 l 132 989 l 769 989 l 769 875 l 260 875 z "},"Ζ":{"ha":786,"x_min":25,"x_max":761,"o":"m 175 115 l 175 113 l 761 113 l 761 0 l 25 0 l 25 122 l 585 874 l 585 876 l 40 876 l 40 989 l 735 989 l 735 867 l 175 115 z "},"Η":{"ha":1024,"x_min":132,"x_max":893,"o":"m 764 0 l 764 457 l 260 457 l 260 0 l 132 0 l 132 989 l 260 989 l 260 569 l 764 569 l 764 989 l 893 989 l 893 0 l 764 0 z "},"Θ":{"ha":1017,"x_min":60,"x_max":957,"o":"m 508 1008 q 576 1008 508 1008 q 746 946 644 1008 q 902 767 847 883 q 957 494 957 651 q 902 222 957 338 q 746 43 847 106 q 508 -19 644 -19 q 271 43 372 -19 q 115 222 169 106 q 60 494 60 338 q 115 767 60 651 q 271 946 169 883 q 508 1008 372 1008 m 508 894 q 460 894 508 894 q 340 846 411 894 q 229 707 268 797 q 190 494 190 617 q 229 283 190 374 q 340 144 268 193 q 508 96 411 96 q 677 144 606 96 q 788 283 749 193 q 826 494 826 374 q 788 707 826 617 q 677 846 749 797 q 508 894 606 894 m 308 440 l 308 551 l 707 551 l 707 440 l 308 440 z "},"Ι":{"ha":392,"x_min":132,"x_max":260,"o":"m 132 0 l 132 989 l 260 989 l 260 0 l 132 0 z "},"Κ":{"ha":868,"x_min":132,"x_max":863,"o":"m 863 0 l 692 0 l 263 486 l 260 486 l 260 0 l 132 0 l 132 989 l 260 989 l 260 543 l 263 543 l 661 989 l 822 989 l 390 518 l 863 0 z "},"Λ":{"ha":917,"x_min":7,"x_max":910,"o":"m 768 0 l 596 494 q 486 814 557 606 q 460 893 469 867 l 457 893 q 418 779 435 826 q 322 494 388 686 l 147 0 l 7 0 l 369 989 l 547 989 l 910 0 l 768 0 z "},"Μ":{"ha":1297,"x_min":132,"x_max":1165,"o":"m 1040 0 l 1040 503 q 1043 881 1040 628 l 1040 881 q 924 553 990 736 l 906 503 l 722 0 l 575 0 l 392 503 l 374 553 q 257 881 307 736 l 254 881 q 257 503 257 628 l 257 0 l 132 0 l 132 989 l 338 989 l 517 501 q 647 122 583 314 l 650 122 q 781 501 714 314 l 958 989 l 1165 989 l 1165 0 l 1040 0 z "},"Ν":{"ha":1049,"x_min":132,"x_max":918,"o":"m 729 0 l 494 426 q 256 869 361 665 l 253 869 q 257 396 257 632 l 257 0 l 132 0 l 132 989 l 319 989 l 556 563 q 794 119 696 307 l 797 119 q 793 593 793 357 l 793 989 l 918 989 l 918 0 l 729 0 z "},"Ξ":{"ha":918,"x_min":78,"x_max":840,"o":"m 97 861 l 97 989 l 821 989 l 821 861 l 97 861 m 121 432 l 121 560 l 797 560 l 797 432 l 121 432 m 78 0 l 78 128 l 840 128 l 840 0 l 78 0 z "},"Ο":{"ha":1017,"x_min":60,"x_max":957,"o":"m 508 1008 q 576 1008 508 1008 q 746 946 644 1008 q 902 767 847 883 q 957 494 957 651 q 902 222 957 338 q 746 43 847 106 q 508 -19 644 -19 q 271 43 372 -19 q 115 222 169 106 q 60 494 60 338 q 115 767 60 651 q 271 946 169 883 q 508 1008 372 1008 m 508 892 q 460 892 508 892 q 341 843 413 892 q 231 705 269 794 q 193 494 193 615 q 231 284 193 374 q 341 146 269 194 q 508 97 413 97 q 676 146 604 97 q 785 284 747 194 q 824 494 824 374 q 785 705 824 615 q 676 843 747 794 q 508 892 604 892 z "},"Π":{"ha":1010,"x_min":132,"x_max":879,"o":"m 750 0 l 750 875 l 260 875 l 260 0 l 132 0 l 132 989 l 879 989 l 879 0 l 750 0 z "},"Ρ":{"ha":856,"x_min":132,"x_max":817,"o":"m 471 989 q 728 909 639 989 q 817 690 817 829 q 728 472 817 551 q 471 392 639 392 l 260 392 l 260 0 l 132 0 l 132 989 l 471 989 m 260 503 l 461 503 q 628 552 572 503 q 685 690 685 601 q 628 828 685 779 q 461 878 572 878 l 260 878 l 260 503 z "},"Σ":{"ha":779,"x_min":29,"x_max":753,"o":"m 203 876 l 203 874 l 475 503 l 186 115 l 186 113 l 753 113 l 753 0 l 29 0 l 29 115 l 318 503 l 44 876 l 44 989 l 733 989 l 733 876 l 203 876 z "},"Τ":{"ha":832,"x_min":14,"x_max":818,"o":"m 481 875 l 481 0 l 351 0 l 351 875 l 14 875 l 14 989 l 818 989 l 818 875 l 481 875 z "},"Υ":{"ha":853,"x_min":6,"x_max":847,"o":"m 490 0 l 363 0 l 363 410 l 6 989 l 154 989 l 275 785 q 425 524 346 665 l 428 524 q 578 785 507 665 l 700 989 l 847 989 l 490 410 l 490 0 z "},"Φ":{"ha":1099,"x_min":60,"x_max":1039,"o":"m 613 928 q 926 808 813 918 q 1039 499 1039 699 q 926 190 1039 299 q 613 69 814 81 l 613 -36 l 486 -36 l 486 69 q 172 190 285 81 q 60 501 60 300 q 172 809 60 700 q 486 928 285 918 l 486 1025 l 613 1025 l 613 928 m 486 815 q 269 730 346 810 q 192 501 192 650 q 269 269 192 351 q 486 182 346 188 l 486 815 m 613 182 q 830 269 753 188 q 907 499 907 350 q 830 728 907 647 q 613 815 753 810 l 613 182 z "},"Χ":{"ha":863,"x_min":10,"x_max":853,"o":"m 853 0 l 700 0 l 433 407 l 431 407 l 164 0 l 10 0 l 353 507 l 29 989 l 179 989 l 431 604 l 433 604 l 683 989 l 833 989 l 510 507 l 853 0 z "},"Ψ":{"ha":1085,"x_min":64,"x_max":1021,"o":"m 1021 682 q 922 362 1021 464 q 607 251 822 260 l 607 0 l 478 0 l 478 251 q 164 363 264 260 q 64 682 64 465 l 64 989 l 193 989 l 193 683 q 258 447 193 519 q 478 369 324 375 l 478 989 l 607 989 l 607 369 q 827 447 761 375 q 893 683 893 519 l 893 989 l 1021 989 l 1021 682 z "},"Ω":{"ha":1013,"x_min":53,"x_max":960,"o":"m 506 1008 q 825 897 706 1008 q 944 571 944 786 q 887 331 944 438 q 724 115 829 224 l 724 113 l 960 113 l 960 0 l 593 0 l 593 117 q 755 327 699 225 q 811 557 811 429 q 728 806 811 721 q 506 892 644 892 q 285 806 368 892 q 201 557 201 721 q 258 327 201 429 q 419 117 314 225 l 419 0 l 53 0 l 53 113 l 289 113 l 289 115 q 126 331 183 224 q 68 571 68 438 q 188 897 68 786 q 506 1008 307 1008 z "},"Ϊ":{"ha":392,"x_min":3,"x_max":388,"o":"m 132 0 l 132 989 l 260 989 l 260 0 l 132 0 m 3 1135 l 3 1272 l 117 1272 l 117 1135 l 3 1135 m 274 1135 l 274 1272 l 388 1272 l 388 1135 l 274 1135 z "},"Ϋ":{"ha":853,"x_min":6,"x_max":847,"o":"m 490 0 l 363 0 l 363 410 l 6 989 l 154 989 l 275 785 q 425 524 346 665 l 428 524 q 578 785 507 665 l 700 989 l 847 989 l 490 410 l 490 0 m 233 1076 l 233 1214 l 347 1214 l 347 1076 l 233 1076 m 504 1076 l 504 1214 l 618 1214 l 618 1076 l 504 1076 z "},"ά":{"ha":815,"x_min":57,"x_max":790,"o":"m 353 724 q 484 690 425 724 q 572 597 543 656 l 575 597 q 586 706 578 653 l 707 706 q 692 456 692 611 l 692 200 q 706 113 692 136 q 757 90 721 90 q 790 96 775 90 l 790 4 q 707 -8 753 -8 q 616 19 647 -8 q 575 110 585 47 l 572 110 q 484 17 543 50 q 351 -17 425 -17 q 196 29 263 -17 q 93 159 129 75 q 57 354 57 243 q 93 549 57 465 q 197 678 129 633 q 353 724 264 724 m 383 625 q 239 551 293 625 q 185 354 185 478 q 239 156 185 231 q 383 82 293 82 q 524 156 471 82 q 576 354 576 229 q 524 552 576 479 q 383 625 471 625 m 339 794 l 396 1017 l 519 1017 l 435 794 l 339 794 z "},"έ":{"ha":685,"x_min":63,"x_max":633,"o":"m 339 725 q 544 663 469 725 q 619 493 619 601 l 494 493 q 456 592 494 558 q 343 625 417 625 q 241 597 278 625 q 204 517 204 569 q 249 435 204 465 q 367 404 293 404 l 436 404 l 436 308 l 367 308 q 233 278 279 308 q 188 189 188 249 q 228 110 188 139 q 343 81 269 81 q 507 217 507 81 l 633 217 q 558 42 633 103 q 343 -19 482 -19 q 138 35 214 -19 q 63 186 63 90 q 99 297 63 256 q 204 361 135 339 l 204 364 q 111 426 142 388 q 81 526 81 465 q 150 672 81 618 q 339 725 219 725 m 290 794 l 347 1017 l 471 1017 l 386 794 l 290 794 z "},"ή":{"ha":815,"x_min":25,"x_max":714,"o":"m 463 722 q 649 648 583 722 q 714 431 714 574 l 714 -257 l 592 -257 l 592 419 q 551 574 592 526 q 429 622 510 622 q 299 565 351 622 q 246 406 246 507 l 246 0 l 124 0 l 124 499 q 108 590 124 564 q 60 615 93 615 q 25 610 40 615 l 25 701 q 100 714 68 714 q 189 686 157 714 q 232 593 221 658 l 235 593 q 328 688 269 654 q 463 722 388 722 m 314 794 l 371 1017 l 494 1017 l 410 794 l 314 794 z "},"ί":{"ha":386,"x_min":101,"x_max":371,"o":"m 224 228 q 246 126 224 157 q 321 96 268 96 q 371 103 350 96 l 371 3 q 294 -7 335 -7 q 147 45 193 -7 q 101 215 101 97 l 101 706 l 224 706 l 224 228 m 114 794 l 171 1017 l 294 1017 l 210 794 l 114 794 z "},"ΰ":{"ha":801,"x_min":24,"x_max":722,"o":"m 100 714 q 211 672 176 714 q 246 525 246 631 l 246 256 q 288 123 246 164 q 411 82 329 82 q 600 351 600 82 q 549 706 600 551 l 668 706 q 722 346 722 540 q 645 74 722 168 q 413 -19 568 -19 q 195 45 268 -19 q 122 247 122 110 l 122 500 q 108 589 122 565 q 58 613 94 613 q 24 608 40 613 l 24 701 q 100 714 61 714 m 308 794 l 358 999 l 465 999 l 397 794 l 308 794 m 133 814 l 133 953 l 242 953 l 242 814 l 133 814 m 522 814 l 522 953 l 631 953 l 631 814 l 522 814 z "},"α":{"ha":815,"x_min":57,"x_max":790,"o":"m 353 724 q 484 690 425 724 q 572 597 543 656 l 575 597 q 586 706 578 653 l 707 706 q 692 456 692 611 l 692 200 q 706 113 692 136 q 757 90 721 90 q 790 96 775 90 l 790 4 q 707 -8 753 -8 q 616 19 647 -8 q 575 110 585 47 l 572 110 q 484 17 543 50 q 351 -17 425 -17 q 196 29 263 -17 q 93 159 129 75 q 57 354 57 243 q 93 549 57 465 q 197 678 129 633 q 353 724 264 724 m 383 625 q 239 551 293 625 q 185 354 185 478 q 239 156 185 231 q 383 82 293 82 q 524 156 471 82 q 576 354 576 229 q 524 552 576 479 q 383 625 471 625 z "},"β":{"ha":810,"x_min":108,"x_max":756,"o":"m 414 1008 q 625 942 549 1008 q 701 764 701 876 q 658 617 701 675 q 533 539 614 560 l 533 536 q 696 453 636 518 q 756 269 756 388 q 672 62 756 138 q 442 -14 588 -14 q 311 10 364 -14 q 233 76 258 33 l 231 76 l 231 -257 l 108 -257 l 108 663 q 186 920 108 832 q 414 1008 264 1008 m 417 910 q 275 851 319 910 q 231 665 231 792 l 231 265 q 279 133 231 181 q 424 85 328 85 q 576 136 521 85 q 631 281 631 188 q 565 432 631 383 q 363 481 499 481 l 340 481 l 340 585 l 363 585 q 527 628 472 585 q 582 753 582 672 q 539 868 582 826 q 417 910 496 910 z "},"γ":{"ha":725,"x_min":13,"x_max":706,"o":"m 706 706 q 619 350 685 508 q 425 10 554 192 l 425 -8 q 421 -133 425 -60 q 410 -257 417 -206 l 288 -257 q 299 -133 294 -206 q 303 -8 303 -60 q 267 241 303 96 q 168 507 231 386 q 107 593 135 571 q 44 615 79 615 q 13 611 26 615 l 13 704 q 83 714 42 714 q 181 684 142 714 q 263 572 221 654 q 344 359 311 474 q 388 147 378 244 l 390 147 q 520 419 475 289 q 579 706 565 549 l 706 706 z "},"δ":{"ha":786,"x_min":57,"x_max":728,"o":"m 656 961 l 656 853 q 518 892 590 878 q 379 906 446 906 q 298 892 321 906 q 275 851 275 878 q 315 792 275 821 q 456 711 356 764 q 660 544 593 638 q 728 315 728 451 q 686 138 728 214 q 569 22 644 63 q 393 -19 493 -19 q 217 22 293 -19 q 99 138 140 63 q 57 314 57 213 q 124 533 57 443 q 314 664 190 622 l 314 667 q 217 731 250 706 q 165 788 183 757 q 147 858 147 818 q 365 1003 147 1003 q 656 961 518 1003 m 401 610 q 242 501 299 575 q 185 314 185 426 q 242 144 185 207 q 393 81 299 81 q 544 144 488 81 q 600 317 600 207 q 551 488 600 418 q 401 610 503 557 z "},"ε":{"ha":685,"x_min":63,"x_max":633,"o":"m 339 725 q 544 663 469 725 q 619 493 619 601 l 494 493 q 456 592 494 558 q 343 625 417 625 q 241 597 278 625 q 204 517 204 569 q 249 435 204 465 q 367 404 293 404 l 436 404 l 436 308 l 367 308 q 233 278 279 308 q 188 189 188 249 q 228 110 188 139 q 343 81 269 81 q 507 217 507 81 l 633 217 q 558 42 633 103 q 343 -19 482 -19 q 138 35 214 -19 q 63 186 63 90 q 99 297 63 256 q 204 361 135 339 l 204 364 q 111 426 142 388 q 81 526 81 465 q 150 672 81 618 q 339 725 219 725 z "},"ζ":{"ha":629,"x_min":57,"x_max":611,"o":"m 592 894 q 290 638 397 781 q 183 329 183 494 q 235 183 183 232 q 408 117 286 133 q 565 58 519 103 q 611 -65 611 13 q 576 -201 611 -136 l 472 -201 q 499 -94 499 -149 q 469 -19 499 -46 q 356 15 439 7 q 128 105 200 32 q 57 310 57 178 q 160 630 57 481 q 436 892 263 779 l 436 894 l 93 894 l 93 989 l 592 989 l 592 894 z "},"η":{"ha":815,"x_min":25,"x_max":714,"o":"m 463 722 q 649 648 583 722 q 714 431 714 574 l 714 -257 l 592 -257 l 592 419 q 551 574 592 526 q 429 622 510 622 q 299 565 351 622 q 246 406 246 507 l 246 0 l 124 0 l 124 499 q 108 590 124 564 q 60 615 93 615 q 25 610 40 615 l 25 701 q 100 714 68 714 q 189 686 157 714 q 232 593 221 658 l 235 593 q 328 688 269 654 q 463 722 388 722 z "},"θ":{"ha":825,"x_min":60,"x_max":765,"o":"m 411 1007 q 672 872 579 1007 q 765 494 765 738 q 672 117 765 251 q 411 -18 579 -18 q 152 117 244 -18 q 60 494 60 251 q 152 872 60 738 q 411 1007 244 1007 m 411 910 q 251 813 310 910 q 185 540 192 717 l 640 540 q 574 813 633 717 q 411 910 514 910 m 411 79 q 574 176 514 79 q 640 449 633 272 l 185 449 q 251 176 192 272 q 411 79 310 79 z "},"ι":{"ha":386,"x_min":101,"x_max":371,"o":"m 224 228 q 246 126 224 157 q 321 96 268 96 q 371 103 350 96 l 371 3 q 294 -7 335 -7 q 147 45 193 -7 q 101 215 101 97 l 101 706 l 224 706 l 224 228 z "},"κ":{"ha":725,"x_min":107,"x_max":733,"o":"m 294 300 l 229 226 l 229 0 l 107 0 l 107 706 l 229 706 l 229 374 l 232 374 l 379 543 q 526 678 467 643 q 658 713 585 713 q 708 706 685 713 l 708 601 q 671 607 689 607 q 557 569 613 607 q 413 432 501 532 l 371 386 l 733 0 l 575 0 l 294 300 z "},"λ":{"ha":783,"x_min":-8,"x_max":771,"o":"m 160 997 q 276 972 228 997 q 363 887 324 947 q 446 714 403 826 l 631 228 q 687 119 661 147 q 747 92 713 92 q 771 94 757 92 l 771 0 q 717 -7 746 -7 q 637 8 669 -7 q 577 62 604 22 q 524 176 550 101 l 378 565 l 375 565 l 233 244 l 125 0 l -8 0 l 317 706 q 236 856 275 815 q 136 897 197 897 q 71 886 100 897 l 71 983 q 160 997 104 997 z "},"μ":{"ha":810,"x_min":108,"x_max":792,"o":"m 693 201 q 708 116 693 139 q 758 93 722 93 q 792 97 775 93 l 792 4 q 708 -8 754 -8 q 619 19 650 -8 q 579 106 588 46 l 576 106 q 499 22 551 53 q 379 -10 446 -10 q 231 49 276 -10 l 231 -257 l 108 -257 l 108 706 l 231 706 l 231 288 q 270 134 231 181 q 388 88 310 88 q 519 144 467 88 q 571 303 571 201 l 571 706 l 693 706 l 693 201 z "},"ν":{"ha":710,"x_min":13,"x_max":686,"o":"m 76 713 q 183 670 142 713 q 253 524 224 628 l 378 108 l 381 108 q 526 433 488 315 q 564 650 564 550 q 560 706 564 679 l 681 706 q 686 644 686 678 q 667 486 686 564 q 597 297 647 408 q 447 0 546 185 l 293 0 l 138 488 q 92 587 114 560 q 36 614 69 614 q 13 611 24 614 l 13 701 q 76 713 39 713 z "},"ξ":{"ha":640,"x_min":57,"x_max":621,"o":"m 507 894 q 301 847 372 894 q 229 713 229 800 q 286 604 229 642 q 435 567 343 567 l 560 567 l 560 472 l 451 472 q 250 422 315 472 q 185 285 185 372 q 238 169 185 207 q 418 117 290 131 q 574 60 528 106 q 621 -65 621 14 q 586 -201 621 -136 l 482 -201 q 508 -94 508 -149 q 476 -17 508 -44 q 357 17 444 10 q 131 94 204 31 q 57 271 57 158 q 108 430 57 367 q 263 517 160 493 l 263 519 q 153 587 193 539 q 114 704 114 635 q 146 819 114 771 q 238 892 178 867 l 238 894 l 85 894 l 85 989 l 614 989 l 614 894 l 507 894 z "},"ο":{"ha":785,"x_min":57,"x_max":728,"o":"m 392 725 q 469 725 392 725 q 638 625 547 725 q 728 353 728 525 q 638 81 728 181 q 392 -19 547 -19 q 147 81 236 -19 q 57 353 57 181 q 147 625 57 525 q 392 725 236 725 m 392 625 q 240 552 296 625 q 185 353 185 479 q 240 153 185 226 q 392 81 296 81 q 544 153 489 81 q 600 353 600 226 q 544 552 600 479 q 392 625 489 625 z "},"π":{"ha":906,"x_min":17,"x_max":879,"o":"m 717 608 l 717 218 q 740 118 717 146 q 813 90 764 90 q 854 96 832 90 l 854 3 q 771 -8 821 -8 q 638 40 682 -8 q 594 204 594 89 l 594 608 l 282 608 l 282 0 l 160 0 l 160 608 l 17 608 l 17 706 l 879 706 l 879 608 l 717 608 z "},"ρ":{"ha":803,"x_min":101,"x_max":744,"o":"m 415 725 q 590 680 515 725 q 704 550 664 635 q 744 350 744 465 q 658 83 744 181 q 425 -15 572 -15 q 303 10 354 -15 q 226 81 253 35 l 224 81 l 224 -257 l 101 -257 l 101 353 q 140 549 101 465 q 250 679 179 633 q 415 725 321 725 m 411 624 q 271 551 322 624 q 219 353 219 479 q 271 156 219 228 q 411 85 322 85 q 562 156 507 85 q 617 353 617 226 q 562 551 617 479 q 411 624 507 624 z "},"ς":{"ha":717,"x_min":53,"x_max":688,"o":"m 378 725 q 598 651 518 725 q 688 449 678 576 l 561 449 q 507 578 554 531 q 378 625 460 625 q 233 561 286 625 q 181 383 181 497 q 235 210 181 269 q 410 136 289 151 q 572 71 524 121 q 619 -65 619 21 q 583 -201 619 -133 l 478 -201 q 506 -94 506 -150 q 474 -8 506 -37 q 353 32 442 22 q 53 372 53 67 q 140 632 53 539 q 378 725 226 725 z "},"σ":{"ha":825,"x_min":57,"x_max":808,"o":"m 608 611 l 608 608 q 696 502 665 571 q 726 339 726 433 q 685 149 726 229 q 569 24 644 68 q 392 -19 493 -19 q 215 25 290 -19 q 98 151 139 69 q 57 344 57 233 q 147 609 57 513 q 392 706 238 706 l 808 706 l 808 611 l 608 611 m 392 613 q 240 542 294 613 q 186 346 186 472 q 240 151 186 221 q 392 81 294 81 q 546 151 492 81 q 600 346 600 221 q 546 542 600 472 q 392 613 492 613 z "},"τ":{"ha":649,"x_min":17,"x_max":632,"o":"m 375 611 l 375 218 q 399 118 375 146 q 471 90 422 90 q 513 96 490 90 l 513 3 q 429 -8 479 -8 q 297 40 340 -8 q 253 204 253 89 l 253 611 l 17 611 l 17 706 l 632 706 l 632 611 l 375 611 z "},"υ":{"ha":801,"x_min":24,"x_max":722,"o":"m 100 714 q 211 672 176 714 q 246 525 246 631 l 246 256 q 288 123 246 164 q 411 82 329 82 q 600 351 600 82 q 549 706 600 551 l 668 706 q 722 346 722 540 q 645 74 722 168 q 413 -19 568 -19 q 195 45 268 -19 q 122 247 122 110 l 122 500 q 108 589 122 565 q 58 613 94 613 q 24 608 40 613 l 24 701 q 100 714 61 714 z "},"φ":{"ha":1049,"x_min":57,"x_max":992,"o":"m 992 353 q 992 268 992 353 q 882 85 992 183 q 583 -19 772 -14 l 583 -257 l 465 -257 l 465 -19 q 248 29 340 -17 q 106 158 156 75 q 57 353 57 240 q 106 548 57 465 q 248 676 156 631 q 465 725 340 722 l 465 919 l 583 919 l 583 725 q 882 621 772 719 q 992 353 992 522 m 182 353 q 182 289 182 353 q 256 152 182 225 q 465 76 331 79 l 465 629 q 256 553 331 626 q 182 353 182 481 m 583 76 q 792 153 718 81 q 865 353 865 225 q 792 553 865 481 q 583 629 718 625 l 583 76 z "},"χ":{"ha":794,"x_min":13,"x_max":779,"o":"m 96 719 q 222 685 176 719 q 308 556 268 650 l 404 331 l 407 331 l 640 706 l 778 706 l 471 222 l 588 -43 q 651 -143 621 -119 q 726 -167 681 -167 q 779 -161 746 -167 l 779 -253 q 694 -265 740 -265 q 574 -230 619 -265 q 486 -99 528 -194 l 394 115 l 392 115 l 151 -257 l 14 -257 l 331 221 l 208 496 q 146 597 175 572 q 65 621 117 621 q 13 613 35 621 l 13 704 q 96 719 47 719 z "},"ψ":{"ha":1067,"x_min":101,"x_max":986,"o":"m 986 350 q 891 86 986 179 q 601 -14 796 -7 l 601 -257 l 479 -257 l 479 -14 q 197 68 293 -8 q 101 303 101 144 l 101 706 l 224 706 l 224 318 q 288 147 224 203 q 479 85 351 92 l 479 919 l 601 919 l 601 86 q 864 358 864 99 q 808 706 864 556 l 929 706 q 986 350 986 547 z "},"ω":{"ha":1085,"x_min":81,"x_max":1004,"o":"m 914 706 q 981 517 958 618 q 1004 311 1004 417 q 942 67 1004 151 q 751 -18 881 -18 q 543 114 588 -18 l 542 114 q 333 -18 497 -18 q 142 67 204 -18 q 81 311 81 151 q 103 517 81 417 q 171 706 126 618 l 299 706 q 231 524 254 621 q 207 324 207 426 q 354 81 207 81 q 482 246 482 81 l 482 531 l 604 531 l 604 246 q 731 81 604 81 q 879 324 879 81 q 856 524 879 426 q 788 706 832 621 l 914 706 z "},"ϊ":{"ha":386,"x_min":-29,"x_max":371,"o":"m 224 228 q 246 126 224 157 q 321 96 268 96 q 371 103 350 96 l 371 3 q 294 -7 335 -7 q 147 45 193 -7 q 101 215 101 97 l 101 706 l 224 706 l 224 228 m -29 851 l -29 989 l 85 989 l 85 851 l -29 851 m 242 851 l 242 989 l 356 989 l 356 851 l 242 851 z "},"ϋ":{"ha":801,"x_min":24,"x_max":722,"o":"m 100 714 q 211 672 176 714 q 246 525 246 631 l 246 256 q 288 123 246 164 q 411 82 329 82 q 600 351 600 82 q 549 706 600 551 l 668 706 q 722 346 722 540 q 645 74 722 168 q 413 -19 568 -19 q 195 45 268 -19 q 122 247 122 110 l 122 500 q 108 589 122 565 q 58 613 94 613 q 24 608 40 613 l 24 701 q 100 714 61 714 m 189 851 l 189 989 l 303 989 l 303 851 l 189 851 m 460 851 l 460 989 l 574 989 l 574 851 l 460 851 z "},"ό":{"ha":785,"x_min":57,"x_max":728,"o":"m 392 725 q 469 725 392 725 q 638 625 547 725 q 728 353 728 525 q 638 81 728 181 q 392 -19 547 -19 q 147 81 236 -19 q 57 353 57 181 q 147 625 57 525 q 392 725 236 725 m 392 625 q 240 552 296 625 q 185 353 185 479 q 240 153 185 226 q 392 81 296 81 q 544 153 489 81 q 600 353 600 226 q 544 552 600 479 q 392 625 489 625 m 343 794 l 400 1017 l 524 1017 l 439 794 l 343 794 z "},"ύ":{"ha":801,"x_min":24,"x_max":722,"o":"m 100 714 q 211 672 176 714 q 246 525 246 631 l 246 256 q 288 123 246 164 q 411 82 329 82 q 600 351 600 82 q 549 706 600 551 l 668 706 q 722 346 722 540 q 645 74 722 168 q 413 -19 568 -19 q 195 45 268 -19 q 122 247 122 110 l 122 500 q 108 589 122 565 q 58 613 94 613 q 24 608 40 613 l 24 701 q 100 714 61 714 m 332 794 l 389 1017 l 513 1017 l 428 794 l 332 794 z "},"ώ":{"ha":1085,"x_min":81,"x_max":1004,"o":"m 914 706 q 981 517 958 618 q 1004 311 1004 417 q 942 67 1004 151 q 751 -18 881 -18 q 543 114 588 -18 l 542 114 q 333 -18 497 -18 q 142 67 204 -18 q 81 311 81 151 q 103 517 81 417 q 171 706 126 618 l 299 706 q 231 524 254 621 q 207 324 207 426 q 354 81 207 81 q 482 246 482 81 l 482 531 l 604 531 l 604 246 q 731 81 604 81 q 879 324 879 81 q 856 524 879 426 q 788 706 832 621 l 914 706 m 493 794 l 550 1017 l 674 1017 l 589 794 l 493 794 z "},"Ѐ":{"ha":858,"x_min":132,"x_max":785,"o":"m 260 875 l 260 563 l 740 563 l 740 450 l 260 450 l 260 114 l 785 114 l 785 0 l 132 0 l 132 989 l 769 989 l 769 875 l 260 875 m 543 1056 l 438 1056 l 267 1247 l 424 1247 l 543 1056 z "},"Ё":{"ha":858,"x_min":132,"x_max":785,"o":"m 260 875 l 260 563 l 740 563 l 740 450 l 260 450 l 260 114 l 785 114 l 785 0 l 132 0 l 132 989 l 769 989 l 769 875 l 260 875 m 258 1076 l 258 1214 l 372 1214 l 372 1076 l 258 1076 m 529 1076 l 529 1214 l 643 1214 l 643 1076 l 529 1076 z "},"Ђ":{"ha":1075,"x_min":14,"x_max":1036,"o":"m 481 875 l 481 578 q 700 629 579 629 q 949 544 861 629 q 1036 306 1036 458 q 947 72 1036 158 q 703 -15 857 -15 q 582 0 631 -15 l 582 113 q 692 97 628 97 q 851 153 794 97 q 908 306 908 208 q 851 463 908 408 q 686 517 794 517 q 481 465 571 517 l 481 0 l 351 0 l 351 875 l 14 875 l 14 989 l 818 989 l 818 875 l 481 875 z "},"Ѓ":{"ha":678,"x_min":132,"x_max":664,"o":"m 132 989 l 664 989 l 664 875 l 260 875 l 260 0 l 132 0 l 132 989 m 304 1056 l 424 1247 l 581 1247 l 410 1056 l 304 1056 z "},"Є":{"ha":963,"x_min":60,"x_max":896,"o":"m 896 340 q 774 77 881 174 q 493 -19 667 -19 q 262 42 360 -19 q 112 220 164 104 q 60 494 60 336 q 113 769 60 653 q 263 947 165 885 q 496 1008 361 1008 q 700 963 613 1008 q 837 838 788 918 q 892 654 886 757 l 760 654 q 678 828 749 764 q 496 892 607 892 q 287 801 367 892 q 196 551 207 711 l 635 551 l 635 439 l 194 439 q 285 188 207 278 q 493 97 364 97 q 675 163 603 97 q 763 340 747 228 l 896 340 z "},"Ѕ":{"ha":846,"x_min":54,"x_max":778,"o":"m 400 1008 q 665 926 576 1008 q 754 683 754 844 l 625 683 q 567 845 625 792 q 399 899 510 899 q 255 857 307 899 q 203 744 203 815 q 228 662 203 693 q 302 610 253 631 q 442 568 351 590 q 624 511 556 540 q 735 425 693 482 q 778 272 778 368 q 734 119 778 185 q 610 17 690 53 q 424 -19 531 -19 q 151 69 249 -19 q 54 328 54 158 l 186 328 q 249 149 186 208 q 425 90 311 90 q 588 136 531 90 q 646 265 646 182 q 620 350 646 318 q 545 401 594 382 q 404 443 496 419 q 222 501 290 471 q 113 586 154 531 q 72 736 72 642 q 113 877 72 815 q 227 974 153 939 q 400 1008 301 1008 z "},"І":{"ha":392,"x_min":132,"x_max":260,"o":"m 132 0 l 132 989 l 260 989 l 260 0 l 132 0 z "},"Ї":{"ha":392,"x_min":3,"x_max":388,"o":"m 132 0 l 132 989 l 260 989 l 260 0 l 132 0 m 3 1076 l 3 1214 l 117 1214 l 117 1076 l 3 1076 m 274 1076 l 274 1214 l 388 1214 l 388 1076 l 274 1076 z "},"Ј":{"ha":494,"x_min":21,"x_max":369,"o":"m 90 -7 q 21 1 49 -7 l 21 115 q 81 108 58 108 q 202 153 163 108 q 242 300 242 197 l 242 989 l 369 989 l 369 283 q 90 -7 369 -7 z "},"Љ":{"ha":1447,"x_min":17,"x_max":1408,"o":"m 1063 597 q 1319 517 1231 597 q 1408 299 1408 438 q 1319 80 1408 160 q 1063 0 1231 0 l 722 0 l 722 875 l 365 875 q 326 315 357 503 q 235 60 294 128 q 67 -7 175 -7 q 17 0 38 -7 l 17 107 q 42 104 28 104 q 156 169 117 104 q 214 420 194 235 q 242 989 233 606 l 851 989 l 851 597 l 1063 597 m 851 111 l 1053 111 q 1220 160 1164 111 q 1276 299 1276 210 q 1220 437 1276 388 q 1053 486 1164 486 l 851 486 l 851 111 z "},"Њ":{"ha":1489,"x_min":132,"x_max":1450,"o":"m 1104 597 q 1361 517 1272 597 q 1450 299 1450 438 q 1361 80 1450 160 q 1104 0 1272 0 l 764 0 l 764 469 l 260 469 l 260 0 l 132 0 l 132 989 l 260 989 l 260 583 l 764 583 l 764 989 l 893 989 l 893 597 l 1104 597 m 1094 111 q 1262 160 1206 111 q 1318 299 1318 210 q 1262 437 1318 388 q 1094 486 1206 486 l 893 486 l 893 111 l 1094 111 z "},"Ћ":{"ha":1072,"x_min":14,"x_max":1022,"o":"m 719 603 q 944 526 867 603 q 1022 306 1022 449 l 1022 0 l 894 0 l 894 288 q 843 438 894 386 q 694 490 792 490 q 481 457 576 490 l 481 0 l 351 0 l 351 875 l 14 875 l 14 989 l 818 989 l 818 875 l 481 875 l 481 568 q 719 603 586 603 z "},"Ќ":{"ha":868,"x_min":132,"x_max":863,"o":"m 863 0 l 692 0 l 263 486 l 260 486 l 260 0 l 132 0 l 132 989 l 260 989 l 260 543 l 263 543 l 661 989 l 822 989 l 390 518 l 863 0 m 354 1056 l 474 1247 l 631 1247 l 460 1056 l 354 1056 z "},"Ѝ":{"ha":1049,"x_min":132,"x_max":918,"o":"m 257 593 q 253 119 257 357 l 256 119 q 494 563 361 324 l 729 989 l 918 989 l 918 0 l 793 0 l 793 396 q 797 869 793 632 l 794 869 q 556 426 696 682 l 319 0 l 132 0 l 132 989 l 257 989 l 257 593 m 613 1056 l 507 1056 l 336 1247 l 493 1247 l 613 1056 z "},"Ў":{"ha":901,"x_min":7,"x_max":896,"o":"m 501 189 q 383 35 447 81 q 231 -11 318 -11 q 140 0 178 -11 l 140 111 q 208 103 168 103 q 308 132 268 103 q 381 231 349 161 l 7 989 l 147 989 l 296 671 q 449 342 399 451 l 451 342 q 604 669 518 486 l 756 989 l 896 989 l 501 189 m 667 1247 q 603 1101 660 1153 q 451 1050 547 1050 q 298 1101 354 1050 q 235 1247 242 1153 l 326 1247 q 365 1165 332 1194 q 451 1136 399 1136 q 537 1165 504 1136 q 576 1247 569 1194 l 667 1247 z "},"Џ":{"ha":1010,"x_min":132,"x_max":879,"o":"m 564 0 l 564 -222 l 442 -222 l 442 0 l 132 0 l 132 989 l 260 989 l 260 114 l 750 114 l 750 989 l 879 989 l 879 0 l 564 0 z "},"А":{"ha":938,"x_min":7,"x_max":932,"o":"m 251 294 l 143 0 l 7 0 l 382 989 l 556 989 l 932 0 l 794 0 l 688 294 l 251 294 m 614 497 q 471 900 529 731 l 468 900 q 325 497 410 731 l 292 407 l 646 407 l 614 497 z "},"Б":{"ha":878,"x_min":132,"x_max":822,"o":"m 260 878 l 260 582 l 493 582 q 735 503 649 582 q 822 290 822 425 q 735 78 822 156 q 493 0 649 0 l 132 0 l 132 989 l 764 989 l 764 878 l 260 878 m 260 111 l 469 111 q 633 158 576 111 q 689 290 689 204 q 633 424 689 376 q 469 471 576 471 l 260 471 l 260 111 z "},"В":{"ha":871,"x_min":132,"x_max":810,"o":"m 454 989 q 703 922 619 989 q 788 738 788 854 q 746 595 788 654 q 624 507 704 536 l 624 504 q 761 423 713 483 q 810 272 810 363 q 722 74 810 147 q 481 0 635 0 l 132 0 l 132 989 l 454 989 m 260 557 l 444 557 q 661 719 661 557 q 610 840 661 800 q 450 881 560 881 l 260 881 l 260 557 m 260 108 l 463 108 q 678 279 678 108 q 444 450 678 450 l 260 450 l 260 108 z "},"Г":{"ha":678,"x_min":132,"x_max":664,"o":"m 132 989 l 664 989 l 664 875 l 260 875 l 260 0 l 132 0 l 132 989 z "},"Д":{"ha":1015,"x_min":24,"x_max":986,"o":"m 986 -222 l 864 -222 l 864 0 l 146 0 l 146 -222 l 24 -222 l 24 114 l 124 114 q 202 398 174 203 q 238 989 231 593 l 872 989 l 872 114 l 986 114 l 986 -222 m 361 875 q 329 395 354 576 q 264 114 304 214 l 743 114 l 743 875 l 361 875 z "},"Е":{"ha":858,"x_min":132,"x_max":785,"o":"m 260 875 l 260 563 l 740 563 l 740 450 l 260 450 l 260 114 l 785 114 l 785 0 l 132 0 l 132 989 l 769 989 l 769 875 l 260 875 z "},"Ж":{"ha":1218,"x_min":7,"x_max":1211,"o":"m 1211 0 l 1053 0 l 675 503 l 672 503 l 672 0 l 546 0 l 546 503 l 543 503 l 164 0 l 7 0 l 411 518 l 44 989 l 199 989 l 543 526 l 546 526 l 546 989 l 672 989 l 672 526 l 675 526 l 1019 989 l 1174 989 l 807 518 l 1211 0 z "},"З":{"ha":853,"x_min":47,"x_max":792,"o":"m 421 1007 q 678 935 585 1007 q 772 738 772 863 q 727 594 772 649 q 593 508 682 540 l 593 506 q 742 417 692 475 q 792 260 792 358 q 747 113 792 176 q 618 15 701 50 q 424 -19 535 -19 q 146 64 244 -19 q 47 297 47 147 l 185 297 q 246 147 185 199 q 424 94 307 94 q 592 140 531 94 q 653 264 653 186 q 585 397 653 351 q 389 443 517 443 l 315 443 l 315 554 l 389 554 q 569 601 503 554 q 635 726 635 647 q 576 848 635 803 q 415 893 517 893 q 252 843 310 893 q 194 696 194 793 l 57 696 q 154 924 57 842 q 421 1007 251 1007 z "},"И":{"ha":1049,"x_min":132,"x_max":918,"o":"m 257 593 q 253 119 257 357 l 256 119 q 494 563 361 324 l 729 989 l 918 989 l 918 0 l 793 0 l 793 396 q 797 869 793 632 l 794 869 q 556 426 696 682 l 319 0 l 132 0 l 132 989 l 257 989 l 257 593 z "},"Й":{"ha":1049,"x_min":132,"x_max":918,"o":"m 257 593 q 253 119 257 357 l 256 119 q 494 563 361 324 l 729 989 l 918 989 l 918 0 l 793 0 l 793 396 q 797 869 793 632 l 794 869 q 556 426 696 682 l 319 0 l 132 0 l 132 989 l 257 989 l 257 593 m 736 1247 q 673 1101 729 1153 q 521 1050 617 1050 q 367 1101 424 1050 q 304 1247 311 1153 l 396 1247 q 435 1165 401 1194 q 521 1136 468 1136 q 606 1165 574 1136 q 646 1247 639 1194 l 736 1247 z "},"К":{"ha":868,"x_min":132,"x_max":863,"o":"m 863 0 l 692 0 l 263 486 l 260 486 l 260 0 l 132 0 l 132 989 l 260 989 l 260 543 l 263 543 l 661 989 l 822 989 l 390 518 l 863 0 z "},"Л":{"ha":982,"x_min":17,"x_max":851,"o":"m 722 0 l 722 875 l 365 875 q 326 315 357 503 q 235 60 294 128 q 67 -7 175 -7 q 17 0 38 -7 l 17 107 q 42 104 28 104 q 156 169 117 104 q 214 420 194 235 q 242 989 233 606 l 851 989 l 851 0 l 722 0 z "},"М":{"ha":1297,"x_min":132,"x_max":1165,"o":"m 1040 0 l 1040 503 q 1043 881 1040 628 l 1040 881 q 924 553 990 736 l 906 503 l 722 0 l 575 0 l 392 503 l 374 553 q 257 881 307 736 l 254 881 q 257 503 257 628 l 257 0 l 132 0 l 132 989 l 338 989 l 517 501 q 647 122 583 314 l 650 122 q 781 501 714 314 l 958 989 l 1165 989 l 1165 0 l 1040 0 z "},"Н":{"ha":1024,"x_min":132,"x_max":893,"o":"m 764 0 l 764 457 l 260 457 l 260 0 l 132 0 l 132 989 l 260 989 l 260 569 l 764 569 l 764 989 l 893 989 l 893 0 l 764 0 z "},"О":{"ha":1017,"x_min":60,"x_max":957,"o":"m 508 1008 q 576 1008 508 1008 q 746 946 644 1008 q 902 767 847 883 q 957 494 957 651 q 902 222 957 338 q 746 43 847 106 q 508 -19 644 -19 q 271 43 372 -19 q 115 222 169 106 q 60 494 60 338 q 115 767 60 651 q 271 946 169 883 q 508 1008 372 1008 m 508 892 q 460 892 508 892 q 341 843 413 892 q 231 705 269 794 q 193 494 193 615 q 231 284 193 374 q 341 146 269 194 q 508 97 413 97 q 676 146 604 97 q 785 284 747 194 q 824 494 824 374 q 785 705 824 615 q 676 843 747 794 q 508 892 604 892 z "},"П":{"ha":1010,"x_min":132,"x_max":879,"o":"m 750 0 l 750 875 l 260 875 l 260 0 l 132 0 l 132 989 l 879 989 l 879 0 l 750 0 z "},"Р":{"ha":856,"x_min":132,"x_max":817,"o":"m 471 989 q 728 909 639 989 q 817 690 817 829 q 728 472 817 551 q 471 392 639 392 l 260 392 l 260 0 l 132 0 l 132 989 l 471 989 m 260 503 l 461 503 q 628 552 572 503 q 685 690 685 601 q 628 828 685 779 q 461 878 572 878 l 260 878 l 260 503 z "},"С":{"ha":957,"x_min":60,"x_max":892,"o":"m 493 1008 q 697 963 610 1008 q 832 838 783 918 q 886 654 881 757 l 754 654 q 674 828 744 764 q 493 892 604 892 q 273 785 353 892 q 193 494 193 679 q 272 203 193 310 q 489 97 351 97 q 671 163 599 97 q 758 340 743 228 l 892 340 q 769 77 876 174 q 489 -19 663 -19 q 260 42 357 -19 q 112 220 164 104 q 60 494 60 336 q 112 769 60 653 q 262 947 164 885 q 493 1008 360 1008 z "},"Т":{"ha":832,"x_min":14,"x_max":818,"o":"m 481 875 l 481 0 l 351 0 l 351 875 l 14 875 l 14 989 l 818 989 l 818 875 l 481 875 z "},"У":{"ha":901,"x_min":7,"x_max":896,"o":"m 501 189 q 383 35 447 81 q 231 -11 318 -11 q 140 0 178 -11 l 140 111 q 208 103 168 103 q 308 132 268 103 q 381 231 349 161 l 7 989 l 147 989 l 296 671 q 449 342 399 451 l 451 342 q 604 669 518 486 l 756 989 l 896 989 l 501 189 z "},"Ф":{"ha":1149,"x_min":60,"x_max":1089,"o":"m 1089 494 q 1089 400 1089 494 q 969 195 1089 306 q 638 76 850 85 l 638 -33 l 511 -33 l 511 76 q 179 195 299 85 q 60 494 60 306 q 179 794 60 683 q 511 913 299 904 l 511 1022 l 638 1022 l 638 913 q 969 794 850 904 q 1089 494 1089 683 m 193 494 q 193 427 193 494 q 278 279 193 360 q 511 189 363 199 l 511 800 q 278 710 363 790 q 193 494 193 629 m 638 189 q 871 279 786 199 q 956 494 956 360 q 871 710 956 629 q 638 800 786 790 l 638 189 z "},"Х":{"ha":863,"x_min":10,"x_max":853,"o":"m 853 0 l 700 0 l 433 407 l 431 407 l 164 0 l 10 0 l 353 507 l 29 989 l 179 989 l 431 604 l 433 604 l 683 989 l 833 989 l 510 507 l 853 0 z "},"Ц":{"ha":1026,"x_min":132,"x_max":993,"o":"m 993 114 l 993 -222 l 871 -222 l 871 0 l 132 0 l 132 989 l 260 989 l 260 114 l 750 114 l 750 989 l 879 989 l 879 114 l 993 114 z "},"Ч":{"ha":893,"x_min":50,"x_max":763,"o":"m 633 0 l 633 411 q 379 376 518 376 q 135 453 221 376 q 50 672 50 531 l 50 989 l 179 989 l 179 692 q 237 541 179 593 q 406 489 294 489 q 633 522 529 489 l 633 989 l 763 989 l 763 0 l 633 0 z "},"Ш":{"ha":1417,"x_min":132,"x_max":1286,"o":"m 132 0 l 132 989 l 260 989 l 260 114 l 644 114 l 644 989 l 774 989 l 774 114 l 1158 114 l 1158 989 l 1286 989 l 1286 0 l 132 0 z "},"Щ":{"ha":1429,"x_min":132,"x_max":1400,"o":"m 1400 114 l 1400 -222 l 1278 -222 l 1278 0 l 132 0 l 132 989 l 260 989 l 260 114 l 644 114 l 644 989 l 774 989 l 774 114 l 1158 114 l 1158 989 l 1286 989 l 1286 114 l 1400 114 z "},"Ъ":{"ha":1035,"x_min":14,"x_max":996,"o":"m 650 597 q 907 517 818 597 q 996 299 996 438 q 907 80 996 160 q 650 0 818 0 l 310 0 l 310 875 l 14 875 l 14 989 l 439 989 l 439 597 l 650 597 m 439 111 l 640 111 q 808 160 751 111 q 864 299 864 210 q 808 437 864 388 q 640 486 751 486 l 439 486 l 439 111 z "},"Ы":{"ha":1247,"x_min":132,"x_max":1115,"o":"m 132 989 l 260 989 l 260 597 l 471 597 q 728 517 639 597 q 817 299 817 438 q 728 80 817 160 q 471 0 639 0 l 132 0 l 132 989 m 986 0 l 986 989 l 1115 989 l 1115 0 l 986 0 m 461 111 q 628 160 572 111 q 685 299 685 210 q 628 437 685 388 q 461 486 572 486 l 260 486 l 260 111 l 461 111 z "},"Ь":{"ha":856,"x_min":132,"x_max":817,"o":"m 132 989 l 260 989 l 260 597 l 471 597 q 728 517 639 597 q 817 299 817 438 q 728 80 817 160 q 471 0 639 0 l 132 0 l 132 989 m 461 111 q 628 160 572 111 q 685 299 685 210 q 628 437 685 388 q 461 486 572 486 l 260 486 l 260 111 l 461 111 z "},"Э":{"ha":963,"x_min":67,"x_max":903,"o":"m 467 1008 q 699 947 600 1008 q 850 769 797 885 q 903 494 903 653 q 851 220 903 336 q 701 42 799 104 q 469 -19 603 -19 q 189 77 296 -19 q 67 340 82 174 l 199 340 q 286 163 214 228 q 469 97 358 97 q 677 188 599 97 q 768 439 756 278 l 328 439 l 328 551 l 767 551 q 676 801 756 711 q 467 892 596 892 q 285 828 356 892 q 203 654 214 764 l 71 654 q 125 838 76 757 q 261 963 174 918 q 467 1008 349 1008 z "},"Ю":{"ha":1367,"x_min":132,"x_max":1308,"o":"m 879 1008 q 1106 946 1010 1008 q 1256 767 1203 883 q 1308 494 1308 651 q 1256 222 1308 338 q 1106 43 1203 106 q 879 -19 1010 -19 q 664 36 757 -19 q 516 195 571 92 q 451 439 461 299 l 260 439 l 260 0 l 132 0 l 132 989 l 260 989 l 260 551 l 451 551 q 516 794 461 692 q 664 953 571 897 q 879 1008 757 1008 m 879 97 q 924 97 879 97 q 1035 146 968 97 q 1138 284 1101 194 q 1174 494 1174 374 q 1138 705 1174 615 q 1035 843 1101 794 q 879 892 968 892 q 723 843 790 892 q 619 705 656 794 q 583 494 583 615 q 619 284 583 374 q 723 146 656 194 q 879 97 790 97 z "},"Я":{"ha":874,"x_min":8,"x_max":743,"o":"m 743 0 l 614 0 l 614 413 l 406 413 q 357 414 372 413 l 153 0 l 8 0 l 238 438 q 104 538 149 469 q 60 704 60 606 q 147 914 60 839 q 406 989 233 989 l 743 989 l 743 0 m 417 879 q 249 835 307 879 q 190 704 190 792 q 244 571 190 621 q 407 521 297 521 l 614 521 l 614 879 l 417 879 z "},"а":{"ha":738,"x_min":47,"x_max":654,"o":"m 360 725 q 565 656 492 725 q 638 451 638 588 l 638 181 q 654 0 638 74 l 543 0 q 533 103 533 44 l 531 103 q 432 15 493 46 q 286 -15 371 -15 q 113 42 178 -15 q 47 192 47 100 q 108 337 47 283 q 315 414 168 390 q 519 438 418 431 l 519 465 q 477 590 519 550 q 360 631 435 631 q 243 592 285 631 q 199 490 201 554 l 76 490 q 156 660 82 594 q 360 725 229 725 m 335 322 q 209 281 246 308 q 172 200 172 253 q 210 112 172 144 q 317 79 249 79 q 398 94 360 79 q 463 135 436 108 q 507 203 494 168 q 519 301 519 239 l 519 344 q 335 322 413 336 z "},"б":{"ha":799,"x_min":67,"x_max":738,"o":"m 479 868 q 301 824 365 860 q 207 724 238 789 q 163 546 176 658 l 165 546 q 255 658 194 617 q 411 699 315 699 q 583 656 510 699 q 697 535 657 614 q 738 349 738 456 q 647 79 738 178 q 401 -19 557 -19 q 155 85 243 -19 q 67 381 67 190 q 108 726 67 601 q 233 907 149 851 q 457 974 317 963 q 707 1008 639 990 l 707 900 q 479 868 639 882 m 397 603 q 242 535 290 603 q 193 351 193 467 q 248 152 193 224 q 401 81 303 81 q 555 149 500 81 q 610 339 610 217 q 553 533 610 463 q 397 603 496 603 z "},"в":{"ha":732,"x_min":108,"x_max":669,"o":"m 392 706 q 588 657 521 706 q 654 519 654 608 q 532 363 654 399 l 532 360 q 633 305 596 347 q 669 197 669 263 q 602 51 669 103 q 413 0 535 0 l 108 0 l 108 706 l 392 706 m 228 401 l 375 401 q 531 508 531 401 q 375 615 531 615 l 228 615 l 228 401 m 228 90 l 381 90 q 544 203 544 90 q 381 317 544 317 l 228 317 l 228 90 z "},"г":{"ha":579,"x_min":108,"x_max":561,"o":"m 231 608 l 231 0 l 108 0 l 108 706 l 561 706 l 561 608 l 231 608 z "},"д":{"ha":811,"x_min":15,"x_max":793,"o":"m 793 -222 l 671 -222 l 671 0 l 138 0 l 138 -222 l 15 -222 l 15 97 l 99 97 q 163 290 139 158 q 199 706 188 422 l 697 706 l 697 97 l 793 97 l 793 -222 m 317 608 q 238 97 299 242 l 575 97 l 575 608 l 317 608 z "},"е":{"ha":764,"x_min":57,"x_max":707,"o":"m 389 75 q 513 113 464 75 q 575 211 563 150 l 700 211 q 599 47 681 113 q 389 -19 518 -19 q 211 28 286 -19 q 97 161 136 75 q 57 363 57 247 q 97 549 57 467 q 210 678 136 632 q 385 725 285 725 q 584 660 503 725 q 693 479 665 594 q 707 328 707 422 l 179 328 q 241 139 183 203 q 389 75 299 75 m 385 631 q 244 576 299 631 q 181 421 190 521 l 586 421 q 522 576 576 522 q 385 631 468 631 z "},"ж":{"ha":956,"x_min":-12,"x_max":968,"o":"m 810 0 l 540 371 l 538 371 l 538 0 l 418 0 l 418 371 l 415 371 l 146 0 l -12 0 l 290 386 l 21 706 l 169 706 l 415 396 l 418 396 l 418 706 l 538 706 l 538 396 l 540 396 l 786 706 l 935 706 l 665 386 l 968 0 l 810 0 z "},"з":{"ha":681,"x_min":47,"x_max":618,"o":"m 340 725 q 530 672 460 725 q 600 526 600 618 q 569 426 600 465 q 476 364 539 388 l 476 361 q 582 297 546 339 q 618 186 618 256 q 542 35 618 90 q 338 -19 467 -19 q 123 42 199 -19 q 47 217 47 103 l 174 217 q 338 81 174 81 q 451 110 410 81 q 493 189 493 139 q 447 278 493 247 q 314 308 401 308 l 243 308 l 243 404 l 314 404 q 432 435 388 404 q 476 517 476 465 q 439 597 476 569 q 336 625 401 625 q 225 592 264 625 q 186 493 186 558 l 61 493 q 136 663 61 601 q 340 725 211 725 z "},"и":{"ha":864,"x_min":108,"x_max":756,"o":"m 631 0 l 631 272 q 635 589 631 431 l 632 589 q 468 296 574 479 l 294 0 l 108 0 l 108 706 l 233 706 l 233 433 q 229 117 233 275 l 232 117 q 396 410 294 239 l 569 706 l 756 706 l 756 0 l 631 0 z "},"й":{"ha":864,"x_min":108,"x_max":756,"o":"m 631 0 l 631 272 q 635 589 631 431 l 632 589 q 468 296 574 479 l 294 0 l 108 0 l 108 706 l 233 706 l 233 433 q 229 117 233 275 l 232 117 q 396 410 294 239 l 569 706 l 756 706 l 756 0 l 631 0 m 649 989 q 585 842 642 894 q 433 790 529 790 q 281 842 338 790 q 217 989 224 894 l 308 989 q 347 906 314 935 q 433 876 381 876 q 519 906 486 876 q 558 989 551 935 l 649 989 z "},"к":{"ha":718,"x_min":108,"x_max":707,"o":"m 546 0 l 233 353 l 231 353 l 231 0 l 108 0 l 108 706 l 231 706 l 231 413 l 233 413 l 518 706 l 669 706 l 353 386 l 707 0 l 546 0 z "},"л":{"ha":765,"x_min":8,"x_max":657,"o":"m 535 0 l 535 608 l 296 608 q 265 222 290 354 q 191 42 239 89 q 60 -6 143 -6 q 8 0 29 -6 l 8 93 q 36 90 22 90 q 117 136 89 90 q 161 313 146 182 q 181 706 176 443 l 657 706 l 657 0 l 535 0 z "},"м":{"ha":1067,"x_min":108,"x_max":958,"o":"m 840 0 l 840 343 q 843 606 840 431 l 842 606 l 817 540 q 783 449 806 510 q 740 342 760 389 l 607 0 l 460 0 l 325 342 l 314 368 l 225 606 l 222 606 q 225 343 225 431 l 225 0 l 108 0 l 108 706 l 306 706 l 432 381 q 532 110 483 250 l 535 110 q 633 381 592 276 l 761 706 l 958 706 l 958 0 l 840 0 z "},"н":{"ha":818,"x_min":108,"x_max":710,"o":"m 588 0 l 588 306 l 231 306 l 231 0 l 108 0 l 108 706 l 231 706 l 231 403 l 588 403 l 588 706 l 710 706 l 710 0 l 588 0 z "},"о":{"ha":785,"x_min":57,"x_max":728,"o":"m 392 725 q 469 725 392 725 q 638 625 547 725 q 728 353 728 525 q 638 81 728 181 q 392 -19 547 -19 q 147 81 236 -19 q 57 353 57 181 q 147 625 57 525 q 392 725 236 725 m 392 625 q 240 552 296 625 q 185 353 185 479 q 240 153 185 226 q 392 81 296 81 q 544 153 489 81 q 600 353 600 226 q 544 552 600 479 q 392 625 489 625 z "},"п":{"ha":807,"x_min":108,"x_max":699,"o":"m 576 0 l 576 608 l 231 608 l 231 0 l 108 0 l 108 706 l 699 706 l 699 0 l 576 0 z "},"р":{"ha":800,"x_min":108,"x_max":743,"o":"m 447 724 q 603 678 536 724 q 707 549 671 633 q 743 354 743 465 q 707 159 743 243 q 604 29 671 75 q 449 -17 538 -17 q 320 15 378 -17 q 233 100 263 46 l 231 100 l 231 -257 l 108 -257 l 108 706 l 229 706 l 229 604 l 232 604 q 318 692 260 660 q 447 724 376 724 m 417 625 q 277 552 329 625 q 225 354 225 479 q 277 156 225 229 q 417 82 329 82 q 561 156 507 82 q 615 354 615 231 q 561 551 615 478 q 417 625 507 625 z "},"с":{"ha":742,"x_min":57,"x_max":690,"o":"m 389 725 q 538 691 472 725 q 644 596 604 657 q 690 456 683 535 l 563 456 q 508 578 556 531 q 388 625 460 625 q 240 552 294 625 q 186 353 186 479 q 240 153 186 226 q 388 81 293 81 q 508 131 460 81 q 563 260 556 182 l 690 260 q 644 116 683 179 q 540 17 606 53 q 389 -19 474 -19 q 213 26 288 -19 q 97 155 138 71 q 57 353 57 239 q 97 551 57 467 q 213 680 138 635 q 389 725 288 725 z "},"т":{"ha":626,"x_min":10,"x_max":617,"o":"m 376 608 l 376 0 l 251 0 l 251 608 l 10 608 l 10 706 l 617 704 l 617 608 l 376 608 z "},"у":{"ha":656,"x_min":-8,"x_max":664,"o":"m 381 -32 q 308 -173 346 -124 q 219 -242 269 -222 q 90 -262 168 -262 q 26 -256 49 -262 l 26 -153 q 85 -161 51 -161 q 162 -147 132 -161 q 214 -100 192 -133 q 260 -3 236 -67 l -8 706 l 124 706 l 326 144 l 329 144 l 535 706 l 664 706 l 381 -32 z "},"ф":{"ha":1093,"x_min":57,"x_max":1036,"o":"m 753 724 q 902 678 838 724 q 1001 549 967 633 q 1036 354 1036 465 q 1001 159 1036 243 q 902 29 967 75 q 751 -17 838 -17 q 607 36 671 -17 l 607 -257 l 485 -257 l 485 36 q 342 -17 424 -17 q 191 29 256 -17 q 92 159 126 75 q 57 354 57 243 q 92 549 57 465 q 191 678 126 633 q 340 724 256 724 q 485 668 422 724 l 485 989 l 607 989 l 607 668 q 753 724 671 724 m 371 625 q 235 551 286 625 q 185 354 185 478 q 235 156 185 231 q 371 82 286 82 q 485 132 438 82 l 485 574 q 371 625 438 625 m 607 574 l 607 132 q 721 82 657 82 q 857 156 806 82 q 908 354 908 231 q 858 551 908 478 q 721 625 807 625 q 607 574 656 625 z "},"х":{"ha":667,"x_min":-3,"x_max":671,"o":"m 671 0 l 524 0 l 335 282 l 332 282 l 143 0 l -3 0 l 260 367 l 19 706 l 164 706 l 332 453 l 335 453 l 504 706 l 649 706 l 408 367 l 671 0 z "},"ц":{"ha":811,"x_min":108,"x_max":793,"o":"m 793 97 l 793 -222 l 671 -222 l 671 0 l 108 0 l 108 706 l 231 706 l 231 97 l 576 97 l 576 706 l 699 706 l 699 97 l 793 97 z "},"ч":{"ha":724,"x_min":44,"x_max":615,"o":"m 493 0 l 493 281 q 300 254 401 254 q 110 311 176 254 q 44 474 44 368 l 44 706 l 167 706 l 167 492 q 208 387 167 424 q 329 350 250 350 q 493 376 414 350 l 493 706 l 615 706 l 615 0 l 493 0 z "},"ш":{"ha":1163,"x_min":108,"x_max":1054,"o":"m 108 0 l 108 706 l 231 706 l 231 97 l 521 97 l 521 706 l 643 706 l 643 97 l 932 97 l 932 706 l 1054 706 l 1054 0 l 108 0 z "},"щ":{"ha":1168,"x_min":108,"x_max":1140,"o":"m 1140 97 l 1140 -222 l 1018 -222 l 1018 0 l 108 0 l 108 706 l 231 706 l 231 97 l 521 97 l 521 706 l 643 706 l 643 97 l 932 97 l 932 706 l 1054 706 l 1054 97 l 1140 97 z "},"ъ":{"ha":824,"x_min":10,"x_max":783,"o":"m 513 444 q 713 386 643 444 q 783 222 783 328 q 713 58 783 117 q 513 0 643 0 l 218 0 l 218 608 l 10 608 l 10 706 l 340 706 l 340 444 l 513 444 m 340 94 l 506 94 q 660 222 660 94 q 506 350 660 350 l 340 350 l 340 94 z "},"ы":{"ha":1011,"x_min":108,"x_max":903,"o":"m 403 444 q 603 386 533 444 q 674 222 674 328 q 603 58 674 117 q 403 0 533 0 l 108 0 l 108 706 l 231 706 l 231 444 l 403 444 m 231 94 l 396 94 q 550 222 550 94 q 396 350 550 350 l 231 350 l 231 94 m 781 0 l 781 706 l 903 706 l 903 0 l 781 0 z "},"ь":{"ha":722,"x_min":108,"x_max":674,"o":"m 403 444 q 603 386 533 444 q 674 222 674 328 q 603 58 674 117 q 403 0 533 0 l 108 0 l 108 706 l 231 706 l 231 444 l 403 444 m 231 94 l 396 94 q 550 222 550 94 q 396 350 550 350 l 231 350 l 231 94 z "},"э":{"ha":742,"x_min":51,"x_max":685,"o":"m 354 725 q 529 680 454 725 q 644 551 604 635 q 685 353 685 467 q 644 155 685 239 q 529 26 604 71 q 354 -19 454 -19 q 203 16 269 -19 q 97 114 136 51 q 51 257 58 176 l 178 257 q 233 130 185 181 q 354 79 282 79 q 494 141 442 79 q 557 311 547 203 l 247 311 l 247 406 l 556 406 q 492 568 544 510 q 354 626 439 626 q 231 578 279 626 q 178 460 183 529 l 51 460 q 97 594 58 533 q 201 690 135 654 q 354 725 268 725 z "},"ю":{"ha":1096,"x_min":108,"x_max":1039,"o":"m 704 725 q 882 680 807 725 q 998 551 957 635 q 1039 353 1039 467 q 998 155 1039 239 q 882 26 957 71 q 704 -19 807 -19 q 472 67 561 -19 q 369 304 383 153 l 231 304 l 231 0 l 108 0 l 108 706 l 231 706 l 231 400 l 369 401 q 472 639 383 553 q 704 725 561 725 m 704 81 q 856 153 800 81 q 911 353 911 226 q 856 552 911 479 q 704 625 800 625 q 551 552 607 625 q 496 353 496 479 q 551 153 496 226 q 704 81 607 81 z "},"я":{"ha":735,"x_min":22,"x_max":626,"o":"m 626 0 l 504 0 l 504 264 l 336 264 l 315 264 l 160 0 l 22 0 l 199 285 q 61 488 61 333 q 131 649 61 592 q 340 706 201 706 l 626 706 l 626 0 m 350 610 q 185 483 185 610 q 224 391 185 425 q 342 357 263 357 l 504 357 l 504 610 l 350 610 z "},"ѐ":{"ha":764,"x_min":57,"x_max":707,"o":"m 389 75 q 513 113 464 75 q 575 211 563 150 l 700 211 q 599 47 681 113 q 389 -19 518 -19 q 211 28 286 -19 q 97 161 136 75 q 57 363 57 247 q 97 549 57 467 q 210 678 136 632 q 385 725 285 725 q 584 660 503 725 q 693 479 665 594 q 707 328 707 422 l 179 328 q 241 139 183 203 q 389 75 299 75 m 385 631 q 244 576 299 631 q 181 421 190 521 l 586 421 q 522 576 576 522 q 385 631 468 631 m 474 790 l 368 790 l 197 989 l 354 989 l 474 790 z "},"ё":{"ha":764,"x_min":57,"x_max":707,"o":"m 389 75 q 513 113 464 75 q 575 211 563 150 l 700 211 q 599 47 681 113 q 389 -19 518 -19 q 211 28 286 -19 q 97 161 136 75 q 57 363 57 247 q 97 549 57 467 q 210 678 136 632 q 385 725 285 725 q 584 660 503 725 q 693 479 665 594 q 707 328 707 422 l 179 328 q 241 139 183 203 q 389 75 299 75 m 385 631 q 244 576 299 631 q 181 421 190 521 l 586 421 q 522 576 576 522 q 385 631 468 631 m 189 851 l 189 989 l 303 989 l 303 851 l 189 851 m 460 851 l 460 989 l 574 989 l 574 851 l 460 851 z "},"ђ":{"ha":800,"x_min":10,"x_max":699,"o":"m 443 646 q 632 572 565 646 q 699 356 699 499 l 699 -49 q 644 -211 699 -160 q 494 -262 590 -262 q 429 -256 456 -262 l 429 -158 q 469 -162 450 -162 q 550 -135 524 -162 q 576 -37 576 -107 l 576 346 q 535 499 576 453 q 414 546 493 546 q 283 489 335 546 q 231 329 231 432 l 231 0 l 108 0 l 108 778 l 10 778 l 10 863 l 108 863 l 108 989 l 231 989 l 231 863 l 543 863 l 543 778 l 231 778 l 231 542 l 233 542 q 324 619 268 593 q 443 646 379 646 z "},"ѓ":{"ha":579,"x_min":108,"x_max":561,"o":"m 231 608 l 231 0 l 108 0 l 108 706 l 561 706 l 561 608 l 231 608 m 242 790 l 361 989 l 518 989 l 347 790 l 242 790 z "},"є":{"ha":742,"x_min":57,"x_max":690,"o":"m 388 79 q 508 130 460 79 q 564 257 557 181 l 690 257 q 644 114 683 176 q 540 16 606 51 q 389 -19 474 -19 q 213 26 288 -19 q 97 155 138 71 q 57 353 57 239 q 97 551 57 467 q 213 680 138 635 q 389 725 288 725 q 541 690 475 725 q 645 594 607 654 q 690 460 683 533 l 565 460 q 511 578 560 529 q 388 626 463 626 q 251 568 303 626 q 188 406 199 510 l 494 406 l 494 311 l 186 311 q 249 141 196 203 q 388 79 301 79 z "},"ѕ":{"ha":686,"x_min":54,"x_max":629,"o":"m 332 725 q 535 663 463 725 q 607 485 607 600 l 488 485 q 447 593 488 556 q 331 631 406 631 q 230 603 267 631 q 193 531 193 576 q 210 475 193 494 q 260 444 228 456 q 363 417 292 433 q 505 375 454 394 q 592 312 556 356 q 629 192 629 268 q 553 38 629 96 q 350 -19 478 -19 q 133 46 210 -19 q 54 235 56 111 l 178 235 q 223 119 178 160 q 351 78 268 78 q 463 107 421 78 q 504 183 504 136 q 485 246 504 224 q 428 281 465 268 q 310 314 390 294 q 181 352 225 335 q 103 409 136 369 q 71 521 71 449 q 144 668 71 611 q 332 725 217 725 z "},"і":{"ha":339,"x_min":108,"x_max":231,"o":"m 108 851 l 108 989 l 231 989 l 231 851 l 108 851 m 108 0 l 108 706 l 231 706 l 231 0 l 108 0 z "},"ї":{"ha":339,"x_min":6,"x_max":332,"o":"m 108 0 l 108 706 l 231 706 l 231 0 l 108 0 m 6 851 l 6 989 l 119 989 l 119 851 l 6 851 m 219 851 l 219 989 l 332 989 l 332 851 l 219 851 z "},"ј":{"ha":346,"x_min":-31,"x_max":238,"o":"m 115 851 l 115 989 l 238 989 l 238 851 l 115 851 m 238 -40 q 184 -209 238 -156 q 35 -262 131 -262 q -31 -256 -4 -262 l -31 -158 q 10 -162 -10 -162 q 90 -133 64 -162 q 115 -29 115 -103 l 115 706 l 238 706 l 238 -40 z "},"љ":{"ha":1149,"x_min":8,"x_max":1100,"o":"m 829 444 q 1030 386 960 444 q 1100 222 1100 328 q 1030 58 1100 117 q 829 0 960 0 l 535 0 l 535 608 l 296 608 q 265 222 290 354 q 191 42 239 89 q 60 -6 143 -6 q 8 0 29 -6 l 8 93 q 36 90 22 90 q 117 136 89 90 q 161 313 146 182 q 181 706 176 443 l 657 706 l 657 444 l 829 444 m 657 94 l 824 94 q 976 222 976 94 q 824 350 976 350 l 657 350 l 657 94 z "},"њ":{"ha":1201,"x_min":108,"x_max":1151,"o":"m 881 444 q 1081 386 1011 444 q 1151 222 1151 328 q 1082 58 1151 117 q 881 0 1013 0 l 588 0 l 588 331 l 231 331 l 231 0 l 108 0 l 108 706 l 231 706 l 231 426 l 588 426 l 588 706 l 710 706 l 710 444 l 881 444 m 710 94 l 875 94 q 1028 222 1028 94 q 875 350 1028 350 l 710 350 l 710 94 z "},"ћ":{"ha":800,"x_min":10,"x_max":699,"o":"m 443 646 q 632 572 565 646 q 699 356 699 499 l 699 0 l 576 0 l 576 346 q 535 499 576 453 q 414 546 493 546 q 283 489 335 546 q 231 329 231 432 l 231 0 l 108 0 l 108 778 l 10 778 l 10 863 l 108 863 l 108 989 l 231 989 l 231 863 l 543 863 l 543 778 l 231 778 l 231 542 l 233 542 q 324 619 268 593 q 443 646 379 646 z "},"ќ":{"ha":718,"x_min":108,"x_max":707,"o":"m 546 0 l 233 353 l 231 353 l 231 0 l 108 0 l 108 706 l 231 706 l 231 413 l 233 413 l 518 706 l 669 706 l 353 386 l 707 0 l 546 0 m 282 790 l 401 989 l 558 989 l 388 790 l 282 790 z "},"ѝ":{"ha":864,"x_min":108,"x_max":756,"o":"m 631 0 l 631 272 q 635 589 631 431 l 632 589 q 468 296 574 479 l 294 0 l 108 0 l 108 706 l 233 706 l 233 433 q 229 117 233 275 l 232 117 q 396 410 294 239 l 569 706 l 756 706 l 756 0 l 631 0 m 525 790 l 419 790 l 249 989 l 406 989 l 525 790 z "},"ў":{"ha":656,"x_min":-8,"x_max":664,"o":"m 381 -32 q 308 -173 346 -124 q 219 -242 269 -222 q 90 -262 168 -262 q 26 -256 49 -262 l 26 -153 q 85 -161 51 -161 q 162 -147 132 -161 q 214 -100 192 -133 q 260 -3 236 -67 l -8 706 l 124 706 l 326 144 l 329 144 l 535 706 l 664 706 l 381 -32 m 544 989 q 481 842 538 894 q 329 790 425 790 q 176 842 233 790 q 113 989 119 894 l 204 989 q 243 906 210 935 q 329 876 276 876 q 415 906 382 876 q 454 989 447 935 l 544 989 z "},"џ":{"ha":807,"x_min":108,"x_max":699,"o":"m 463 0 l 463 -222 l 340 -222 l 340 0 l 108 0 l 108 706 l 231 706 l 231 97 l 576 97 l 576 706 l 699 706 l 699 0 l 463 0 z "},"Ґ":{"ha":678,"x_min":132,"x_max":664,"o":"m 260 875 l 260 0 l 132 0 l 132 989 l 542 989 l 542 1194 l 664 1194 l 664 875 l 260 875 z "},"ґ":{"ha":579,"x_min":108,"x_max":561,"o":"m 231 608 l 231 0 l 108 0 l 108 706 l 444 706 l 444 928 l 561 928 l 561 608 l 231 608 z "},"Ғ":{"ha":678,"x_min":40,"x_max":664,"o":"m 260 522 l 460 522 l 460 424 l 260 424 l 260 0 l 132 0 l 132 424 l 40 424 l 40 522 l 132 522 l 132 989 l 664 989 l 664 875 l 260 875 l 260 522 z "},"ғ":{"ha":582,"x_min":29,"x_max":564,"o":"m 233 383 l 417 383 l 417 294 l 233 294 l 233 0 l 111 0 l 111 294 l 29 294 l 29 383 l 111 383 l 111 706 l 564 706 l 564 608 l 233 608 l 233 383 z "},"Җ":{"ha":1218,"x_min":7,"x_max":1211,"o":"m 1211 -222 l 1089 -222 l 1089 0 l 1053 0 l 675 503 l 672 503 l 672 0 l 546 0 l 546 503 l 543 503 l 164 0 l 7 0 l 411 518 l 44 989 l 199 989 l 543 526 l 546 526 l 546 989 l 672 989 l 672 526 l 675 526 l 1019 989 l 1174 989 l 807 518 l 1122 114 l 1211 114 l 1211 -222 z "},"җ":{"ha":956,"x_min":-12,"x_max":968,"o":"m 968 -222 l 846 -222 l 846 0 l 810 0 l 540 371 l 538 371 l 538 0 l 418 0 l 418 371 l 415 371 l 146 0 l -12 0 l 290 386 l 21 706 l 169 706 l 415 396 l 418 396 l 418 706 l 538 706 l 538 396 l 540 396 l 786 706 l 935 706 l 665 386 l 892 97 l 968 97 l 968 -222 z "},"Қ":{"ha":868,"x_min":132,"x_max":863,"o":"m 863 -222 l 740 -222 l 740 0 l 692 0 l 263 486 l 260 486 l 260 0 l 132 0 l 132 989 l 260 989 l 260 543 l 263 543 l 661 989 l 822 989 l 390 518 l 758 114 l 863 114 l 863 -222 z "},"қ":{"ha":718,"x_min":108,"x_max":707,"o":"m 707 -222 l 585 -222 l 585 0 l 546 0 l 233 353 l 231 353 l 231 0 l 108 0 l 108 706 l 231 706 l 231 413 l 233 413 l 518 706 l 669 706 l 353 386 l 618 97 l 707 97 l 707 -222 z "},"Ҝ":{"ha":964,"x_min":132,"x_max":957,"o":"m 447 457 l 447 219 l 339 219 l 339 457 l 258 457 l 258 0 l 132 0 l 132 989 l 258 989 l 258 569 l 339 569 l 339 807 l 447 807 l 447 569 l 453 569 l 765 989 l 919 989 l 553 515 l 957 0 l 799 0 l 453 457 l 447 457 z "},"ҝ":{"ha":788,"x_min":108,"x_max":799,"o":"m 396 336 l 396 147 l 301 147 l 301 336 l 229 336 l 229 0 l 108 0 l 108 706 l 229 706 l 229 432 l 301 432 l 301 613 l 396 613 l 396 432 l 401 432 l 618 706 l 767 706 l 497 388 l 799 0 l 642 0 l 399 336 l 396 336 z "},"Ң":{"ha":1040,"x_min":132,"x_max":1007,"o":"m 885 -222 l 885 0 l 764 0 l 764 457 l 260 457 l 260 0 l 132 0 l 132 989 l 260 989 l 260 569 l 764 569 l 764 989 l 893 989 l 893 114 l 1007 114 l 1007 -222 l 885 -222 z "},"ң":{"ha":822,"x_min":108,"x_max":804,"o":"m 682 -222 l 682 0 l 588 0 l 588 306 l 231 306 l 231 0 l 108 0 l 108 706 l 231 706 l 231 403 l 588 403 l 588 706 l 710 706 l 710 97 l 804 97 l 804 -222 l 682 -222 z "},"Ү":{"ha":853,"x_min":6,"x_max":847,"o":"m 490 0 l 363 0 l 363 410 l 6 989 l 154 989 l 275 785 q 425 524 346 665 l 428 524 q 578 785 507 665 l 700 989 l 847 989 l 490 410 l 490 0 z "},"ү":{"ha":653,"x_min":-8,"x_max":661,"o":"m 388 -12 l 388 -257 l 265 -257 l 265 -12 l -8 706 l 122 706 l 222 429 q 325 135 264 318 l 328 135 q 429 429 388 313 l 531 706 l 661 706 l 388 -12 z "},"Ҳ":{"ha":863,"x_min":10,"x_max":857,"o":"m 857 -222 l 735 -222 l 735 0 l 700 0 l 433 407 l 431 407 l 164 0 l 10 0 l 353 507 l 29 989 l 179 989 l 431 604 l 433 604 l 683 989 l 833 989 l 510 507 l 776 114 l 857 114 l 857 -222 z "},"ҳ":{"ha":667,"x_min":-3,"x_max":671,"o":"m 671 -222 l 549 -222 l 549 0 l 524 0 l 335 282 l 332 282 l 143 0 l -3 0 l 260 367 l 19 706 l 164 706 l 332 453 l 335 453 l 504 706 l 649 706 l 408 367 l 601 97 l 671 97 l 671 -222 z "},"Ҹ":{"ha":893,"x_min":50,"x_max":763,"o":"m 763 0 l 633 0 l 633 411 q 467 381 563 389 l 467 178 l 353 178 l 353 376 q 128 460 206 383 q 50 672 50 536 l 50 989 l 179 989 l 179 692 q 224 555 179 606 q 353 492 268 504 l 353 785 l 467 785 l 467 492 q 633 522 556 497 l 633 989 l 763 989 l 763 0 z "},"ҹ":{"ha":724,"x_min":44,"x_max":615,"o":"m 615 0 l 493 0 l 493 281 q 376 258 442 265 l 376 118 l 282 118 l 282 254 q 106 315 167 258 q 44 474 44 372 l 44 706 l 167 706 l 167 492 q 282 354 167 372 l 282 576 l 376 576 l 376 353 q 493 376 433 357 l 493 706 l 615 706 l 615 0 z "},"Һ":{"ha":893,"x_min":132,"x_max":843,"o":"m 260 989 l 260 578 q 514 613 375 613 q 758 535 674 613 q 843 317 843 458 l 843 0 l 715 0 l 715 297 q 657 448 715 396 q 488 500 599 500 q 260 467 364 500 l 260 0 l 132 0 l 132 989 l 260 989 z "},"һ":{"ha":800,"x_min":108,"x_max":699,"o":"m 233 617 q 324 694 268 668 q 443 721 379 721 q 632 647 565 721 q 699 431 699 574 l 699 0 l 576 0 l 576 421 q 535 574 576 528 q 414 621 493 621 q 283 564 335 621 q 231 404 231 507 l 231 0 l 108 0 l 108 989 l 231 989 l 231 617 l 233 617 z "},"Ӏ":{"ha":392,"x_min":132,"x_max":260,"o":"m 132 0 l 132 989 l 260 989 l 260 0 l 132 0 z "},"ӏ":{"ha":339,"x_min":108,"x_max":231,"o":"m 108 0 l 108 989 l 231 989 l 231 0 l 108 0 z "},"Ә":{"ha":1029,"x_min":60,"x_max":969,"o":"m 497 1008 q 749 945 643 1008 q 913 766 856 882 q 969 494 969 650 q 914 228 969 344 q 753 46 858 111 q 507 -19 649 -19 q 269 43 371 -19 q 114 222 168 106 q 60 494 60 338 q 61 539 60 528 l 836 539 q 737 802 831 711 q 496 893 643 893 q 313 838 385 893 q 222 692 240 783 l 82 692 q 152 852 99 781 q 293 966 206 924 q 497 1008 381 1008 m 507 97 q 735 185 647 97 q 835 428 822 274 l 194 428 q 291 184 206 271 q 507 97 376 97 z "},"ә":{"ha":764,"x_min":57,"x_max":707,"o":"m 371 725 q 617 624 528 725 q 707 353 707 522 q 667 160 707 244 q 553 28 628 76 q 378 -19 479 -19 q 208 26 281 -19 q 96 156 135 72 q 57 353 57 240 q 60 388 57 368 l 585 388 q 522 569 581 507 q 371 631 463 631 q 256 594 300 631 q 199 497 211 557 l 72 497 q 169 660 92 596 q 371 725 247 725 m 378 75 q 521 135 465 75 q 583 300 576 194 l 179 300 q 240 133 186 192 q 378 75 294 75 z "},"Ө":{"ha":1017,"x_min":60,"x_max":957,"o":"m 508 1008 q 576 1008 508 1008 q 746 946 644 1008 q 902 767 847 883 q 957 494 957 651 q 902 222 957 338 q 746 43 847 106 q 508 -19 644 -19 q 271 43 372 -19 q 115 222 169 106 q 60 494 60 338 q 115 767 60 651 q 271 946 169 883 q 508 1008 372 1008 m 508 896 q 289 803 374 896 q 190 551 204 711 l 828 551 q 729 803 814 711 q 508 896 644 896 m 508 93 q 576 93 508 93 q 729 185 644 93 q 828 439 814 278 l 190 439 q 288 185 204 278 q 508 93 372 93 z "},"ө":{"ha":786,"x_min":57,"x_max":728,"o":"m 392 725 q 469 725 392 725 q 638 625 547 725 q 728 353 728 525 q 638 81 728 181 q 392 -19 547 -19 q 147 81 236 -19 q 57 353 57 181 q 147 625 57 525 q 392 725 236 725 m 392 628 q 347 628 392 628 q 247 567 303 628 q 182 397 192 506 l 601 397 q 536 567 592 506 q 392 628 481 628 m 392 78 q 436 78 392 78 q 536 139 481 78 q 601 308 592 200 l 182 308 q 247 139 192 200 q 392 78 303 78 z "},"Ẁ":{"ha":1272,"x_min":14,"x_max":1258,"o":"m 844 0 l 740 432 q 638 875 683 667 l 635 875 q 532 432 589 667 l 428 0 l 244 0 l 14 989 l 142 989 l 235 589 q 328 168 267 449 l 338 124 l 340 124 q 450 590 403 404 l 547 989 l 725 989 l 822 590 q 932 124 869 404 l 935 124 q 1038 589 978 333 l 1131 989 l 1258 989 l 1028 0 l 844 0 m 728 1056 l 622 1056 l 451 1247 l 608 1247 l 728 1056 z "},"ẁ":{"ha":1069,"x_min":10,"x_max":1060,"o":"m 697 0 l 614 306 q 594 383 599 364 q 536 611 561 507 l 533 611 q 475 383 508 507 q 456 306 471 364 l 372 0 l 197 0 l 10 706 l 133 706 l 208 411 q 286 94 242 278 l 289 94 q 367 404 326 253 l 447 706 l 622 706 l 703 404 l 781 94 l 783 94 q 861 411 828 278 l 936 706 l 1060 706 l 872 0 l 697 0 m 628 790 l 522 790 l 351 989 l 508 989 l 628 790 z "},"Ẃ":{"ha":1272,"x_min":14,"x_max":1258,"o":"m 844 0 l 740 432 q 638 875 683 667 l 635 875 q 532 432 589 667 l 428 0 l 244 0 l 14 989 l 142 989 l 235 589 q 328 168 267 449 l 338 124 l 340 124 q 450 590 403 404 l 547 989 l 725 989 l 822 590 q 932 124 869 404 l 935 124 q 1038 589 978 333 l 1131 989 l 1258 989 l 1028 0 l 844 0 m 543 1056 l 663 1247 l 819 1247 l 649 1056 l 543 1056 z "},"ẃ":{"ha":1069,"x_min":10,"x_max":1060,"o":"m 697 0 l 614 306 q 594 383 599 364 q 536 611 561 507 l 533 611 q 475 383 508 507 q 456 306 471 364 l 372 0 l 197 0 l 10 706 l 133 706 l 208 411 q 286 94 242 278 l 289 94 q 367 404 326 253 l 447 706 l 622 706 l 703 404 l 781 94 l 783 94 q 861 411 828 278 l 936 706 l 1060 706 l 872 0 l 697 0 m 442 790 l 561 989 l 718 989 l 547 790 l 442 790 z "},"Ẅ":{"ha":1272,"x_min":14,"x_max":1258,"o":"m 844 0 l 740 432 q 638 875 683 667 l 635 875 q 532 432 589 667 l 428 0 l 244 0 l 14 989 l 142 989 l 235 589 q 328 168 267 449 l 338 124 l 340 124 q 450 590 403 404 l 547 989 l 725 989 l 822 590 q 932 124 869 404 l 935 124 q 1038 589 978 333 l 1131 989 l 1258 989 l 1028 0 l 844 0 m 443 1076 l 443 1214 l 557 1214 l 557 1076 l 443 1076 m 714 1076 l 714 1214 l 828 1214 l 828 1076 l 714 1076 z "},"ẅ":{"ha":1069,"x_min":10,"x_max":1060,"o":"m 697 0 l 614 306 q 594 383 599 364 q 536 611 561 507 l 533 611 q 475 383 508 507 q 456 306 471 364 l 372 0 l 197 0 l 10 706 l 133 706 l 208 411 q 286 94 242 278 l 289 94 q 367 404 326 253 l 447 706 l 622 706 l 703 404 l 781 94 l 783 94 q 861 411 828 278 l 936 706 l 1060 706 l 872 0 l 697 0 m 342 851 l 342 989 l 456 989 l 456 851 l 342 851 m 613 851 l 613 989 l 726 989 l 726 851 l 613 851 z "},"ẞ":{"ha":1068,"x_min":118,"x_max":1004,"o":"m 1004 267 q 917 57 1004 131 q 681 -17 829 -17 q 456 52 533 -17 q 378 251 378 121 l 504 251 q 549 135 504 175 q 681 94 594 94 q 820 139 769 94 q 871 268 871 183 q 791 430 871 375 q 553 497 711 485 l 553 592 l 763 815 q 665 874 722 853 q 539 896 607 896 q 320 819 394 896 q 246 589 246 742 l 246 0 l 118 0 l 118 588 q 228 899 118 790 q 544 1007 339 1007 q 762 960 663 1007 q 925 831 861 913 l 696 586 q 1004 267 1004 522 z "},"Ỳ":{"ha":853,"x_min":6,"x_max":847,"o":"m 490 0 l 363 0 l 363 410 l 6 989 l 154 989 l 275 785 q 425 524 346 665 l 428 524 q 578 785 507 665 l 700 989 l 847 989 l 490 410 l 490 0 m 519 1056 l 414 1056 l 243 1247 l 400 1247 l 519 1056 z "},"ỳ":{"ha":656,"x_min":-8,"x_max":664,"o":"m 381 -32 q 308 -173 346 -124 q 219 -242 269 -222 q 90 -262 168 -262 q 26 -256 49 -262 l 26 -153 q 85 -161 51 -161 q 162 -147 132 -161 q 214 -100 192 -133 q 260 -3 236 -67 l -8 706 l 124 706 l 326 144 l 329 144 l 535 706 l 664 706 l 381 -32 m 421 790 l 315 790 l 144 989 l 301 989 l 421 790 z "},"‐":{"ha":417,"x_min":42,"x_max":375,"o":"m 42 351 l 42 460 l 375 460 l 375 351 l 42 351 z "},"–":{"ha":694,"x_min":28,"x_max":667,"o":"m 28 351 l 28 460 l 667 460 l 667 351 l 28 351 z "},"—":{"ha":1389,"x_min":28,"x_max":1361,"o":"m 28 351 l 28 460 l 1361 460 l 1361 351 l 28 351 z "},"―":{"ha":1389,"x_min":28,"x_max":1361,"o":"m 28 351 l 28 460 l 1361 460 l 1361 351 l 28 351 z "},"‗":{"ha":694,"x_min":0,"x_max":694,"o":"m 0 -137 l 0 -69 l 694 -69 l 694 -137 l 0 -137 m 0 -317 l 0 -249 l 694 -249 l 694 -317 l 0 -317 z "},"‘":{"ha":329,"x_min":96,"x_max":236,"o":"m 163 989 l 236 989 l 188 803 l 235 803 l 235 653 l 96 653 l 96 803 l 163 989 z "},"’":{"ha":329,"x_min":93,"x_max":233,"o":"m 167 653 l 93 653 l 142 839 l 96 839 l 96 989 l 233 989 l 233 839 l 167 653 z "},"‚":{"ha":329,"x_min":93,"x_max":233,"o":"m 167 -186 l 93 -186 l 142 0 l 96 0 l 96 150 l 233 150 l 233 0 l 167 -186 z "},"‛":{"ha":329,"x_min":96,"x_max":236,"o":"m 235 839 l 188 839 l 236 653 l 163 653 l 96 839 l 96 989 l 235 989 l 235 839 z "},"“":{"ha":553,"x_min":96,"x_max":458,"o":"m 163 989 l 236 989 l 188 803 l 235 803 l 235 653 l 96 653 l 96 803 l 163 989 m 386 989 l 458 989 l 410 803 l 457 803 l 457 653 l 319 653 l 319 803 l 386 989 z "},"”":{"ha":553,"x_min":93,"x_max":457,"o":"m 167 653 l 93 653 l 142 839 l 96 839 l 96 989 l 233 989 l 233 839 l 167 653 m 390 653 l 317 653 l 365 839 l 319 839 l 319 989 l 457 989 l 457 839 l 390 653 z "},"„":{"ha":553,"x_min":93,"x_max":457,"o":"m 167 -186 l 93 -186 l 142 0 l 96 0 l 96 150 l 233 150 l 233 0 l 167 -186 m 390 -186 l 317 -186 l 365 0 l 319 0 l 319 150 l 457 150 l 457 0 l 390 -186 z "},"†":{"ha":744,"x_min":75,"x_max":669,"o":"m 669 725 l 669 622 l 435 622 l 435 -167 l 310 -167 l 310 622 l 75 622 l 75 725 l 310 725 l 310 989 l 435 989 l 435 725 l 669 725 z "},"‡":{"ha":744,"x_min":75,"x_max":669,"o":"m 669 726 l 669 624 l 435 624 l 435 257 l 669 257 l 669 154 l 435 154 l 435 -167 l 310 -167 l 310 154 l 75 154 l 75 257 l 310 257 l 310 624 l 75 624 l 75 726 l 310 726 l 310 989 l 435 989 l 435 726 l 669 726 z "},"•":{"ha":465,"x_min":74,"x_max":392,"o":"m 232 335 q 120 382 167 335 q 74 494 74 429 q 120 608 74 561 q 232 654 167 654 q 345 608 299 654 q 392 494 392 561 q 345 382 392 429 q 232 335 299 335 z "},"…":{"ha":1046,"x_min":82,"x_max":964,"o":"m 82 0 l 82 163 l 232 163 l 232 0 l 82 0 m 449 0 l 449 163 l 599 163 l 599 0 l 449 0 m 814 0 l 814 163 l 964 163 l 964 0 l 814 0 z "},"‰":{"ha":1408,"x_min":42,"x_max":1367,"o":"m 135 -42 l 721 978 l 818 978 l 232 -42 l 135 -42 m 229 956 q 367 896 318 956 q 415 726 415 836 q 367 556 415 617 q 229 496 318 496 q 90 556 139 496 q 42 726 42 617 q 90 896 42 836 q 229 956 139 956 m 229 874 q 165 835 188 874 q 142 726 142 797 q 165 617 142 656 q 229 579 188 579 q 292 617 269 579 q 315 726 315 656 q 292 835 315 797 q 229 874 269 874 m 724 440 q 862 381 813 440 q 911 211 911 321 q 862 42 911 101 q 724 -18 813 -18 q 585 42 633 -18 q 536 211 536 101 q 585 381 536 321 q 724 440 633 440 m 1179 440 q 1318 381 1269 440 q 1367 211 1367 321 q 1318 42 1367 101 q 1179 -18 1269 -18 q 1041 42 1090 -18 q 992 211 992 101 q 1041 381 992 321 q 1179 440 1090 440 m 724 358 q 659 320 682 358 q 636 211 636 282 q 659 102 636 140 q 724 64 682 64 q 787 102 764 64 q 810 211 810 140 q 787 320 810 282 q 724 358 764 358 m 1179 358 q 1116 320 1139 358 q 1093 211 1093 282 q 1116 102 1093 140 q 1179 64 1139 64 q 1244 102 1221 64 q 1267 211 1267 140 q 1244 320 1267 282 q 1179 358 1221 358 z "},"′":{"ha":258,"x_min":42,"x_max":217,"o":"m 42 624 l 99 936 l 217 936 l 121 624 l 42 624 z "},"″":{"ha":458,"x_min":42,"x_max":425,"o":"m 250 624 l 307 936 l 425 936 l 329 624 l 250 624 m 42 624 l 99 936 l 217 936 l 121 624 l 42 624 z "},"‹":{"ha":406,"x_min":67,"x_max":339,"o":"m 339 75 l 225 75 l 67 353 l 225 631 l 339 631 l 185 353 l 339 75 z "},"›":{"ha":406,"x_min":67,"x_max":339,"o":"m 339 353 l 181 75 l 67 75 l 221 353 l 67 631 l 181 631 l 339 353 z "},"‼":{"ha":694,"x_min":113,"x_max":582,"o":"m 454 243 l 425 989 l 582 989 l 553 243 l 454 243 m 432 0 l 432 147 l 576 147 l 576 0 l 432 0 m 142 243 l 113 989 l 269 989 l 240 243 l 142 243 m 119 0 l 119 147 l 264 147 l 264 0 l 119 0 z "},"‽":{"ha":717,"x_min":46,"x_max":663,"o":"m 417 900 q 596 828 529 889 q 663 674 663 767 q 651 585 663 622 q 609 511 640 549 q 515 425 578 474 q 445 364 467 388 q 415 310 424 340 q 406 229 406 281 l 306 229 l 289 781 q 174 624 182 749 l 46 624 q 113 808 51 739 q 285 896 175 876 l 282 989 l 419 989 l 417 900 m 450 508 q 517 590 501 558 q 532 669 532 621 q 501 748 532 717 q 413 789 469 779 l 401 463 l 404 463 l 450 508 m 425 147 l 425 0 l 282 0 l 282 147 l 425 147 z "},"‾":{"ha":694,"x_min":0,"x_max":694,"o":"m 0 1094 l 0 1185 l 694 1185 l 694 1094 l 0 1094 z "},"⁄":{"ha":204,"x_min":-215,"x_max":421,"o":"m -215 0 l 318 936 l 421 936 l -114 0 l -215 0 z "},"⁰":{"ha":603,"x_min":50,"x_max":553,"o":"m 301 1128 q 363 1128 301 1128 q 488 1040 424 1128 q 553 786 553 951 q 488 533 553 621 q 301 444 424 444 q 115 533 179 444 q 50 786 50 621 q 115 1040 50 951 q 301 1128 179 1128 m 301 1036 q 268 1036 301 1036 q 199 972 235 1036 q 163 786 163 907 q 199 599 163 664 q 301 533 235 533 q 403 599 368 533 q 439 786 439 664 q 403 972 439 907 q 301 1036 368 1036 z "},"⁴":{"ha":564,"x_min":15,"x_max":549,"o":"m 436 618 l 436 458 l 331 458 l 331 618 l 15 618 l 15 714 l 294 1114 l 436 1114 l 436 707 l 549 707 l 549 618 l 436 618 m 332 707 l 332 792 q 335 1018 332 865 l 333 1018 q 190 810 278 935 l 118 707 l 332 707 z "},"⁵":{"ha":575,"x_min":53,"x_max":524,"o":"m 188 1022 l 171 843 l 174 843 q 231 879 196 867 q 304 892 267 892 q 464 833 404 892 q 524 676 524 775 q 458 508 524 571 q 282 444 393 444 q 115 496 178 444 q 53 636 53 547 l 164 636 q 198 562 165 589 q 282 535 231 535 q 376 572 342 535 q 411 671 411 608 q 377 769 411 733 q 286 804 343 804 q 209 781 240 804 q 167 718 178 758 l 58 724 l 96 1114 l 492 1114 l 492 1022 l 188 1022 z "},"⁶":{"ha":579,"x_min":50,"x_max":533,"o":"m 307 1128 q 459 1078 401 1128 q 525 940 517 1028 l 413 940 q 304 1038 396 1038 q 154 811 164 1038 l 157 811 q 319 886 214 886 q 474 827 415 886 q 533 671 533 768 q 467 507 533 569 q 296 444 401 444 q 113 525 176 444 q 50 763 50 606 q 117 1033 50 939 q 307 1128 185 1128 m 299 799 q 207 763 242 799 q 172 668 172 726 q 206 571 172 607 q 297 535 240 535 q 388 572 353 535 q 422 669 422 610 q 388 763 422 728 q 299 799 354 799 z "},"⁷":{"ha":508,"x_min":15,"x_max":493,"o":"m 493 1021 q 353 767 414 913 q 260 458 292 622 l 138 458 q 244 778 179 635 q 381 1019 308 921 l 15 1019 l 15 1114 l 493 1114 l 493 1021 z "},"⁸":{"ha":579,"x_min":47,"x_max":532,"o":"m 289 1128 q 340 1128 289 1128 q 454 1077 390 1128 q 518 946 518 1026 q 488 858 518 896 q 404 799 458 821 l 404 796 q 499 736 467 776 q 532 638 532 696 q 465 497 532 550 q 289 444 399 444 q 113 497 179 444 q 47 638 47 550 q 80 737 47 697 q 175 796 113 776 l 175 799 q 90 858 121 821 q 60 946 60 896 q 124 1077 60 1026 q 289 1128 188 1128 m 289 1038 q 262 1038 289 1038 q 201 1011 235 1038 q 167 942 167 985 q 200 867 167 894 q 289 839 233 839 q 378 867 344 839 q 411 942 411 894 q 377 1011 411 985 q 289 1038 343 1038 m 289 751 q 194 722 231 751 q 157 643 157 692 q 193 564 157 593 q 289 535 229 535 q 385 564 349 535 q 421 643 421 593 q 385 722 421 692 q 289 751 349 751 z "},"⁹":{"ha":579,"x_min":44,"x_max":529,"o":"m 271 444 q 119 494 176 444 q 54 632 63 544 l 167 632 q 274 535 182 535 q 381 591 342 535 q 424 761 419 647 l 421 761 q 260 686 365 686 q 104 746 164 686 q 44 901 44 806 q 110 1065 44 1003 q 282 1128 176 1128 q 465 1047 401 1128 q 529 810 529 967 q 461 539 529 633 q 271 444 393 444 m 281 774 q 308 774 281 774 q 372 810 336 774 q 407 904 407 847 q 373 1001 407 965 q 282 1038 339 1038 q 192 1000 226 1038 q 157 903 157 963 q 191 809 157 844 q 281 774 225 774 z "}}}
